GeoramaSemiCondensed-LightItalic.ufo
<glyph name="exclam" format="2">
  <advance width="170.32000000000002"/>
  <unicode hex="0021"/>
  <outline>
    <contour>
      <point x="59.559999999999995" y="263.0" type="line"/>
      <point x="105.88000000000001" y="263.0" type="line"/>
      <point x="184.92" y="740.0" type="line"/>
      <point x="132.8" y="740.0" type="line"/>
    </contour>
    <contour>
      <point x="14.120000000000001" y="21.88" type="curve" smooth="yes"/>
      <point x="13.32" y="4.800000000000001"/>
      <point x="19.800000000000004" y="-2.0"/>
      <point x="40.28" y="-2.0" type="curve" smooth="yes"/>
      <point x="71.04" y="-2.0"/>
      <point x="77.96000000000001" y="15.440000000000001"/>
      <point x="80.36" y="48.08" type="curve" smooth="yes"/>
      <point x="81.16" y="65.8"/>
      <point x="73.4" y="71.96000000000001"/>
      <point x="53.599999999999994" y="71.96000000000001" type="curve" smooth="yes"/>
      <point x="24.240000000000002" y="71.96000000000001"/>
      <point x="16.52" y="54.64"/>
    </contour>
  </outline>
</glyph>
<glyph name="numbersign" format="2">
  <advance width="434.64"/>
  <unicode hex="0023"/>
  <outline>
    <contour>
      <point x="99.91999999999999" y="465.52" type="line"/>
      <point x="170.68" y="465.52" type="line"/>
      <point x="102.88" y="231.64" type="line"/>
      <point x="37.04" y="231.64" type="line"/>
      <point x="29.08" y="185.48" type="line"/>
      <point x="91.12" y="185.48" type="line"/>
      <point x="37.879999999999995" y="0.0" type="line"/>
      <point x="83.84" y="0.0" type="line"/>
      <point x="136.28" y="185.48" type="line"/>
      <point x="232.12" y="185.48" type="line"/>
      <point x="179.68" y="0.0" type="line"/>
      <point x="224.83999999999997" y="0.0" type="line"/>
      <point x="277.28000000000003" y="185.48" type="line"/>
      <point x="351.48" y="185.48" type="line"/>
      <point x="358.76" y="231.64" type="line"/>
      <point x="289.28000000000003" y="231.64" type="line"/>
      <point x="356.84000000000003" y="465.52" type="line"/>
      <point x="421.64" y="465.52" type="line"/>
      <point x="429.28" y="511.91999999999996" type="line"/>
      <point x="368.75999999999993" y="511.91999999999996" type="line"/>
      <point x="422.88" y="700.0" type="line"/>
      <point x="377.56" y="700.0" type="line"/>
      <point x="323.44000000000005" y="511.91999999999996" type="line"/>
      <point x="227.6" y="511.91999999999996" type="line"/>
      <point x="281.71999999999997" y="700.0" type="line"/>
      <point x="236.56" y="700.0" type="line"/>
      <point x="182.44" y="511.91999999999996" type="line"/>
      <point x="107.51999999999998" y="511.91999999999996" type="line"/>
    </contour>
    <contour>
      <point x="215.84" y="465.52" type="line"/>
      <point x="311.67999999999995" y="465.52" type="line"/>
      <point x="244.04" y="231.64" type="line"/>
      <point x="148.20000000000002" y="231.64" type="line"/>
    </contour>
  </outline>
</glyph>
<glyph name="dollar" format="2">
  <advance width="434.64"/>
  <unicode hex="0024"/>
  <outline>
    <contour>
      <point x="417.32000000000005" y="685.72" type="line"/>
      <point x="397.6" y="695.04"/>
      <point x="361.52" y="706.9599999999999"/>
      <point x="314.4" y="709.32" type="curve"/>
      <point x="329.6" y="804.6800000000001" type="line"/>
      <point x="284.40000000000003" y="804.6800000000001" type="line"/>
      <point x="268.23999999999995" y="706.52" type="line"/>
      <point x="164.24" y="696.24"/>
      <point x="96.68" y="609.24"/>
      <point x="96.68" y="516.04" type="curve" smooth="yes"/>
      <point x="96.68" y="351.91999999999996"/>
      <point x="308.8" y="308.88000000000005"/>
      <point x="308.8" y="179.11999999999998" type="curve" smooth="yes"/>
      <point x="308.8" y="99.56"/>
      <point x="239.84" y="40.08"/>
      <point x="161.24" y="40.08" type="curve" smooth="yes"/>
      <point x="109.76" y="40.08"/>
      <point x="55.36" y="53.120000000000005"/>
      <point x="24.759999999999998" y="67.60000000000001" type="curve"/>
      <point x="4.440000000000003" y="20.200000000000003" type="line"/>
      <point x="31.96" y="7.839999999999999"/>
      <point x="82.32000000000001" y="-7.08"/>
      <point x="136.44" y="-9.0" type="curve"/>
      <point x="121.44" y="-105.0" type="line"/>
      <point x="166.6" y="-105.0" type="line"/>
      <point x="181.6" y="-7.680000000000001" type="line"/>
      <point x="291.2" y="2.4799999999999995"/>
      <point x="363.12" y="87.12"/>
      <point x="363.12" y="185.12" type="curve" smooth="yes"/>
      <point x="363.12" y="347.9200000000001"/>
      <point x="151.92" y="388.24"/>
      <point x="151.92" y="519.32" type="curve" smooth="yes"/>
      <point x="151.92" y="593.48"/>
      <point x="215.64" y="659.7599999999999"/>
      <point x="290.6" y="659.7599999999999" type="curve" smooth="yes"/>
      <point x="337.20000000000005" y="659.7599999999999"/>
      <point x="368.9200000000001" y="651.5199999999999"/>
      <point x="398.03999999999996" y="639.08" type="curve"/>
    </contour>
  </outline>
</glyph>
<glyph name="ampersand" format="2">
  <advance width="496.71999999999997"/>
  <unicode hex="0026"/>
  <outline>
    <contour>
      <point x="184.88" y="-10.0" type="curve" smooth="yes"/>
      <point x="313.56000000000006" y="-10.0"/>
      <point x="419.84" y="137.27999999999997"/>
      <point x="410.6" y="293.0" type="curve"/>
      <point x="366.52" y="294.00000000000006" type="line"/>
      <point x="379.59999999999997" y="166.88"/>
      <point x="286.24000000000007" y="37.160000000000004"/>
      <point x="191.60000000000002" y="37.160000000000004" type="curve" smooth="yes"/>
      <point x="114.08000000000001" y="37.160000000000004"/>
      <point x="74.08000000000001" y="81.72"/>
      <point x="74.08000000000001" y="154.48000000000002" type="curve" smooth="yes"/>
      <point x="74.08000000000001" y="289.28000000000003"/>
      <point x="172.56000000000003" y="381.52"/>
      <point x="288.4" y="381.52" type="curve" smooth="yes"/>
      <point x="301.84" y="381.52" type="line"/>
      <point x="309.68" y="420.32" type="line"/>
      <point x="299.48" y="421.12" type="line" smooth="yes"/>
      <point x="230.64" y="423.03999999999996"/>
      <point x="190.08" y="463.76000000000005"/>
      <point x="190.08" y="537.64" type="curve" smooth="yes"/>
      <point x="190.08" y="607.28"/>
      <point x="235.28" y="664.9200000000001"/>
      <point x="303.0" y="664.9200000000001" type="curve" smooth="yes"/>
      <point x="339.59999999999997" y="664.9200000000001"/>
      <point x="371.84000000000003" y="653.08"/>
      <point x="400.67999999999995" y="628.0799999999999" type="curve"/>
      <point x="426.08000000000004" y="667.36" type="line"/>
      <point x="393.11999999999995" y="694.4"/>
      <point x="348.99999999999994" y="710.0"/>
      <point x="300.72" y="710.0" type="curve" smooth="yes"/>
      <point x="201.23999999999998" y="710.0"/>
      <point x="138.96" y="633.3599999999999"/>
      <point x="138.96" y="541.7199999999999" type="curve" smooth="yes"/>
      <point x="138.96" y="473.44"/>
      <point x="172.27999999999997" y="425.08000000000004"/>
      <point x="225.24" y="405.6" type="curve"/>
      <point x="108.04" y="383.2"/>
      <point x="22.08" y="285.08"/>
      <point x="22.08" y="146.88" type="curve" smooth="yes"/>
      <point x="22.08" y="52.120000000000005"/>
      <point x="76.36" y="-10.0"/>
    </contour>
    <contour>
      <point x="278.40000000000003" y="250.2" type="line"/>
      <point x="282.59999999999997" y="278.56"/>
      <point x="300.11999999999995" y="292.5199999999999"/>
      <point x="325.2" y="292.5199999999999" type="curve" smooth="yes"/>
      <point x="366.75999999999993" y="292.5199999999999"/>
      <point x="390.47999999999996" y="275.92"/>
      <point x="436.31999999999994" y="275.92" type="curve" smooth="yes"/>
      <point x="480.6" y="275.92"/>
      <point x="509.63999999999993" y="309.12"/>
      <point x="511.72" y="351.76" type="curve"/>
      <point x="476.32" y="357.52" type="line"/>
      <point x="471.52" y="326.32"/>
      <point x="452.23999999999995" y="312.84000000000003"/>
      <point x="420.84" y="312.84000000000003" type="curve" smooth="yes"/>
      <point x="385.80000000000007" y="312.84000000000003"/>
      <point x="356.92" y="329.92"/>
      <point x="319.56" y="329.92" type="curve" smooth="yes"/>
      <point x="275.56" y="329.92"/>
      <point x="249.72000000000003" y="301.32"/>
      <point x="242.95999999999998" y="260.68" type="curve"/>
    </contour>
  </outline>
</glyph>
<glyph name="parenleft" format="2">
  <advance width="235.52"/>
  <unicode hex="0028"/>
  <outline>
    <contour>
      <point x="40.32000000000001" y="19.8" type="curve" smooth="yes"/>
      <point x="40.32000000000001" y="-105.04"/>
      <point x="70.72" y="-196.04"/>
      <point x="136.96" y="-220.0" type="curve"/>
      <point x="151.11999999999998" y="-175.2" type="line"/>
      <point x="110.64" y="-157.16000000000003"/>
      <point x="84.52000000000001" y="-84.32"/>
      <point x="84.52000000000001" y="25.08" type="curve" smooth="yes"/>
      <point x="84.52000000000001" y="213.56"/>
      <point x="169.2" y="651.0400000000001"/>
      <point x="288.36" y="702.3199999999999" type="curve"/>
      <point x="289.4" y="749.3600000000001" type="line"/>
      <point x="120.96" y="688.96"/>
      <point x="40.32000000000001" y="247.56"/>
    </contour>
  </outline>
</glyph>
<glyph name="parenright" format="2">
  <advance width="235.52"/>
  <unicode hex="0029"/>
  <outline>
    <contour>
      <point x="192.79999999999998" y="509.88" type="curve" smooth="yes"/>
      <point x="192.79999999999998" y="635.88"/>
      <point x="162.72" y="726.04"/>
      <point x="96.32000000000001" y="750.0" type="curve"/>
      <point x="83.44" y="702.76" type="line"/>
      <point x="126.8" y="680.56"/>
      <point x="148.6" y="611.0799999999999"/>
      <point x="148.6" y="512.72" type="curve" smooth="yes"/>
      <point x="148.6" y="320.56"/>
      <point x="64.4" y="-121.68"/>
      <point x="-56.199999999999996" y="-173.28" type="curve"/>
      <point x="-56.6" y="-220.0" type="line"/>
      <point x="104.64" y="-156.56"/>
      <point x="192.79999999999998" y="275.96"/>
    </contour>
  </outline>
</glyph>
<glyph name="asterisk" format="2">
  <advance width="257.04"/>
  <unicode hex="002A"/>
  <outline>
    <contour>
      <point x="87.56" y="383.6" type="line"/>
      <point x="161.07999999999998" y="480.24" type="line"/>
      <point x="202.68" y="384.24" type="line"/>
      <point x="229.28" y="401.91999999999996" type="line"/>
      <point x="191.27999999999997" y="505.96000000000004" type="line"/>
      <point x="288.72" y="551.56" type="line"/>
      <point x="283.32000000000005" y="580.8400000000001" type="line"/>
      <point x="187.8" y="543.24" type="line"/>
      <point x="204.99999999999997" y="666.96" type="line"/>
      <point x="175.28" y="666.96" type="line"/>
      <point x="153.44" y="543.88" type="line"/>
      <point x="69.84" y="581.48" type="line"/>
      <point x="55.88" y="552.84" type="line"/>
      <point x="137.56" y="507.24" type="line"/>
      <point x="65.64" y="402.24" type="line"/>
    </contour>
  </outline>
</glyph>
<glyph name="plus" format="2">
  <advance width="391.11999999999995"/>
  <unicode hex="002B"/>
  <outline>
    <contour>
      <point x="142.72" y="87.16" type="line"/>
      <point x="190.04" y="87.16" type="line"/>
      <point x="219.32" y="272.15999999999997" type="line"/>
      <point x="346.68000000000006" y="272.15999999999997" type="line"/>
      <point x="354.44" y="321.0" type="line"/>
      <point x="227.07999999999998" y="321.0" type="line"/>
      <point x="256.56" y="506.6" type="line"/>
      <point x="209.32" y="506.6" type="line"/>
      <point x="179.76" y="321.0" type="line"/>
      <point x="51.88" y="321.0" type="line"/>
      <point x="44.12" y="272.15999999999997" type="line"/>
      <point x="172.07999999999998" y="272.15999999999997" type="line"/>
    </contour>
  </outline>
</glyph>
<glyph name="comma" format="2">
  <advance width="137.24"/>
  <unicode hex="002C"/>
  <outline>
    <contour>
      <point x="8.360000000000001" y="48.44" type="line"/>
      <point x="9.44" y="33.0"/>
      <point x="8.959999999999999" y="17.52"/>
      <point x="8.32" y="5.44" type="curve" smooth="yes"/>
      <point x="6.32" y="-57.72"/>
      <point x="-29.639999999999997" y="-142.64"/>
      <point x="-76.56" y="-179.23999999999998" type="curve"/>
      <point x="-44.8" y="-198.24" type="line"/>
      <point x="28.000000000000007" y="-143.32000000000002"/>
      <point x="59.6" y="-40.24000000000001"/>
      <point x="59.6" y="18.240000000000002" type="curve" smooth="yes"/>
      <point x="59.6" y="30.36"/>
      <point x="58.92000000000001" y="41.519999999999996"/>
      <point x="56.720000000000006" y="54.56" type="curve"/>
    </contour>
  </outline>
</glyph>
<glyph name="hyphen" format="2">
  <advance width="248.55999999999997"/>
  <unicode hex="002D"/>
  <outline>
    <contour>
      <point x="25.6" y="248.72" type="line"/>
      <point x="214.44" y="248.72" type="line"/>
      <point x="223.48" y="300.08" type="line"/>
      <point x="34.64" y="300.08" type="line"/>
    </contour>
  </outline>
</glyph>
<glyph name="period" format="2">
  <advance width="137.76"/>
  <unicode hex="002E"/>
  <outline>
    <contour>
      <point x="-2.2399999999999993" y="22.36" type="curve" smooth="yes"/>
      <point x="-3.04" y="5.12"/>
      <point x="3.2800000000000007" y="-1.5200000000000002"/>
      <point x="23.92" y="-1.5200000000000002" type="curve" smooth="yes"/>
      <point x="54.68" y="-1.5200000000000002"/>
      <point x="61.44" y="15.920000000000002"/>
      <point x="63.84" y="48.879999999999995" type="curve" smooth="yes"/>
      <point x="64.64" y="66.44"/>
      <point x="57.04" y="72.44000000000001"/>
      <point x="37.24" y="72.44000000000001" type="curve" smooth="yes"/>
      <point x="7.720000000000001" y="72.44000000000001"/>
      <point x="0.15999999999999903" y="55.120000000000005"/>
    </contour>
  </outline>
</glyph>
<glyph name="slash" format="2">
  <advance width="274.2"/>
  <unicode hex="002F"/>
  <outline>
    <contour>
      <point x="-69.56" y="-210.0" type="line"/>
      <point x="-23.759999999999998" y="-210.0" type="line"/>
      <point x="340.76" y="740.0" type="line"/>
      <point x="294.6" y="740.0" type="line"/>
    </contour>
  </outline>
</glyph>
<glyph name="zero" format="2">
  <advance width="434.88"/>
  <unicode hex="0030"/>
  <outline>
    <contour>
      <point x="180.16" y="-10.4" type="curve" smooth="yes"/>
      <point x="350.96" y="-10.4"/>
      <point x="432.2" y="311.08000000000004"/>
      <point x="432.2" y="515.5999999999999" type="curve" smooth="yes"/>
      <point x="432.2" y="651.64"/>
      <point x="383.64" y="710.2"/>
      <point x="277.64000000000004" y="710.2" type="curve" smooth="yes"/>
      <point x="104.92000000000002" y="710.2"/>
      <point x="25.520000000000003" y="388.36"/>
      <point x="25.520000000000003" y="185.04000000000002" type="curve" smooth="yes"/>
      <point x="25.520000000000003" y="49.2"/>
      <point x="74.4" y="-10.4"/>
    </contour>
    <contour>
      <point x="184.16" y="40.00000000000001" type="curve" smooth="yes"/>
      <point x="110.64000000000001" y="40.00000000000001"/>
      <point x="78.24000000000001" y="85.0"/>
      <point x="78.92000000000002" y="184.96" type="curve" smooth="yes"/>
      <point x="80.08" y="361.96"/>
      <point x="147.76000000000002" y="660.0000000000001"/>
      <point x="273.64" y="660.0000000000001" type="curve" smooth="yes"/>
      <point x="347.40000000000003" y="660.0000000000001"/>
      <point x="379.4800000000001" y="615.64"/>
      <point x="378.8" y="515.68" type="curve" smooth="yes"/>
      <point x="377.64000000000004" y="339.20000000000005"/>
      <point x="309.52" y="40.00000000000001"/>
    </contour>
  </outline>
</glyph>
<glyph name="one" format="2">
  <advance width="434.64"/>
  <unicode hex="0031"/>
  <outline>
    <contour>
      <point x="16.480000000000004" y="0.0" type="line"/>
      <point x="362.76" y="0.0" type="line"/>
      <point x="370.64" y="49.44" type="line"/>
      <point x="231.52" y="49.44" type="line"/>
      <point x="335.44" y="701.6" type="line"/>
      <point x="308.12" y="701.6" type="line"/>
      <point x="91.84" y="576.68" type="line"/>
      <point x="100.48" y="527.12" type="line"/>
      <point x="270.8" y="628.5600000000001" type="line"/>
      <point x="178.84" y="49.44" type="line"/>
      <point x="24.200000000000003" y="49.44" type="line"/>
    </contour>
  </outline>
</glyph>
<glyph name="two" format="2">
  <advance width="434.88"/>
  <unicode hex="0032"/>
  <outline>
    <contour>
      <point x="22.44" y="40.599999999999994" type="curve"/>
      <point x="19.4" y="0.0" type="line"/>
      <point x="348.52" y="0.0" type="line"/>
      <point x="355.76" y="46.8" type="line"/>
      <point x="93.16000000000001" y="46.8" type="line"/>
      <point x="267.24" y="239.04"/>
      <point x="386.52" y="415.24"/>
      <point x="386.52" y="576.68" type="curve" smooth="yes"/>
      <point x="386.52" y="661.1200000000001"/>
      <point x="336.56" y="710.0"/>
      <point x="259.52" y="710.0" type="curve" smooth="yes"/>
      <point x="204.68000000000004" y="710.0"/>
      <point x="150.52" y="690.28"/>
      <point x="106.91999999999999" y="652.7600000000001" type="curve"/>
      <point x="122.32000000000001" y="609.96" type="line"/>
      <point x="163.96" y="642.5600000000001"/>
      <point x="201.72" y="658.04"/>
      <point x="243.23999999999998" y="658.04" type="curve" smooth="yes"/>
      <point x="297.28000000000003" y="658.04"/>
      <point x="332.31999999999994" y="622.8"/>
      <point x="332.31999999999994" y="561.44" type="curve" smooth="yes"/>
      <point x="331.84" y="424.36"/>
      <point x="214.92" y="248.6"/>
    </contour>
  </outline>
</glyph>
<glyph name="three" format="2">
  <advance width="435.0"/>
  <unicode hex="0033"/>
  <outline>
    <contour>
      <point x="-9.0" y="42.9" type="line"/>
      <point x="30.1" y="8.3"/>
      <point x="84.1" y="-10.0"/>
      <point x="153.2" y="-10.0" type="curve" smooth="yes"/>
      <point x="276.6" y="-10.0"/>
      <point x="370.6" y="85.4"/>
      <point x="370.6" y="237.0" type="curve" smooth="yes"/>
      <point x="370.6" y="316.4"/>
      <point x="336.79999999999995" y="358.2"/>
      <point x="290.09999999999997" y="371.0" type="curve"/>
      <point x="347.0" y="394.1"/>
      <point x="398.2" y="463.4"/>
      <point x="398.2" y="563.9" type="curve" smooth="yes"/>
      <point x="398.2" y="652.2"/>
      <point x="345.5" y="710.0"/>
      <point x="249.8" y="710.0" type="curve" smooth="yes"/>
      <point x="203.60000000000002" y="710.0"/>
      <point x="147.2" y="697.0000000000001"/>
      <point x="107.30000000000001" y="670.7" type="curve"/>
      <point x="122.00000000000001" y="628.2" type="line"/>
      <point x="158.10000000000002" y="649.8"/>
      <point x="198.1" y="658.7"/>
      <point x="236.70000000000002" y="658.7" type="curve" smooth="yes"/>
      <point x="302.90000000000003" y="658.7"/>
      <point x="344.5" y="614.9000000000001"/>
      <point x="344.5" y="548.4" type="curve" smooth="yes"/>
      <point x="344.5" y="458.1"/>
      <point x="289.6" y="387.2"/>
      <point x="220.6" y="387.2" type="curve" smooth="yes"/>
      <point x="147.29999999999998" y="387.2" type="line"/>
      <point x="140.00000000000003" y="343.99999999999994" type="line"/>
      <point x="221.39999999999998" y="343.99999999999994" type="line" smooth="yes"/>
      <point x="284.4" y="343.99999999999994"/>
      <point x="317.50000000000006" y="308.0"/>
      <point x="317.50000000000006" y="234.29999999999998" type="curve" smooth="yes"/>
      <point x="317.50000000000006" y="119.6"/>
      <point x="252.3" y="40.7"/>
      <point x="155.7" y="40.7" type="curve" smooth="yes"/>
      <point x="97.3" y="40.7"/>
      <point x="54.5" y="55.1"/>
      <point x="18.2" y="83.9" type="curve"/>
    </contour>
  </outline>
</glyph>
<glyph name="four" format="2">
  <advance width="435.0"/>
  <unicode hex="0034"/>
  <outline>
    <contour>
      <point x="19.4" y="172.00000000000003" type="line"/>
      <point x="254.89999999999998" y="172.00000000000003" type="line"/>
      <point x="227.6" y="-1.0999999999999999" type="line"/>
      <point x="281.9" y="-1.0999999999999999" type="line"/>
      <point x="308.90000000000003" y="172.00000000000003" type="line"/>
      <point x="392.3" y="172.00000000000003" type="line"/>
      <point x="399.50000000000006" y="218.89999999999998" type="line"/>
      <point x="316.40000000000003" y="218.89999999999998" type="line"/>
      <point x="392.6" y="698.5000000000001" type="line"/>
      <point x="344.2" y="703.2" type="line"/>
      <point x="22.099999999999998" y="214.8" type="line"/>
    </contour>
    <contour>
      <point x="70.60000000000001" y="218.89999999999998" type="line"/>
      <point x="325.7" y="603.8" type="line"/>
      <point x="263.59999999999997" y="218.89999999999998" type="line"/>
    </contour>
  </outline>
</glyph>
<glyph name="five" format="2">
  <advance width="434.88"/>
  <unicode hex="0035"/>
  <outline>
    <contour>
      <point x="3.96" y="44.58" type="line"/>
      <point x="39.32" y="9.2"/>
      <point x="85.34000000000002" y="-10.0"/>
      <point x="151.42000000000002" y="-10.0" type="curve" smooth="yes"/>
      <point x="319.6199999999999" y="-10.0"/>
      <point x="377.38" y="144.1"/>
      <point x="377.38" y="256.26" type="curve" smooth="yes"/>
      <point x="377.38" y="345.84"/>
      <point x="335.02000000000004" y="395.28000000000003"/>
      <point x="247.06" y="395.88000000000005" type="curve" smooth="yes"/>
      <point x="139.10000000000002" y="396.08" type="line"/>
      <point x="196.20000000000002" y="648.42" type="line"/>
      <point x="411.8" y="648.42" type="line"/>
      <point x="419.82" y="700.0" type="line"/>
      <point x="162.04000000000002" y="700.0" type="line"/>
      <point x="82.16" y="359.18" type="line"/>
      <point x="90.12000000000002" y="348.09999999999997" type="line"/>
      <point x="222.28" y="348.09999999999997" type="line" smooth="yes"/>
      <point x="294.75999999999993" y="348.09999999999997"/>
      <point x="323.03999999999996" y="311.46000000000004"/>
      <point x="323.03999999999996" y="244.5" type="curve" smooth="yes"/>
      <point x="323.03999999999996" y="166.36"/>
      <point x="276.2" y="40.6"/>
      <point x="154.21999999999997" y="40.6" type="curve" smooth="yes"/>
      <point x="95.30000000000001" y="40.6"/>
      <point x="56.88" y="62.36"/>
      <point x="28.84" y="87.60000000000001" type="curve"/>
    </contour>
  </outline>
</glyph>
<glyph name="six" format="2">
  <advance width="435.0"/>
  <unicode hex="0036"/>
  <note>
14
</note>
  <outline>
    <contour>
      <point x="200.3" y="-10.0" type="curve" smooth="yes"/>
      <point x="316.3" y="-10.0"/>
      <point x="397.5" y="98.10000000000001"/>
      <point x="397.5" y="259.9" type="curve" smooth="yes"/>
      <point x="397.5" y="366.20000000000005"/>
      <point x="343.9" y="417.4"/>
      <point x="255.1" y="417.4" type="curve" smooth="yes"/>
      <point x="194.7" y="417.4"/>
      <point x="128.9" y="386.9"/>
      <point x="85.80000000000001" y="319.8" type="curve"/>
      <point x="80.30000000000001" y="252.2" type="line"/>
      <point x="116.3" y="324.1"/>
      <point x="177.7" y="370.8"/>
      <point x="241.6" y="370.8" type="curve" smooth="yes"/>
      <point x="312.5" y="370.8"/>
      <point x="345.2" y="329.09999999999997"/>
      <point x="345.2" y="250.00000000000003" type="curve" smooth="yes"/>
      <point x="345.2" y="131.4"/>
      <point x="285.3" y="37.9"/>
      <point x="203.20000000000002" y="37.9" type="curve" smooth="yes"/>
      <point x="126.3" y="37.9"/>
      <point x="84.9" y="89.3"/>
      <point x="84.9" y="190.5" type="curve" smooth="yes"/>
      <point x="84.9" y="325.9"/>
      <point x="115.10000000000001" y="452.09999999999997"/>
      <point x="166.0" y="543.7" type="curve" smooth="yes"/>
      <point x="206.10000000000002" y="616.1999999999999"/>
      <point x="260.0" y="660.0"/>
      <point x="328.0" y="660.0" type="curve" smooth="yes"/>
      <point x="363.8" y="660.0"/>
      <point x="396.1" y="650.6"/>
      <point x="427.2" y="632.7" type="curve"/>
      <point x="450.0" y="676.7" type="line"/>
      <point x="417.0" y="697.6999999999999"/>
      <point x="376.0" y="710.0"/>
      <point x="325.9" y="710.0" type="curve" smooth="yes"/>
      <point x="146.3" y="710.0"/>
      <point x="33.7" y="478.9"/>
      <point x="33.7" y="190.0" type="curve" smooth="yes"/>
      <point x="33.7" y="55.2"/>
      <point x="92.0" y="-10.0"/>
    </contour>
  </outline>
</glyph>
<glyph name="seven" format="2">
  <advance width="434.64"/>
  <unicode hex="0037"/>
  <note>
9
</note>
  <outline>
    <contour>
      <point x="95.72" y="0.0" type="curve"/>
      <point x="151.28" y="0.0" type="line"/>
      <point x="171.44" y="120.11999999999999"/>
      <point x="207.27999999999997" y="222.87999999999997"/>
      <point x="307.04" y="412.44" type="curve" smooth="yes"/>
      <point x="436.56000000000006" y="658.8" type="line"/>
      <point x="443.32000000000005" y="700.0" type="line"/>
      <point x="99.76" y="700.0" type="line"/>
      <point x="91.72" y="648.32" type="line"/>
      <point x="375.88000000000005" y="648.32" type="line"/>
      <point x="258.08000000000004" y="430.20000000000005" type="line" smooth="yes"/>
      <point x="163.75999999999996" y="255.88"/>
      <point x="118.6" y="144.20000000000002"/>
    </contour>
  </outline>
</glyph>
<glyph name="eight" format="2">
  <advance width="435.0"/>
  <unicode hex="0038"/>
  <outline>
    <contour>
      <point x="187.8" y="-10.0" type="curve" smooth="yes"/>
      <point x="313.4" y="-10.0"/>
      <point x="391.7" y="70.89999999999999"/>
      <point x="391.7" y="196.2" type="curve" smooth="yes"/>
      <point x="391.7" y="393.9"/>
      <point x="137.6" y="367.0"/>
      <point x="137.6" y="532.4000000000001" type="curve" smooth="yes"/>
      <point x="137.6" y="610.3000000000001"/>
      <point x="190.1" y="662.1999999999999"/>
      <point x="270.8" y="662.1999999999999" type="curve" smooth="yes"/>
      <point x="345.8" y="662.1999999999999"/>
      <point x="377.7" y="621.8"/>
      <point x="377.7" y="562.0999999999999" type="curve" smooth="yes"/>
      <point x="377.7" y="476.5"/>
      <point x="335.1" y="417.4"/>
      <point x="259.09999999999997" y="373.40000000000003" type="curve"/>
      <point x="292.3" y="349.6" type="line"/>
      <point x="375.5" y="397.40000000000003"/>
      <point x="428.3" y="468.4"/>
      <point x="428.3" y="570.3000000000001" type="curve" smooth="yes"/>
      <point x="428.3" y="650.8"/>
      <point x="382.09999999999997" y="710.0"/>
      <point x="272.90000000000003" y="710.0" type="curve" smooth="yes"/>
      <point x="158.29999999999998" y="710.0"/>
      <point x="85.39999999999999" y="637.4000000000001"/>
      <point x="85.39999999999999" y="523.9" type="curve" smooth="yes"/>
      <point x="85.39999999999999" y="330.4"/>
      <point x="338.29999999999995" y="364.7"/>
      <point x="338.29999999999995" y="188.5" type="curve" smooth="yes"/>
      <point x="338.29999999999995" y="96.8"/>
      <point x="281.5" y="36.2"/>
      <point x="191.6" y="36.2" type="curve" smooth="yes"/>
      <point x="106.39999999999999" y="36.2"/>
      <point x="62.5" y="80.3"/>
      <point x="62.5" y="152.7" type="curve" smooth="yes"/>
      <point x="62.5" y="246.4"/>
      <point x="114.6" y="322.4"/>
      <point x="201.8" y="361.29999999999995" type="curve"/>
      <point x="166.79999999999998" y="388.2" type="line"/>
      <point x="68.8" y="343.0"/>
      <point x="8.8" y="253.0"/>
      <point x="8.8" y="143.9" type="curve" smooth="yes"/>
      <point x="8.8" y="50.1"/>
      <point x="65.89999999999999" y="-10.0"/>
    </contour>
  </outline>
</glyph>
<glyph name="nine" format="2">
  <advance width="435.0"/>
  <unicode hex="0039"/>
  <outline>
    <contour>
      <point x="258.5" y="710.0" type="curve" smooth="yes"/>
      <point x="142.5" y="710.0"/>
      <point x="61.1" y="601.9"/>
      <point x="61.1" y="440.1" type="curve" smooth="yes"/>
      <point x="61.1" y="333.79999999999995"/>
      <point x="114.1" y="282.79999999999995"/>
      <point x="202.70000000000002" y="282.79999999999995" type="curve" smooth="yes"/>
      <point x="263.29999999999995" y="282.79999999999995"/>
      <point x="329.90000000000003" y="312.5"/>
      <point x="372.79999999999995" y="382.2" type="curve"/>
      <point x="378.29999999999995" y="448.0" type="line"/>
      <point x="342.5" y="376.1"/>
      <point x="280.9" y="329.40000000000003"/>
      <point x="217.0" y="329.40000000000003" type="curve" smooth="yes"/>
      <point x="146.29999999999998" y="329.40000000000003"/>
      <point x="113.6" y="370.90000000000003"/>
      <point x="113.6" y="450.0" type="curve" smooth="yes"/>
      <point x="113.6" y="568.8"/>
      <point x="173.5" y="662.1"/>
      <point x="255.4" y="662.1" type="curve" smooth="yes"/>
      <point x="332.1" y="662.1"/>
      <point x="373.7" y="610.7"/>
      <point x="373.7" y="509.70000000000005" type="curve" smooth="yes"/>
      <point x="373.7" y="376.1"/>
      <point x="344.3" y="247.5"/>
      <point x="293.2" y="155.7" type="curve" smooth="yes"/>
      <point x="253.3" y="83.19999999999999"/>
      <point x="199.6" y="39.400000000000006"/>
      <point x="133.5" y="39.400000000000006" type="curve" smooth="yes"/>
      <point x="97.9" y="39.400000000000006"/>
      <point x="63.0" y="49.10000000000001"/>
      <point x="31.4" y="71.5" type="curve"/>
      <point x="8.600000000000001" y="27.299999999999997" type="line"/>
      <point x="42.300000000000004" y="2.0"/>
      <point x="85.3" y="-10.0"/>
      <point x="135.8" y="-10.0" type="curve" smooth="yes"/>
      <point x="311.09999999999997" y="-10.0"/>
      <point x="424.90000000000003" y="221.10000000000002"/>
      <point x="424.90000000000003" y="510.19999999999993" type="curve" smooth="yes"/>
      <point x="424.90000000000003" y="645.0"/>
      <point x="366.6" y="710.0"/>
    </contour>
  </outline>
</glyph>
<glyph name="less" format="2">
  <advance width="391.11999999999995"/>
  <unicode hex="003C"/>
  <outline>
    <contour>
      <point x="319.96000000000004" y="86.11999999999999" type="line"/>
      <point x="327.23999999999995" y="134.8" type="line"/>
      <point x="89.99999999999999" y="293.84000000000003" type="line"/>
      <point x="378.15999999999997" y="453.64" type="line"/>
      <point x="385.44" y="503.68" type="line"/>
      <point x="49.16" y="321.68" type="line"/>
      <point x="40.720000000000006" y="269.04" type="line"/>
    </contour>
  </outline>
</glyph>
<glyph name="equal" format="2">
  <advance width="385.08"/>
  <unicode hex="003D"/>
  <outline>
    <contour>
      <point x="330.6" y="214.36" type="line"/>
      <point x="35.4" y="214.36" type="line"/>
      <point x="27.96" y="164.88000000000002" type="line"/>
      <point x="323.16" y="164.88000000000002" type="line"/>
    </contour>
    <contour>
      <point x="362.8" y="425.40000000000003" type="line"/>
      <point x="67.72" y="425.40000000000003" type="line"/>
      <point x="60.160000000000004" y="375.92" type="line"/>
      <point x="355.36" y="375.92" type="line"/>
    </contour>
  </outline>
</glyph>
<glyph name="greater" format="2">
  <advance width="391.11999999999995"/>
  <unicode hex="003E"/>
  <outline>
    <contour>
      <point x="348.8" y="267.12" type="line"/>
      <point x="357.16" y="319.16" type="line"/>
      <point x="77.52000000000001" y="502.0" type="line"/>
      <point x="70.16000000000001" y="453.79999999999995" type="line"/>
      <point x="308.23999999999995" y="294.47999999999996" type="line"/>
      <point x="19.96" y="135.6" type="line"/>
      <point x="12.0" y="84.84" type="line"/>
    </contour>
  </outline>
</glyph>
<glyph name="question" format="2">
  <advance width="328.59999999999997"/>
  <unicode hex="003F"/>
  <outline>
    <contour>
      <point x="122.0" y="262.71999999999997" type="line"/>
      <point x="168.28000000000003" y="262.71999999999997" type="line"/>
      <point x="180.04" y="336.44" type="line"/>
      <point x="285.71999999999997" y="409.28"/>
      <point x="356.52" y="473.48"/>
      <point x="356.52" y="612.12" type="curve" smooth="yes"/>
      <point x="356.52" y="706.0"/>
      <point x="299.44" y="750.0"/>
      <point x="228.8" y="750.0" type="curve" smooth="yes"/>
      <point x="177.76" y="750.0"/>
      <point x="121.0" y="727.68"/>
      <point x="75.35999999999999" y="690.8000000000001" type="curve"/>
      <point x="89.0" y="646.32" type="line"/>
      <point x="132.36" y="679.4799999999999"/>
      <point x="175.36" y="696.3199999999999"/>
      <point x="215.48000000000002" y="696.3199999999999" type="curve" smooth="yes"/>
      <point x="263.24" y="696.3199999999999"/>
      <point x="301.20000000000005" y="667.2399999999999"/>
      <point x="301.20000000000005" y="599.44" type="curve" smooth="yes"/>
      <point x="301.20000000000005" y="499.16"/>
      <point x="255.76000000000005" y="434.12"/>
      <point x="137.04" y="362.71999999999997" type="curve"/>
    </contour>
    <contour>
      <point x="78.04" y="21.28" type="curve" smooth="yes"/>
      <point x="77.6" y="4.44"/>
      <point x="83.72" y="-2.0"/>
      <point x="103.88000000000001" y="-2.0" type="curve" smooth="yes"/>
      <point x="134.52" y="-2.0"/>
      <point x="142.84000000000003" y="14.799999999999999"/>
      <point x="144.16000000000003" y="48.040000000000006" type="curve" smooth="yes"/>
      <point x="144.6" y="65.8"/>
      <point x="137.16" y="71.76"/>
      <point x="117.88" y="71.76" type="curve" smooth="yes"/>
      <point x="88.36" y="71.76"/>
      <point x="79.36" y="54.84"/>
    </contour>
  </outline>
</glyph>
<glyph name="at" format="2">
  <advance width="580.0"/>
  <unicode hex="0040"/>
  <outline>
    <contour>
      <point x="225.5" y="-122.7" type="curve" smooth="yes"/>
      <point x="285.0" y="-122.7"/>
      <point x="343.59999999999997" y="-99.6"/>
      <point x="386.5" y="-55.1" type="curve"/>
      <point x="372.9" y="-33.9" type="line"/>
      <point x="333.0" y="-72.6"/>
      <point x="283.0" y="-92.8"/>
      <point x="228.0" y="-92.8" type="curve" smooth="yes"/>
      <point x="117.4" y="-92.8"/>
      <point x="50.300000000000004" y="-18.599999999999998"/>
      <point x="50.300000000000004" y="128.29999999999998" type="curve" smooth="yes"/>
      <point x="50.300000000000004" y="419.8"/>
      <point x="187.1" y="685.6"/>
      <point x="373.9" y="685.6" type="curve" smooth="yes"/>
      <point x="482.40000000000003" y="685.6"/>
      <point x="546.4" y="630.4000000000001"/>
      <point x="546.4" y="492.29999999999995" type="curve" smooth="yes"/>
      <point x="546.4" y="318.0"/>
      <point x="480.0" y="99.19999999999999"/>
      <point x="412.3" y="99.19999999999999" type="curve" smooth="yes"/>
      <point x="372.3" y="99.19999999999999"/>
      <point x="378.4" y="163.6"/>
      <point x="388.7" y="210.4" type="curve" smooth="yes"/>
      <point x="458.4" y="520.5" type="line"/>
      <point x="420.6" y="536.0"/>
      <point x="388.4" y="543.1"/>
      <point x="353.59999999999997" y="543.1" type="curve" smooth="yes"/>
      <point x="235.29999999999998" y="543.1"/>
      <point x="141.7" y="329.09999999999997"/>
      <point x="141.7" y="160.4" type="curve" smooth="yes"/>
      <point x="141.7" y="96.2"/>
      <point x="171.0" y="64.6"/>
      <point x="220.3" y="64.6" type="curve" smooth="yes"/>
      <point x="266.2" y="64.6"/>
      <point x="312.4" y="97.0"/>
      <point x="343.2" y="157.7" type="curve"/>
      <point x="344.4" y="117.7"/>
      <point x="349.6" y="63.1"/>
      <point x="405.6" y="63.1" type="curve" smooth="yes"/>
      <point x="503.2" y="63.1"/>
      <point x="578.3000000000001" y="306.59999999999997"/>
      <point x="578.3000000000001" y="498.59999999999997" type="curve" smooth="yes"/>
      <point x="578.3000000000001" y="644.1"/>
      <point x="500.90000000000003" y="716.4"/>
      <point x="378.2" y="716.4" type="curve" smooth="yes"/>
      <point x="168.70000000000002" y="716.4"/>
      <point x="18.3" y="443.1"/>
      <point x="18.3" y="119.60000000000001" type="curve" smooth="yes"/>
      <point x="18.3" y="-36.0"/>
      <point x="93.69999999999999" y="-122.7"/>
    </contour>
    <contour>
      <point x="240.6" y="111.2" type="curve" smooth="yes"/>
      <point x="208.89999999999998" y="111.2"/>
      <point x="192.2" y="132.89999999999998"/>
      <point x="192.2" y="174.9" type="curve" smooth="yes"/>
      <point x="192.2" y="315.0"/>
      <point x="276.4" y="503.40000000000003"/>
      <point x="348.3" y="503.40000000000003" type="curve" smooth="yes"/>
      <point x="368.0" y="503.40000000000003"/>
      <point x="386.8" y="500.09999999999997"/>
      <point x="406.8" y="492.40000000000003" type="curve"/>
      <point x="348.3" y="235.79999999999998" type="line" smooth="yes"/>
      <point x="325.1" y="158.39999999999998"/>
      <point x="279.40000000000003" y="111.2"/>
    </contour>
  </outline>
</glyph>
<glyph name="A" format="2">
  <advance width="426.09999999999997"/>
  <unicode hex="0041"/>
  <anchor x="167.6" y="0.0" name="bottom"/>
  <anchor x="366.5" y="0.0" name="ogonek"/>
  <anchor x="276.7" y="700.0" name="top"/>
  <outline>
    <contour>
      <point x="-28.400000000000002" y="0.0" type="line"/>
      <point x="28.100000000000005" y="0.0" type="line"/>
      <point x="104.5" y="196.1" type="line"/>
      <point x="295.40000000000003" y="196.1" type="line"/>
      <point x="310.09999999999997" y="0.0" type="line"/>
      <point x="366.5" y="0.0" type="line"/>
      <point x="311.9" y="708.4" type="line"/>
      <point x="244.9" y="708.4" type="line"/>
    </contour>
    <contour>
      <point x="120.6" y="244.6" type="line"/>
      <point x="267.70000000000005" y="637.1" type="line"/>
      <point x="294.9" y="244.6" type="line"/>
    </contour>
  </outline>
</glyph>
<glyph name="B" format="2">
  <advance width="428.19999999999993"/>
  <unicode hex="0042"/>
  <outline>
    <contour>
      <point x="12.040000000000001" y="-2.0399999999999996" type="line"/>
      <point x="76.36000000000001" y="-7.800000000000001"/>
      <point x="110.88" y="-10.0"/>
      <point x="160.72000000000003" y="-10.0" type="curve" smooth="yes"/>
      <point x="304.76" y="-10.0"/>
      <point x="390.76000000000005" y="105.40000000000002"/>
      <point x="390.76000000000005" y="236.72" type="curve" smooth="yes"/>
      <point x="390.76000000000005" y="308.2"/>
      <point x="355.36" y="351.76000000000005"/>
      <point x="304.08000000000004" y="365.08" type="curve"/>
      <point x="379.96000000000004" y="395.15999999999997"/>
      <point x="421.9600000000001" y="498.56"/>
      <point x="421.9600000000001" y="583.4" type="curve" smooth="yes"/>
      <point x="421.9600000000001" y="668.84"/>
      <point x="373.64" y="710.0"/>
      <point x="265.88000000000005" y="710.0" type="curve" smooth="yes"/>
      <point x="232.4" y="710.0"/>
      <point x="189.76" y="707.4399999999999"/>
      <point x="123.04" y="700.7600000000001" type="curve"/>
    </contour>
    <contour>
      <point x="125.64000000000001" y="378.76" type="line"/>
      <point x="169.35999999999999" y="657.0799999999999" type="line"/>
      <point x="202.2" y="660.56"/>
      <point x="231.15999999999997" y="662.88"/>
      <point x="261.44" y="662.88" type="curve" smooth="yes"/>
      <point x="334.36" y="662.88"/>
      <point x="369.7200000000001" y="637.6800000000001"/>
      <point x="369.7200000000001" y="568.0" type="curve" smooth="yes"/>
      <point x="369.7200000000001" y="480.59999999999997"/>
      <point x="311.59999999999997" y="378.76"/>
      <point x="237.32" y="378.76" type="curve" smooth="yes"/>
    </contour>
    <contour>
      <point x="118.32000000000001" y="333.4" type="line"/>
      <point x="240.64" y="333.4" type="line" smooth="yes"/>
      <point x="289.84000000000003" y="333.4"/>
      <point x="337.28000000000003" y="301.28000000000003"/>
      <point x="337.28000000000003" y="230.44" type="curve" smooth="yes"/>
      <point x="337.28000000000003" y="123.71999999999998"/>
      <point x="273.03999999999996" y="37.63999999999999"/>
      <point x="166.88000000000002" y="37.63999999999999" type="curve" smooth="yes"/>
      <point x="133.2" y="37.63999999999999"/>
      <point x="108.6" y="39.64"/>
      <point x="72.12" y="42.559999999999995" type="curve"/>
    </contour>
  </outline>
</glyph>
<glyph name="C" format="2">
  <advance width="406.75999999999993"/>
  <unicode hex="0043"/>
  <anchor x="222.86" y="0.0" name="bottom"/>
  <anchor x="320.62" y="700.0" name="top"/>
  <outline>
    <contour>
      <point x="233.88000000000002" y="-10.0" type="curve" smooth="yes"/>
      <point x="280.78000000000003" y="-10.0"/>
      <point x="319.53999999999996" y="-4.319999999999999"/>
      <point x="351.4599999999999" y="6.96" type="curve"/>
      <point x="345.84" y="53.36" type="line"/>
      <point x="317.14000000000004" y="44.6"/>
      <point x="282.26000000000005" y="39.49999999999999"/>
      <point x="243.42000000000004" y="39.49999999999999" type="curve" smooth="yes"/>
      <point x="143.60000000000002" y="39.49999999999999"/>
      <point x="90.8" y="90.52000000000002"/>
      <point x="90.8" y="209.35999999999999" type="curve" smooth="yes"/>
      <point x="90.8" y="463.1"/>
      <point x="183.00000000000003" y="660.5000000000001"/>
      <point x="321.32" y="660.5000000000001" type="curve" smooth="yes"/>
      <point x="358.26000000000005" y="660.5000000000001"/>
      <point x="390.49999999999994" y="655.1"/>
      <point x="427.7" y="643.9799999999999" type="curve"/>
      <point x="443.67999999999995" y="689.58" type="line"/>
      <point x="406.3" y="703.9999999999999"/>
      <point x="366.64000000000004" y="710.0"/>
      <point x="321.24" y="710.0" type="curve" smooth="yes"/>
      <point x="148.39999999999998" y="710.0"/>
      <point x="36.400000000000006" y="502.2"/>
      <point x="36.400000000000006" y="202.58" type="curve" smooth="yes"/>
      <point x="36.400000000000006" y="56.74"/>
      <point x="102.96000000000002" y="-10.0"/>
    </contour>
  </outline>
</glyph>
<glyph name="D" format="2">
  <advance width="463.17999999999995"/>
  <unicode hex="0044"/>
  <anchor x="172.78000000000003" y="0.0" name="bottom"/>
  <anchor x="237.42790000000002" y="350.0" name="center"/>
  <anchor x="268.98" y="700.0" name="top"/>
  <outline>
    <contour>
      <point x="147.73999999999998" y="-10.0" type="curve" smooth="yes"/>
      <point x="327.91999999999996" y="-10.0"/>
      <point x="446.4200000000001" y="179.64"/>
      <point x="446.4200000000001" y="455.62" type="curve" smooth="yes"/>
      <point x="446.4200000000001" y="639.66"/>
      <point x="368.52" y="710.0"/>
      <point x="242.16" y="710.0" type="curve" smooth="yes"/>
      <point x="201.79999999999998" y="710.0"/>
      <point x="166.57999999999998" y="708.1600000000001"/>
      <point x="122.98000000000002" y="704.0600000000001" type="curve"/>
      <point x="11.299999999999999" y="-2.9799999999999995" type="line"/>
      <point x="56.84" y="-7.999999999999998"/>
      <point x="92.78" y="-10.0"/>
    </contour>
    <contour>
      <point x="152.65999999999997" y="35.84" type="curve" smooth="yes"/>
      <point x="121.46000000000001" y="35.84"/>
      <point x="99.46000000000002" y="37.16000000000001"/>
      <point x="71.02000000000001" y="39.660000000000004" type="curve"/>
      <point x="169.36" y="658.4999999999999" type="line"/>
      <point x="189.29999999999998" y="660.3000000000001"/>
      <point x="217.46" y="661.4"/>
      <point x="243.66000000000003" y="661.4" type="curve" smooth="yes"/>
      <point x="330.42" y="661.4"/>
      <point x="392.80000000000007" y="609.04"/>
      <point x="392.80000000000007" y="453.82000000000005" type="curve" smooth="yes"/>
      <point x="392.80000000000007" y="214.26000000000002"/>
      <point x="289.98" y="35.84"/>
    </contour>
  </outline>
</glyph>
<glyph name="E" format="2">
  <advance width="382.22"/>
  <unicode hex="0045"/>
  <anchor x="167.56000000000003" y="0.0" name="bottom"/>
  <anchor x="318.36" y="0.0" name="ogonek"/>
  <anchor x="271.40000000000003" y="700.0" name="top"/>
  <anchor x="90.4713" y="700.0" name="topleft"/>
  <outline>
    <contour>
      <point x="11.879999999999999" y="0.0" type="line"/>
      <point x="318.36" y="0.0" type="line"/>
      <point x="326.35999999999996" y="49.699999999999996" type="line"/>
      <point x="72.67999999999999" y="49.699999999999996" type="line"/>
      <point x="118.26000000000002" y="338.79999999999995" type="line"/>
      <point x="340.86000000000007" y="338.79999999999995" type="line"/>
      <point x="349.06" y="387.5" type="line"/>
      <point x="126.04" y="387.5" type="line"/>
      <point x="167.39999999999998" y="649.8000000000002" type="line"/>
      <point x="408.32" y="649.8000000000002" type="line"/>
      <point x="417.09999999999997" y="700.0" type="line"/>
      <point x="122.2" y="700.0" type="line"/>
    </contour>
  </outline>
</glyph>
<glyph name="F" format="2">
  <advance width="361.80000000000007"/>
  <unicode hex="0046"/>
  <outline>
    <contour>
      <point x="11.88" y="0.0" type="line"/>
      <point x="64.32000000000001" y="0.0" type="line"/>
      <point x="114.76" y="314.1600000000001" type="line"/>
      <point x="317.40000000000003" y="314.1600000000001" type="line"/>
      <point x="325.24" y="364.68" type="line"/>
      <point x="122.52" y="364.68" type="line"/>
      <point x="167.35999999999999" y="649.48" type="line"/>
      <point x="408.11999999999995" y="649.48" type="line"/>
      <point x="416.40000000000003" y="700.0" type="line"/>
      <point x="122.4" y="700.0" type="line"/>
    </contour>
  </outline>
</glyph>
<glyph name="G" format="2">
  <advance width="430.8"/>
  <unicode hex="0047"/>
  <anchor x="213.79999999999998" y="0.0" name="bottom"/>
  <anchor x="319.15999999999997" y="700.0" name="top"/>
  <outline>
    <contour>
      <point x="224.96" y="-10.0" type="curve" smooth="yes"/>
      <point x="273.52" y="-10.0"/>
      <point x="319.04" y="-0.4399999999999995"/>
      <point x="348.76" y="13.520000000000001" type="curve"/>
      <point x="402.11999999999995" y="349.92" type="line"/>
      <point x="237.44" y="349.92" type="line"/>
      <point x="230.32" y="304.8" type="line"/>
      <point x="346.44" y="304.8" type="line"/>
      <point x="305.71999999999997" y="49.2" type="line"/>
      <point x="287.2" y="41.760000000000005"/>
      <point x="259.32000000000005" y="37.080000000000005"/>
      <point x="228.96" y="37.080000000000005" type="curve" smooth="yes"/>
      <point x="142.20000000000002" y="37.080000000000005"/>
      <point x="88.27999999999999" y="86.47999999999999"/>
      <point x="88.27999999999999" y="205.44" type="curve" smooth="yes"/>
      <point x="88.27999999999999" y="459.84"/>
      <point x="182.12" y="660.8"/>
      <point x="320.52" y="660.8" type="curve" smooth="yes"/>
      <point x="359.4" y="660.8"/>
      <point x="390.64" y="654.36"/>
      <point x="427.84000000000003" y="643.4" type="curve"/>
      <point x="444.76" y="689.64" type="line"/>
      <point x="410.36" y="702.4"/>
      <point x="366.96000000000004" y="710.0"/>
      <point x="321.68" y="710.0" type="curve" smooth="yes"/>
      <point x="141.44" y="710.0"/>
      <point x="35.72" y="487.47999999999996"/>
      <point x="35.72" y="201.60000000000002" type="curve" smooth="yes"/>
      <point x="35.72" y="56.6"/>
      <point x="106.52" y="-10.0"/>
    </contour>
  </outline>
</glyph>
<glyph name="H" format="2">
  <advance width="474.08000000000004"/>
  <unicode hex="0048"/>
  <anchor x="193.59984" y="0.0" name="bottom"/>
  <anchor x="249.39644" y="350.0" name="center"/>
  <anchor x="304.55268" y="700.0" name="top"/>
  <anchor x="85.83268" y="700.0" name="topleft"/>
  <outline>
    <contour>
      <point x="11.840000000000002" y="0.0" type="line"/>
      <point x="65.60000000000001" y="0.0" type="line"/>
      <point x="109.83999999999999" y="280.28" type="line"/>
      <point x="366.28" y="280.28" type="line"/>
      <point x="322.12000000000006" y="0.0" type="line"/>
      <point x="374.72" y="0.0" type="line"/>
      <point x="485.88" y="700.0" type="line"/>
      <point x="433.16" y="700.0" type="line"/>
      <point x="374.16" y="329.52000000000004" type="line"/>
      <point x="117.08" y="329.52000000000004" type="line"/>
      <point x="176.12" y="700.0" type="line"/>
      <point x="122.36" y="700.0" type="line"/>
    </contour>
  </outline>
</glyph>
<glyph name="I" format="2">
  <advance width="164.32000000000002"/>
  <unicode hex="0049"/>
  <anchor x="38.38208" y="0.0" name="bottom"/>
  <anchor x="65.44448" y="1.5999999999999999" name="ogonek"/>
  <anchor x="149.34016" y="700.0" name="top"/>
  <anchor x="90.57008" y="700.0" name="topleft"/>
  <outline>
    <contour>
      <point x="11.840000000000002" y="0.0" type="line"/>
      <point x="64.96000000000001" y="0.0" type="line"/>
      <point x="176.12" y="700.0" type="line"/>
      <point x="122.36" y="700.0" type="line"/>
    </contour>
  </outline>
</glyph>
<glyph name="J" format="2">
  <advance width="322.52"/>
  <unicode hex="004A"/>
  <anchor x="85.83104" y="0.0" name="bottom"/>
  <anchor x="224.68" y="700.0" name="top"/>
  <outline>
    <contour>
      <point x="-32.720000000000006" y="10.0" type="line"/>
      <point x="-2.599999999999998" y="-0.9999999999999991"/>
      <point x="30.320000000000004" y="-10.0"/>
      <point x="76.56" y="-10.0" type="curve" smooth="yes"/>
      <point x="183.48" y="-10.0"/>
      <point x="236.88" y="51.879999999999995"/>
      <point x="253.72" y="156.56" type="curve" smooth="yes"/>
      <point x="340.08" y="700.0" type="line"/>
      <point x="102.08" y="700.0" type="line"/>
      <point x="94.28" y="651.4799999999999" type="line"/>
      <point x="279.15999999999997" y="651.4799999999999" type="line"/>
      <point x="201.88" y="167.64" type="line" smooth="yes"/>
      <point x="187.24" y="76.04"/>
      <point x="140.2" y="42.32000000000001"/>
      <point x="71.44" y="42.32000000000001" type="curve" smooth="yes"/>
      <point x="35.400000000000006" y="42.32000000000001"/>
      <point x="7.480000000000001" y="50.48"/>
      <point x="-18.239999999999995" y="59.16" type="curve"/>
    </contour>
  </outline>
</glyph>
<glyph name="K" format="2">
  <advance width="420.78000000000003"/>
  <unicode hex="004B"/>
  <anchor x="182.29999999999998" y="0.0" name="bottom"/>
  <anchor x="273.1" y="700.0" name="top"/>
  <outline>
    <contour>
      <point x="11.42" y="0.0" type="line"/>
      <point x="65.16000000000001" y="0.0" type="line"/>
      <point x="175.82" y="700.0" type="line"/>
      <point x="122.48" y="700.0" type="line"/>
    </contour>
    <contour>
      <point x="354.88" y="-9.32" type="curve" smooth="yes"/>
      <point x="362.26" y="-9.32"/>
      <point x="373.2" y="-7.46"/>
      <point x="379.26000000000005" y="-4.5600000000000005" type="curve"/>
      <point x="381.86" y="51.52" type="line"/>
      <point x="378.71999999999997" y="51.34"/>
      <point x="375.16" y="50.34"/>
      <point x="370.92" y="50.34" type="curve" smooth="yes"/>
      <point x="346.88" y="50.34"/>
      <point x="328.5" y="62.92"/>
      <point x="292.72" y="128.28" type="curve" smooth="yes"/>
      <point x="122.62" y="439.86" type="line"/>
      <point x="109.26" y="358.22" type="line"/>
      <point x="260.46" y="81.12" type="line" smooth="yes"/>
      <point x="298.88" y="7.3999999999999995"/>
      <point x="319.03999999999996" y="-9.32"/>
    </contour>
    <contour>
      <point x="182.98" y="295.28" type="line"/>
      <point x="263.98" y="368.12"/>
      <point x="390.46000000000004" y="510.5"/>
      <point x="461.88" y="690.44" type="curve"/>
      <point x="419.44" y="708.8" type="line"/>
      <point x="343.91999999999996" y="532.94"/>
      <point x="231.04" y="402.86"/>
      <point x="160.95999999999998" y="339.12" type="curve"/>
    </contour>
  </outline>
</glyph>
<glyph name="L" format="2">
  <advance width="343.36"/>
  <unicode hex="004C"/>
  <anchor x="152.96" y="0.0" name="bottom"/>
  <anchor x="176.35644" y="350.0" name="center"/>
  <anchor x="148.52" y="700.0" name="top"/>
  <anchor x="295.24000000000007" y="700.0" name="topright"/>
  <outline>
    <contour>
      <point x="11.2" y="0.0" type="line"/>
      <point x="289.76000000000005" y="0.0" type="line"/>
      <point x="297.76" y="49.48" type="line"/>
      <point x="72.24" y="49.48" type="line"/>
      <point x="175.48" y="700.0" type="line"/>
      <point x="122.36" y="700.0" type="line"/>
    </contour>
  </outline>
</glyph>
<glyph name="M" format="2">
  <advance width="527.34"/>
  <unicode hex="004D"/>
  <outline>
    <contour>
      <point x="11.540000000000001" y="0.0" type="line"/>
      <point x="61.760000000000005" y="0.0" type="line"/>
      <point x="155.79999999999998" y="604.26" type="line"/>
      <point x="242.85999999999999" y="248.35999999999999" type="line"/>
      <point x="274.4" y="248.35999999999999" type="line"/>
      <point x="475.18" y="604.58" type="line"/>
      <point x="378.18" y="0.0" type="line"/>
      <point x="427.98" y="0.0" type="line"/>
      <point x="539.14" y="700.0" type="line"/>
      <point x="478.52" y="700.0" type="line"/>
      <point x="269.90000000000003" y="324.08" type="line"/>
      <point x="179.26" y="700.0" type="line"/>
      <point x="122.36" y="700.0" type="line"/>
    </contour>
  </outline>
</glyph>
<glyph name="N" format="2">
  <advance width="472.3"/>
  <unicode hex="004E"/>
  <anchor x="197.4" y="0.0" name="bottom"/>
  <anchor x="303.9" y="700.0" name="top"/>
  <outline>
    <contour>
      <point x="12.0" y="0.0" type="line"/>
      <point x="61.3" y="0.0" type="line"/>
      <point x="154.3" y="592.4" type="line"/>
      <point x="320.5" y="-1.6" type="line"/>
      <point x="372.9" y="-1.6" type="line"/>
      <point x="484.09999999999997" y="700.0" type="line"/>
      <point x="435.1" y="700.0" type="line"/>
      <point x="341.4" y="103.4" type="line"/>
      <point x="176.8" y="701.6" type="line"/>
      <point x="122.8" y="701.6" type="line"/>
    </contour>
  </outline>
</glyph>
<glyph name="O" format="2">
  <advance width="481.0"/>
  <unicode hex="004F"/>
  <note>
8
</note>
  <anchor x="199.70000000000002" y="0.0" name="bottom"/>
  <anchor x="255.5" y="350.0" name="center"/>
  <anchor x="252.60000000000002" y="0.6000000000000001" name="ogonek"/>
  <anchor x="310.09999999999997" y="700.0" name="top"/>
  <anchor x="91.2" y="700.0" name="topleft"/>
  <anchor x="395.2" y="691.9" name="topright"/>
  <outline>
    <contour>
      <point x="205.9" y="-9.4" type="curve" smooth="yes"/>
      <point x="375.5" y="-9.4"/>
      <point x="467.9" y="246.9"/>
      <point x="467.9" y="490.9" type="curve" smooth="yes"/>
      <point x="467.9" y="640.1999999999999"/>
      <point x="409.8" y="709.4"/>
      <point x="299.1" y="709.4" type="curve" smooth="yes"/>
      <point x="129.5" y="709.4"/>
      <point x="37.1" y="453.1"/>
      <point x="37.1" y="209.1" type="curve" smooth="yes"/>
      <point x="37.1" y="59.800000000000004"/>
      <point x="95.2" y="-9.4"/>
    </contour>
    <contour>
      <point x="209.7" y="40.2" type="curve" smooth="yes"/>
      <point x="133.2" y="40.2"/>
      <point x="91.1" y="90.5"/>
      <point x="91.1" y="208.2" type="curve" smooth="yes"/>
      <point x="91.1" y="416.8"/>
      <point x="170.3" y="659.8000000000001"/>
      <point x="295.5" y="659.8000000000001" type="curve" smooth="yes"/>
      <point x="371.8" y="659.8000000000001"/>
      <point x="413.9" y="609.5"/>
      <point x="413.9" y="491.79999999999995" type="curve" smooth="yes"/>
      <point x="413.9" y="283.2"/>
      <point x="334.7" y="40.2"/>
    </contour>
  </outline>
</glyph>
<glyph name="P" format="2">
  <advance width="420.0"/>
  <unicode hex="0050"/>
  <outline>
    <contour>
      <point x="12.1" y="0.0" type="line"/>
      <point x="65.1" y="0.0" type="line"/>
      <point x="106.7" y="260.59999999999997" type="line"/>
      <point x="139.1" y="258.6"/>
      <point x="158.89999999999998" y="258.2"/>
      <point x="205.79999999999998" y="258.2" type="curve" smooth="yes"/>
      <point x="350.7" y="258.2"/>
      <point x="432.59999999999997" y="369.5"/>
      <point x="433.0" y="548.0" type="curve" smooth="yes"/>
      <point x="433.0" y="659.6"/>
      <point x="380.09999999999997" y="710.0"/>
      <point x="255.9" y="710.0" type="curve" smooth="yes"/>
      <point x="227.20000000000002" y="710.0"/>
      <point x="188.2" y="707.8"/>
      <point x="123.3" y="702.7" type="curve"/>
    </contour>
    <contour>
      <point x="169.4" y="657.2" type="line"/>
      <point x="205.7" y="660.4"/>
      <point x="227.1" y="661.8"/>
      <point x="250.89999999999998" y="661.8" type="curve" smooth="yes"/>
      <point x="343.5" y="661.8"/>
      <point x="380.0" y="627.1"/>
      <point x="380.0" y="538.6" type="curve" smooth="yes"/>
      <point x="380.0" y="403.8"/>
      <point x="319.4" y="306.5"/>
      <point x="204.9" y="306.5" type="curve" smooth="yes"/>
      <point x="175.3" y="306.5"/>
      <point x="149.9" y="307.8"/>
      <point x="114.30000000000001" y="309.4" type="curve"/>
    </contour>
  </outline>
</glyph>
<glyph name="Q" format="2">
  <advance width="482.08"/>
  <unicode hex="0051"/>
  <note>
14
</note>
  <outline>
    <contour>
      <point x="331.88000000000005" y="-184.64" type="curve" smooth="yes"/>
      <point x="354.96" y="-184.64"/>
      <point x="378.0" y="-180.84"/>
      <point x="399.36" y="-171.6" type="curve"/>
      <point x="398.72" y="-126.04" type="line"/>
      <point x="381.2" y="-133.76000000000002"/>
      <point x="361.8" y="-137.36"/>
      <point x="342.28" y="-137.36" type="curve" smooth="yes"/>
      <point x="288.32" y="-137.36"/>
      <point x="241.95999999999998" y="-104.88000000000001"/>
      <point x="235.71999999999997" y="4.24" type="curve"/>
      <point x="189.48" y="1.4400000000000002" type="line"/>
      <point x="197.48000000000002" y="-137.92000000000002"/>
      <point x="260.48" y="-184.64"/>
    </contour>
    <component base="O"/>
  </outline>
</glyph>
<glyph name="R" format="2">
  <advance width="434.2"/>
  <unicode hex="0052"/>
  <anchor x="191.6" y="0.0" name="bottom"/>
  <anchor x="260.9" y="700.0" name="top"/>
  <outline>
    <contour>
      <point x="11.799999999999999" y="0.0" type="line"/>
      <point x="65.2" y="0.0" type="line"/>
      <point x="110.5" y="285.9" type="line"/>
      <point x="141.4" y="285.1"/>
      <point x="172.70000000000002" y="284.3"/>
      <point x="217.3" y="284.1" type="curve"/>
      <point x="222.4" y="285.9" type="line"/>
      <point x="347.5" y="286.4"/>
      <point x="431.3" y="386.59999999999997"/>
      <point x="431.3" y="547.1" type="curve" smooth="yes"/>
      <point x="431.3" y="658.0"/>
      <point x="383.2" y="710.0"/>
      <point x="257.5" y="710.0" type="curve" smooth="yes"/>
      <point x="213.0" y="710.0"/>
      <point x="174.2" y="707.6"/>
      <point x="123.2" y="702.7" type="curve"/>
    </contour>
    <contour>
      <point x="368.7" y="-10.0" type="curve" smooth="yes"/>
      <point x="376.4" y="-10.0"/>
      <point x="388.0" y="-7.1"/>
      <point x="392.9" y="-4.8" type="curve"/>
      <point x="394.8" y="47.199999999999996" type="line"/>
      <point x="390.0" y="45.6"/>
      <point x="386.1" y="45.6"/>
      <point x="383.7" y="45.6" type="curve" smooth="yes"/>
      <point x="350.5" y="46.199999999999996"/>
      <point x="317.8" y="86.19999999999999"/>
      <point x="264.7" y="313.20000000000005" type="curve"/>
      <point x="214.9" y="301.0" type="line"/>
      <point x="280.5" y="32.800000000000004"/>
      <point x="313.5" y="-10.0"/>
    </contour>
    <contour>
      <point x="219.79999999999998" y="331.8" type="curve" smooth="yes"/>
      <point x="175.5" y="331.8"/>
      <point x="146.79999999999998" y="332.2"/>
      <point x="118.5" y="334.2" type="curve"/>
      <point x="169.8" y="658.6" type="line"/>
      <point x="204.6" y="661.9000000000001"/>
      <point x="222.8" y="663.2"/>
      <point x="254.89999999999998" y="663.2" type="curve" smooth="yes"/>
      <point x="348.90000000000003" y="663.2"/>
      <point x="377.09999999999997" y="626.1999999999999"/>
      <point x="377.09999999999997" y="547.1999999999999" type="curve" smooth="yes"/>
      <point x="377.09999999999997" y="415.4"/>
      <point x="315.20000000000005" y="331.8"/>
    </contour>
  </outline>
</glyph>
<glyph name="S" format="2">
  <advance width="389.8"/>
  <unicode hex="0053"/>
  <anchor x="144.9" y="0.0" name="bottom"/>
  <anchor x="270.0" y="700.0" name="top"/>
  <outline>
    <contour>
      <point x="399.1" y="685.8000000000001" type="line"/>
      <point x="360.5" y="701.4"/>
      <point x="321.3" y="710.0"/>
      <point x="274.8" y="710.0" type="curve" smooth="yes"/>
      <point x="149.1" y="710.0"/>
      <point x="74.7" y="637.3000000000001"/>
      <point x="74.7" y="520.8" type="curve" smooth="yes"/>
      <point x="74.7" y="347.0"/>
      <point x="290.40000000000003" y="319.8"/>
      <point x="290.1" y="174.6" type="curve" smooth="yes"/>
      <point x="290.1" y="95.39999999999999"/>
      <point x="237.70000000000002" y="39.6"/>
      <point x="144.5" y="39.6" type="curve" smooth="yes"/>
      <point x="93.8" y="39.6"/>
      <point x="44.400000000000006" y="49.300000000000004"/>
      <point x="2.4" y="67.1" type="curve"/>
      <point x="-17.7" y="20.299999999999997" type="line"/>
      <point x="25.599999999999998" y="0.7"/>
      <point x="82.6" y="-10.0"/>
      <point x="139.3" y="-10.0" type="curve" smooth="yes"/>
      <point x="271.4" y="-10.0"/>
      <point x="344.7" y="66.9"/>
      <point x="344.7" y="180.4" type="curve" smooth="yes"/>
      <point x="345.2" y="351.09999999999997"/>
      <point x="129.6" y="380.8"/>
      <point x="129.6" y="524.9" type="curve" smooth="yes"/>
      <point x="129.6" y="608.1999999999999"/>
      <point x="185.8" y="661.2"/>
      <point x="270.90000000000003" y="661.2" type="curve" smooth="yes"/>
      <point x="312.1" y="661.2"/>
      <point x="345.3" y="654.8000000000001"/>
      <point x="380.0" y="640.1999999999999" type="curve"/>
    </contour>
  </outline>
</glyph>
<glyph name="T" format="2">
  <advance width="363.68"/>
  <unicode hex="0054"/>
  <anchor x="137.91103999999999" y="0.0" name="bottom"/>
  <anchor x="193.80128000000002" y="350.0" name="center"/>
  <anchor x="248.94016" y="700.0" name="top"/>
  <outline>
    <contour>
      <point x="416.16" y="652.0799999999999" type="line"/>
      <point x="424.12" y="700.0" type="line"/>
      <point x="73.99999999999999" y="700.0" type="line"/>
      <point x="66.0" y="652.0799999999999" type="line"/>
      <point x="214.4" y="652.0799999999999" type="line"/>
      <point x="111.0" y="0.0" type="line"/>
      <point x="164.12000000000003" y="0.0" type="line"/>
      <point x="267.47999999999996" y="652.0799999999999" type="line"/>
    </contour>
  </outline>
</glyph>
<glyph name="U" format="2">
  <advance width="461.56000000000006"/>
  <unicode hex="0055"/>
  <anchor x="186.9688" y="0.0" name="bottom"/>
  <anchor x="232.68000000000004" y="0.0" name="ogonek"/>
  <anchor x="296.0226" y="700.0" name="top"/>
  <anchor x="474.23999999999995" y="700.0" name="topright"/>
  <outline>
    <contour>
      <point x="184.44" y="-10.0" type="curve" smooth="yes"/>
      <point x="307.32" y="-10.0"/>
      <point x="375.24" y="49.4"/>
      <point x="395.64" y="176.48000000000002" type="curve" smooth="yes"/>
      <point x="479.12" y="700.0" type="line"/>
      <point x="425.64" y="700.0" type="line"/>
      <point x="341.4" y="171.67999999999998" type="line" smooth="yes"/>
      <point x="327.64" y="83.0"/>
      <point x="279.28" y="38.36"/>
      <point x="193.96" y="38.36" type="curve" smooth="yes"/>
      <point x="112.88" y="38.36"/>
      <point x="72.4" y="82.4"/>
      <point x="84.92" y="159.36" type="curve" smooth="yes"/>
      <point x="169.72" y="700.0" type="line"/>
      <point x="116.88" y="700.0" type="line"/>
      <point x="32.28" y="162.08" type="line" smooth="yes"/>
      <point x="29.400000000000002" y="144.28"/>
      <point x="28.880000000000003" y="137.08"/>
      <point x="28.880000000000003" y="122.08000000000001" type="curve" smooth="yes"/>
      <point x="28.880000000000003" y="36.32"/>
      <point x="83.92" y="-10.0"/>
    </contour>
  </outline>
</glyph>
<glyph name="V" format="2">
  <advance width="408.34000000000003"/>
  <unicode hex="0056"/>
  <outline>
    <contour>
      <point x="188.74" y="0.0" type="line"/>
      <point x="399.2" y="459.94000000000005"/>
      <point x="444.9" y="571.6"/>
      <point x="450.40000000000003" y="666.6" type="curve" smooth="yes"/>
      <point x="450.6" y="678.24"/>
      <point x="450.0" y="688.04"/>
      <point x="447.74" y="700.0" type="curve"/>
      <point x="392.14" y="700.0" type="line"/>
      <point x="393.7" y="688.6999999999999"/>
      <point x="394.64000000000004" y="679.7399999999999"/>
      <point x="394.64000000000004" y="670.8" type="curve" smooth="yes"/>
      <point x="393.34" y="582.7"/>
      <point x="348.12000000000006" y="476.92"/>
      <point x="168.48" y="66.7" type="curve"/>
      <point x="131.3" y="701.64" type="line"/>
      <point x="73.0" y="700.4" type="line"/>
      <point x="123.44000000000001" y="0.0" type="line"/>
    </contour>
  </outline>
</glyph>
<glyph name="W" format="2">
  <advance width="636.4000000000001"/>
  <unicode hex="0057"/>
  <anchor x="270.5" y="0.0" name="bottom"/>
  <anchor x="388.9" y="700.0" name="top"/>
  <outline>
    <contour>
      <point x="440.59999999999997" y="-0.8" type="line"/>
      <point x="637.2" y="478.5"/>
      <point x="677.4000000000001" y="599.0999999999999"/>
      <point x="678.5999999999999" y="670.0" type="curve" smooth="yes"/>
      <point x="678.5999999999999" y="680.8"/>
      <point x="678.0" y="689.4"/>
      <point x="675.9" y="700.0" type="curve"/>
      <point x="621.0" y="700.0" type="line"/>
      <point x="622.6" y="690.0"/>
      <point x="624.0" y="681.9"/>
      <point x="624.0" y="671.6" type="curve" smooth="yes"/>
      <point x="622.1999999999999" y="591.5"/>
      <point x="591.6" y="501.40000000000003"/>
      <point x="421.29999999999995" y="75.8" type="curve"/>
      <point x="409.0" y="638.1999999999999" type="line"/>
      <point x="348.0" y="638.1999999999999" type="line"/>
      <point x="284.3" y="454.0"/>
      <point x="216.29999999999998" y="259.8"/>
      <point x="150.0" y="81.89999999999999" type="curve"/>
      <point x="130.8" y="700.0" type="line"/>
      <point x="74.5" y="700.0" type="line"/>
      <point x="102.80000000000001" y="-0.8" type="line"/>
      <point x="162.20000000000002" y="-0.8" type="line"/>
      <point x="233.20000000000002" y="189.0"/>
      <point x="301.4" y="372.6"/>
      <point x="365.4" y="553.0" type="curve"/>
      <point x="379.0" y="-0.8" type="line"/>
    </contour>
  </outline>
</glyph>
<glyph name="X" format="2">
  <advance width="425.6"/>
  <unicode hex="0058"/>
  <outline>
    <contour>
      <point x="329.0" y="-5.1" type="line"/>
      <point x="385.09999999999997" y="0.0" type="line"/>
      <point x="256.20000000000005" y="346.7" type="line"/>
      <point x="367.59999999999997" y="482.0"/>
      <point x="443.90000000000003" y="586.4000000000001"/>
      <point x="454.5" y="700.6" type="curve"/>
      <point x="397.9" y="701.9" type="line"/>
      <point x="388.90000000000003" y="596.2"/>
      <point x="339.0" y="524.8"/>
      <point x="236.1" y="396.0" type="curve"/>
      <point x="127.0" y="705.5" type="line"/>
      <point x="72.7" y="699.8" type="line"/>
      <point x="193.9" y="363.59999999999997" type="line"/>
      <point x="83.89999999999999" y="237.5"/>
      <point x="0.1999999999999984" y="122.6"/>
      <point x="-5.200000000000001" y="0.0" type="curve"/>
      <point x="52.099999999999994" y="0.0" type="line"/>
      <point x="57.5" y="107.69999999999999"/>
      <point x="118.2" y="203.70000000000002"/>
      <point x="214.60000000000002" y="314.3" type="curve"/>
    </contour>
  </outline>
</glyph>
<glyph name="Y" format="2">
  <advance width="389.65999999999997"/>
  <unicode hex="0059"/>
  <anchor x="149.29999999999998" y="0.0" name="bottom"/>
  <anchor x="262.29999999999995" y="700.0" name="top"/>
  <anchor x="89.42" y="700.0" name="topleft"/>
  <outline>
    <contour>
      <point x="125.14" y="0.0" type="line"/>
      <point x="177.57999999999998" y="0.0" type="line"/>
      <point x="225.38000000000002" y="291.92" type="line"/>
      <point x="334.36" y="418.32"/>
      <point x="399.91999999999996" y="528.86"/>
      <point x="434.14" y="659.56" type="curve" smooth="yes"/>
      <point x="437.48" y="673.1"/>
      <point x="441.14000000000004" y="687.3"/>
      <point x="444.21999999999997" y="701.3399999999999" type="curve"/>
      <point x="386.28" y="704.88" type="line"/>
      <point x="383.6" y="691.42"/>
      <point x="380.84" y="678.3"/>
      <point x="377.73999999999995" y="664.8399999999999" type="curve" smooth="yes"/>
      <point x="350.70000000000005" y="550.4599999999999"/>
      <point x="303.09999999999997" y="453.96"/>
      <point x="207.22" y="343.82" type="curve"/>
      <point x="129.32000000000002" y="703.96" type="line"/>
      <point x="71.58000000000001" y="699.9999999999999" type="line"/>
      <point x="171.68" y="291.92" type="line"/>
    </contour>
  </outline>
</glyph>
<glyph name="Z" format="2">
  <advance width="384.2"/>
  <unicode hex="005A"/>
  <anchor x="151.7" y="0.0" name="bottom"/>
  <anchor x="201.3" y="350.0" name="center"/>
  <anchor x="259.4" y="700.0" name="top"/>
  <outline>
    <contour>
      <point x="-26.099999999999998" y="0.0" type="line"/>
      <point x="328.70000000000005" y="0.0" type="line"/>
      <point x="336.7" y="48.400000000000006" type="line"/>
      <point x="41.5" y="48.400000000000006" type="line"/>
      <point x="416.6" y="654.1999999999999" type="line"/>
      <point x="423.6" y="700.0" type="line"/>
      <point x="104.9" y="700.0" type="line"/>
      <point x="97.1" y="651.5999999999999" type="line"/>
      <point x="356.6" y="651.5999999999999" type="line"/>
      <point x="-18.5" y="45.0" type="line"/>
    </contour>
  </outline>
</glyph>
<glyph name="bracketleft" format="2">
  <advance width="235.52"/>
  <unicode hex="005B"/>
  <outline>
    <contour>
      <point x="40.480000000000004" y="-165.6" type="line"/>
      <point x="177.64" y="695.76" type="line"/>
      <point x="291.04" y="695.76" type="line"/>
      <point x="298.44" y="740.0" type="line"/>
      <point x="139.64" y="740.0" type="line"/>
      <point x="-11.640000000000002" y="-210.0" type="line"/>
      <point x="146.32" y="-210.0" type="line"/>
      <point x="153.88000000000002" y="-165.6" type="line"/>
    </contour>
  </outline>
</glyph>
<glyph name="backslash" format="2">
  <advance width="321.04"/>
  <unicode hex="005C"/>
  <outline>
    <contour>
      <point x="122.44000000000001" y="740.0" type="line"/>
      <point x="78.16000000000001" y="740.0" type="line"/>
      <point x="233.72" y="-210.0" type="line"/>
      <point x="277.84" y="-210.0" type="line"/>
    </contour>
  </outline>
</glyph>
<glyph name="bracketright" format="2">
  <advance width="235.52"/>
  <unicode hex="005D"/>
  <outline>
    <contour>
      <point x="-57.720000000000006" y="-165.6" type="line"/>
      <point x="-65.08" y="-210.0" type="line"/>
      <point x="92.08" y="-210.0" type="line"/>
      <point x="244.2" y="740.0" type="line"/>
      <point x="86.04" y="740.0" type="line"/>
      <point x="78.48" y="695.6" type="line"/>
      <point x="191.88" y="695.6" type="line"/>
      <point x="54.56" y="-165.6" type="line"/>
    </contour>
  </outline>
</glyph>
<glyph name="asciicircum" format="2">
  <advance width="390.32"/>
  <unicode hex="005E"/>
  <outline>
    <contour>
      <point x="39.76" y="269.52" type="line"/>
      <point x="81.96000000000001" y="269.52" type="line"/>
      <point x="253.96" y="650.84" type="line"/>
      <point x="307.56" y="269.52" type="line"/>
      <point x="349.28" y="269.52" type="line"/>
      <point x="286.48" y="708.0" type="line"/>
      <point x="237.68" y="708.0" type="line"/>
    </contour>
  </outline>
</glyph>
<glyph name="underscore" format="2">
  <advance width="641.52"/>
  <unicode hex="005F"/>
  <outline>
    <contour>
      <point x="-62.92" y="-150.64" type="line"/>
      <point x="569.32" y="-150.64" type="line"/>
      <point x="577.44" y="-101.36" type="line"/>
      <point x="-54.800000000000004" y="-101.36" type="line"/>
    </contour>
  </outline>
</glyph>
<glyph name="a" format="2">
  <advance width="387.96"/>
  <unicode hex="0061"/>
  <note>
15
</note>
  <anchor x="153.29999999999998" y="0.0" name="bottom"/>
  <anchor x="353.4" y="2.4000000000000004" name="ogonek"/>
  <anchor x="243.56" y="534.0" name="top"/>
  <outline>
    <contour>
      <point x="303.08" y="-10.0" type="curve" smooth="yes"/>
      <point x="321.20000000000005" y="-10.0"/>
      <point x="339.90000000000003" y="-5.24"/>
      <point x="353.52" y="2.04" type="curve"/>
      <point x="353.5799999999999" y="44.39999999999999" type="line"/>
      <point x="343.52" y="40.32"/>
      <point x="334.85999999999996" y="38.14000000000001"/>
      <point x="325.58" y="38.14000000000001" type="curve" smooth="yes"/>
      <point x="307.46000000000004" y="38.14000000000001"/>
      <point x="299.9799999999999" y="48.18000000000001"/>
      <point x="299.9799999999999" y="68.7" type="curve" smooth="yes"/>
      <point x="299.9799999999999" y="76.27999999999999"/>
      <point x="309.44" y="136.54000000000002"/>
      <point x="370.64" y="519.24" type="curve"/>
      <point x="340.53999999999996" y="534.1"/>
      <point x="298.65999999999997" y="544.0"/>
      <point x="258.44000000000005" y="544.0" type="curve" smooth="yes"/>
      <point x="114.62000000000002" y="544.0"/>
      <point x="21.64" y="388.18"/>
      <point x="21.64" y="154.66" type="curve" smooth="yes"/>
      <point x="21.64" y="46.68"/>
      <point x="64.1" y="-10.0"/>
      <point x="139.52" y="-10.0" type="curve" smooth="yes"/>
      <point x="181.22000000000003" y="-10.0"/>
      <point x="219.48" y="5.64"/>
      <point x="248.68" y="29.020000000000003" type="curve"/>
      <point x="255.89999999999998" y="4.88"/>
      <point x="275.48" y="-10.0"/>
    </contour>
    <contour>
      <point x="246.3" y="68.5" type="line"/>
      <point x="221.78" y="51.019999999999996"/>
      <point x="187.5" y="39.120000000000005"/>
      <point x="157.04000000000002" y="39.120000000000005" type="curve" smooth="yes"/>
      <point x="105.68" y="39.120000000000005"/>
      <point x="75.86" y="81.75999999999999"/>
      <point x="75.86" y="162.38000000000002" type="curve" smooth="yes"/>
      <point x="75.86" y="362.59999999999997"/>
      <point x="152.44000000000003" y="498.08"/>
      <point x="251.94000000000003" y="498.08" type="curve" smooth="yes"/>
      <point x="276.06" y="498.08"/>
      <point x="296.03999999999996" y="493.98"/>
      <point x="311.79999999999995" y="485.4" type="curve"/>
    </contour>
  </outline>
</glyph>
<glyph name="b" format="2">
  <advance width="388.84000000000003"/>
  <unicode hex="0062"/>
  <note>
12
</note>
  <outline>
    <contour>
      <point x="181.82000000000002" y="740.0" type="line"/>
      <point x="129.32" y="740.0" type="line"/>
      <point x="14.040000000000001" y="9.92" type="line"/>
      <point x="47.46" y="-1.7399999999999995"/>
      <point x="84.26" y="-10.0"/>
      <point x="129.26" y="-10.0" type="curve" smooth="yes"/>
      <point x="278.78000000000003" y="-10.0"/>
      <point x="367.06" y="183.84000000000003"/>
      <point x="366.76" y="379.75999999999993" type="curve" smooth="yes"/>
      <point x="366.66" y="490.52"/>
      <point x="329.7" y="544.0"/>
      <point x="254.86" y="544.0" type="curve" smooth="yes"/>
      <point x="214.87999999999997" y="544.0"/>
      <point x="180.64000000000001" y="528.72"/>
      <point x="144.3" y="505.84000000000003" type="curve"/>
    </contour>
    <contour>
      <point x="234.38" y="494.53999999999996" type="curve" smooth="yes"/>
      <point x="291.76" y="494.53999999999996"/>
      <point x="313.56" y="443.74"/>
      <point x="313.56" y="371.15999999999997" type="curve" smooth="yes"/>
      <point x="313.56" y="204.84000000000003"/>
      <point x="240.9" y="35.86000000000001"/>
      <point x="134.7" y="35.86000000000001" type="curve" smooth="yes"/>
      <point x="110.64000000000001" y="35.86000000000001"/>
      <point x="88.39999999999999" y="40.54"/>
      <point x="72.5" y="46.64" type="curve"/>
      <point x="137.29999999999998" y="458.96000000000004" type="line"/>
      <point x="169.24" y="481.68"/>
      <point x="204.82" y="494.53999999999996"/>
    </contour>
  </outline>
</glyph>
<glyph name="c" format="2">
  <advance width="322.40000000000003"/>
  <unicode hex="0063"/>
  <note>
10
</note>
  <anchor x="163.32000000000002" y="0.0" name="bottom"/>
  <anchor x="244.40000000000003" y="534.0" name="top"/>
  <outline>
    <contour>
      <point x="164.24" y="-10.0" type="curve" smooth="yes"/>
      <point x="205.56000000000003" y="-10.0"/>
      <point x="242.36" y="-3.28"/>
      <point x="271.40000000000003" y="6.959999999999999" type="curve"/>
      <point x="265.15999999999997" y="50.99999999999999" type="line"/>
      <point x="240.04" y="43.84"/>
      <point x="210.72" y="38.64"/>
      <point x="177.92" y="38.64" type="curve" smooth="yes"/>
      <point x="112.00000000000001" y="38.64"/>
      <point x="74.04" y="81.2"/>
      <point x="74.04" y="159.84" type="curve" smooth="yes"/>
      <point x="74.04" y="335.96000000000004"/>
      <point x="149.24" y="494.2"/>
      <point x="246.84" y="494.2" type="curve" smooth="yes"/>
      <point x="275.12" y="494.2"/>
      <point x="299.16" y="491.16"/>
      <point x="328.16" y="481.96" type="curve"/>
      <point x="345.04" y="529.8000000000001" type="line"/>
      <point x="313.4" y="539.4000000000001"/>
      <point x="282.84" y="544.0"/>
      <point x="249.83999999999997" y="544.0" type="curve" smooth="yes"/>
      <point x="112.24000000000001" y="544.0"/>
      <point x="21.520000000000003" y="370.76"/>
      <point x="21.520000000000003" y="148.76" type="curve" smooth="yes"/>
      <point x="21.520000000000003" y="47.800000000000004"/>
      <point x="72.47999999999999" y="-10.0"/>
    </contour>
  </outline>
</glyph>
<glyph name="d" format="2">
  <advance width="388.8"/>
  <unicode hex="0064"/>
  <note>
17
</note>
  <anchor x="151.01999999999998" y="0.0" name="bottom"/>
  <anchor x="199.01999999999998" y="335.7" name="center"/>
  <anchor x="259.00000000000006" y="740.0" name="top"/>
  <anchor x="468.70000000000005" y="740.0" name="topright"/>
  <outline>
    <contour>
      <point x="301.98" y="-10.0" type="curve" smooth="yes"/>
      <point x="317.5400000000001" y="-10.0"/>
      <point x="336.2200000000001" y="-5.92"/>
      <point x="351.74" y="2.04" type="curve"/>
      <point x="351.24" y="44.39999999999999" type="line"/>
      <point x="342.44" y="40.900000000000006"/>
      <point x="332.71999999999997" y="38.14000000000001"/>
      <point x="322.85999999999996" y="38.14000000000001" type="curve" smooth="yes"/>
      <point x="306.34000000000003" y="38.14000000000001"/>
      <point x="297.94" y="47.400000000000006"/>
      <point x="297.94" y="66.42000000000002" type="curve" smooth="yes"/>
      <point x="297.94" y="76.38000000000001"/>
      <point x="338.06" y="323.82"/>
      <point x="403.8" y="740.0" type="curve"/>
      <point x="351.20000000000005" y="740.0" type="line"/>
      <point x="318.14000000000004" y="531.64" type="line"/>
      <point x="295.08000000000004" y="538.8799999999999"/>
      <point x="271.46" y="544.0"/>
      <point x="241.52" y="544.0" type="curve" smooth="yes"/>
      <point x="111.20000000000002" y="544.0"/>
      <point x="20.48" y="372.76000000000005"/>
      <point x="20.48" y="145.54000000000002" type="curve" smooth="yes"/>
      <point x="20.48" y="41.480000000000004"/>
      <point x="64.32" y="-10.0"/>
      <point x="137.14000000000004" y="-10.0" type="curve" smooth="yes"/>
      <point x="177.4" y="-10.0"/>
      <point x="220.28" y="8.100000000000001"/>
      <point x="246.42" y="29.819999999999997" type="curve"/>
      <point x="254.34000000000003" y="3.8"/>
      <point x="272.8" y="-10.0"/>
    </contour>
    <contour>
      <point x="153.89999999999998" y="39.900000000000006" type="curve" smooth="yes"/>
      <point x="104.52" y="39.900000000000006"/>
      <point x="73.62000000000002" y="79.32"/>
      <point x="73.62000000000002" y="145.72000000000003" type="curve" smooth="yes"/>
      <point x="73.62000000000002" y="331.11999999999995"/>
      <point x="144.21999999999997" y="498.08"/>
      <point x="247.04000000000002" y="498.08" type="curve" smooth="yes"/>
      <point x="272.86" y="498.08"/>
      <point x="291.72" y="493.42"/>
      <point x="311.03999999999996" y="487.9" type="curve"/>
      <point x="244.98000000000002" y="68.72" type="line"/>
      <point x="220.21999999999997" y="51.12"/>
      <point x="187.33999999999997" y="39.900000000000006"/>
    </contour>
  </outline>
</glyph>
<glyph name="e" format="2">
  <advance width="360.2"/>
  <unicode hex="0065"/>
  <note>
14 points
</note>
  <anchor x="173.55999999999997" y="0.0" name="bottom"/>
  <anchor x="260.92" y="2.7600000000000002" name="ogonek"/>
  <anchor x="247.48000000000002" y="535.3600000000001" name="top"/>
  <outline>
    <contour>
      <point x="68.68" y="276.6" type="curve"/>
      <point x="62.16" y="235.12" type="line"/>
      <point x="98.60000000000001" y="236.0"/>
      <point x="140.96000000000004" y="241.8"/>
      <point x="181.40000000000003" y="253.4" type="curve" smooth="yes"/>
      <point x="293.6" y="285.96"/>
      <point x="365.79999999999995" y="356.71999999999997"/>
      <point x="365.79999999999995" y="448.03999999999996" type="curve" smooth="yes"/>
      <point x="365.79999999999995" y="505.91999999999996"/>
      <point x="326.59999999999997" y="544.0"/>
      <point x="256.32" y="544.0" type="curve" smooth="yes"/>
      <point x="115.00000000000001" y="544.0"/>
      <point x="24.920000000000005" y="393.03999999999996"/>
      <point x="24.920000000000005" y="181.91999999999996" type="curve" smooth="yes"/>
      <point x="24.920000000000005" y="59.879999999999995"/>
      <point x="77.44" y="-10.0"/>
      <point x="174.76" y="-10.0" type="curve" smooth="yes"/>
      <point x="218.87999999999997" y="-10.0"/>
      <point x="268.8" y="0.31999999999999984"/>
      <point x="307.2" y="19.68" type="curve"/>
      <point x="296.79999999999995" y="64.83999999999999" type="line"/>
      <point x="255.36000000000004" y="46.760000000000005"/>
      <point x="217.08" y="38.64"/>
      <point x="181.56" y="38.64" type="curve" smooth="yes"/>
      <point x="113.96000000000001" y="38.64"/>
      <point x="75.84" y="91.80000000000001"/>
      <point x="75.84" y="188.0" type="curve" smooth="yes"/>
      <point x="75.84" y="369.64000000000004"/>
      <point x="151.76000000000002" y="498.56000000000006"/>
      <point x="247.56" y="498.56000000000006" type="curve" smooth="yes"/>
      <point x="290.96000000000004" y="498.56000000000006"/>
      <point x="315.67999999999995" y="478.72"/>
      <point x="315.67999999999995" y="438.56" type="curve" smooth="yes"/>
      <point x="315.67999999999995" y="373.28000000000003"/>
      <point x="259.68" y="321.24"/>
      <point x="172.71999999999997" y="294.40000000000003" type="curve" smooth="yes"/>
      <point x="138.11999999999998" y="283.79999999999995"/>
      <point x="102.24000000000001" y="277.36"/>
    </contour>
  </outline>
</glyph>
<glyph name="f" format="2">
  <advance width="242.12"/>
  <unicode hex="0066"/>
  <outline>
    <contour>
      <point x="-53.96" y="-220.0" type="curve" smooth="yes"/>
      <point x="22.84" y="-220.0"/>
      <point x="61.28" y="-161.56"/>
      <point x="80.24000000000001" y="-41.12" type="curve" smooth="yes"/>
      <point x="157.04000000000002" y="444.84000000000003" type="line"/>
      <point x="271.56" y="444.84000000000003" type="line"/>
      <point x="278.96000000000004" y="491.2" type="line"/>
      <point x="164.4" y="491.2" type="line"/>
      <point x="187.72" y="640.92"/>
      <point x="223.96" y="699.8"/>
      <point x="291.16" y="699.8" type="curve" smooth="yes"/>
      <point x="316.20000000000005" y="699.8"/>
      <point x="338.0" y="694.8"/>
      <point x="360.56" y="688.2" type="curve"/>
      <point x="376.15999999999997" y="733.6" type="line"/>
      <point x="346.6" y="744.36"/>
      <point x="319.68" y="750.0"/>
      <point x="289.96000000000004" y="750.0" type="curve" smooth="yes"/>
      <point x="194.64" y="750.0"/>
      <point x="140.32" y="674.8799999999999"/>
      <point x="111.8" y="491.2" type="curve"/>
      <point x="44.199999999999996" y="484.64" type="line"/>
      <point x="37.72" y="444.84000000000003" type="line"/>
      <point x="104.39999999999999" y="444.84000000000003" type="line"/>
      <point x="28.32" y="-37.92" type="line" smooth="yes"/>
      <point x="14.52" y="-124.56"/>
      <point x="-7.600000000000002" y="-171.32000000000002"/>
      <point x="-60.959999999999994" y="-171.32000000000002" type="curve" smooth="yes"/>
      <point x="-73.92" y="-171.32000000000002"/>
      <point x="-85.52" y="-169.48"/>
      <point x="-101.44" y="-164.23999999999998" type="curve"/>
      <point x="-114.24000000000001" y="-209.96" type="line"/>
      <point x="-95.08" y="-216.96"/>
      <point x="-76.03999999999999" y="-220.0"/>
    </contour>
  </outline>
</glyph>
<glyph name="g" format="2">
  <advance width="385.24000000000007"/>
  <unicode hex="0067"/>
  <note>
16
</note>
  <anchor x="106.8" y="-213.2" name="bottom"/>
  <anchor x="241.04000000000002" y="534.0" name="top"/>
  <outline>
    <contour>
      <point x="-5.839999999999999" y="-198.84" type="line"/>
      <point x="28.96" y="-212.56"/>
      <point x="70.16000000000001" y="-220.0"/>
      <point x="108.8" y="-220.0" type="curve" smooth="yes"/>
      <point x="206.08" y="-220.0"/>
      <point x="260.96000000000004" y="-160.16"/>
      <point x="281.12000000000006" y="-30.439999999999998" type="curve" smooth="yes"/>
      <point x="369.88" y="522.04" type="line"/>
      <point x="341.16" y="534.8"/>
      <point x="298.96000000000004" y="544.0"/>
      <point x="261.32" y="544.0" type="curve" smooth="yes"/>
      <point x="100.03999999999999" y="544.0"/>
      <point x="20.56" y="357.16"/>
      <point x="20.56" y="152.20000000000002" type="curve" smooth="yes"/>
      <point x="20.56" y="54.52"/>
      <point x="61.040000000000006" y="-5.800000000000001"/>
      <point x="135.20000000000002" y="-5.800000000000001" type="curve" smooth="yes"/>
      <point x="166.48000000000002" y="-5.800000000000001"/>
      <point x="206.44" y="5.720000000000001"/>
      <point x="238.08" y="25.92" type="curve"/>
      <point x="229.88000000000002" y="-29.6" type="line" smooth="yes"/>
      <point x="214.4" y="-131.71999999999997"/>
      <point x="175.24" y="-172.28"/>
      <point x="106.28000000000002" y="-172.28" type="curve" smooth="yes"/>
      <point x="75.28" y="-172.28"/>
      <point x="38.92" y="-165.12"/>
      <point x="8.76" y="-153.67999999999998" type="curve"/>
    </contour>
    <contour>
      <point x="311.28" y="487.28" type="curve"/>
      <point x="245.32000000000002" y="72.2" type="line"/>
      <point x="222.6" y="54.800000000000004"/>
      <point x="183.60000000000002" y="41.32000000000001"/>
      <point x="156.68" y="41.32000000000001" type="curve" smooth="yes"/>
      <point x="105.27999999999999" y="41.32000000000001"/>
      <point x="74.48" y="83.64"/>
      <point x="74.48" y="163.0" type="curve" smooth="yes"/>
      <point x="74.48" y="332.91999999999996"/>
      <point x="145.04" y="499.16"/>
      <point x="252.64000000000001" y="499.16" type="curve" smooth="yes"/>
      <point x="276.52" y="499.16"/>
      <point x="294.47999999999996" y="493.52"/>
    </contour>
  </outline>
</glyph>
<glyph name="h" format="2">
  <advance width="396.40000000000003"/>
  <unicode hex="0068"/>
  <note>
16
</note>
  <anchor x="160.44000000000003" y="0.0" name="bottom"/>
  <anchor x="214.66" y="371.0" name="center"/>
  <anchor x="274.08" y="740.0" name="top"/>
  <outline>
    <contour>
      <point x="308.74" y="66.26" type="curve" smooth="yes"/>
      <point x="308.74" y="96.96000000000001"/>
      <point x="365.82" y="418.28000000000003"/>
      <point x="365.82" y="453.40000000000003" type="curve" smooth="yes"/>
      <point x="365.82" y="507.44"/>
      <point x="338.91999999999996" y="544.0"/>
      <point x="275.88000000000005" y="544.0" type="curve" smooth="yes"/>
      <point x="229.78000000000003" y="544.0"/>
      <point x="186.98" y="527.4"/>
      <point x="144.36" y="503.53999999999996" type="curve"/>
      <point x="181.94" y="740.0" type="line"/>
      <point x="129.24000000000004" y="740.0" type="line"/>
      <point x="11.940000000000001" y="0.0" type="line"/>
      <point x="64.63999999999999" y="0.0" type="line"/>
      <point x="136.98000000000002" y="458.4" type="line"/>
      <point x="173.18" y="479.44"/>
      <point x="212.96" y="494.9800000000001"/>
      <point x="248.48" y="494.9800000000001" type="curve" smooth="yes"/>
      <point x="295.52" y="494.9800000000001"/>
      <point x="310.12" y="469.26000000000005"/>
      <point x="310.12" y="434.58000000000004" type="curve" smooth="yes"/>
      <point x="310.12" y="400.43999999999994"/>
      <point x="254.42" y="86.2"/>
      <point x="254.42" y="46.660000000000004" type="curve" smooth="yes"/>
      <point x="254.42" y="11.04"/>
      <point x="279.66" y="-10.0"/>
      <point x="313.65999999999997" y="-10.0" type="curve" smooth="yes"/>
      <point x="328.62" y="-10.0"/>
      <point x="345.34" y="-7.180000000000001"/>
      <point x="361.4800000000001" y="1.0200000000000002" type="curve"/>
      <point x="361.88" y="44.48" type="line"/>
      <point x="351.26" y="40.279999999999994"/>
      <point x="343.03999999999996" y="38.940000000000005"/>
      <point x="336.03999999999996" y="38.940000000000005" type="curve" smooth="yes"/>
      <point x="317.08000000000004" y="38.940000000000005"/>
      <point x="308.74" y="48.559999999999995"/>
    </contour>
  </outline>
</glyph>
<glyph name="i" format="2">
  <advance width="164.56"/>
  <unicode hex="0069"/>
  <note>
Ajuster pts sur points
8
</note>
  <anchor x="37.977759999999996" y="0.0" name="bottom"/>
  <anchor x="64.64" y="0.0" name="ogonek"/>
  <anchor x="122.74224000000001" y="534.0" name="top"/>
  <outline>
    <contour>
      <point x="12.759999999999998" y="0.0" type="line"/>
      <point x="64.64" y="0.0" type="line"/>
      <point x="149.2" y="534.0" type="line"/>
      <point x="96.76" y="534.0" type="line"/>
    </contour>
    <contour>
      <point x="154.24" y="726.0" type="curve" smooth="yes"/>
      <point x="125.32000000000001" y="726.0"/>
      <point x="117.08" y="711.4"/>
      <point x="114.99999999999999" y="677.4" type="curve" smooth="yes"/>
      <point x="114.36" y="660.36"/>
      <point x="124.48" y="654.64"/>
      <point x="141.24" y="654.64" type="curve" smooth="yes"/>
      <point x="170.0" y="654.64"/>
      <point x="178.52" y="669.0000000000001"/>
      <point x="180.76" y="703.6" type="curve" smooth="yes"/>
      <point x="181.4" y="720.4399999999999"/>
      <point x="171.60000000000002" y="726.0"/>
    </contour>
  </outline>
</glyph>
<glyph name="j" format="2">
  <advance width="172.32"/>
  <unicode hex="006A"/>
  <note>
idem /i
12
</note>
  <outline>
    <contour>
      <point x="162.04000000000002" y="726.0" type="curve" smooth="yes"/>
      <point x="133.07999999999998" y="726.0"/>
      <point x="125.2" y="711.4"/>
      <point x="123.12" y="677.4" type="curve" smooth="yes"/>
      <point x="122.48" y="660.36"/>
      <point x="132.48" y="654.64"/>
      <point x="149.24" y="654.64" type="curve" smooth="yes"/>
      <point x="177.36" y="654.64"/>
      <point x="186.0" y="669.0000000000001"/>
      <point x="188.24" y="703.6" type="curve" smooth="yes"/>
      <point x="188.88" y="720.4399999999999"/>
      <point x="179.4" y="726.0"/>
    </contour>
    <contour>
      <point x="157.2" y="534.0" type="line"/>
      <point x="104.56" y="534.0" type="line"/>
      <point x="12.28" y="-49.68" type="line" smooth="yes"/>
      <point x="0.3600000000000001" y="-124.60000000000001"/>
      <point x="-21.039999999999996" y="-171.32000000000002"/>
      <point x="-72.39999999999999" y="-171.32000000000002" type="curve" smooth="yes"/>
      <point x="-86.0" y="-171.32000000000002"/>
      <point x="-98.72" y="-169.67999999999998"/>
      <point x="-115.52000000000001" y="-163.84" type="curve"/>
      <point x="-127.64" y="-210.44" type="line"/>
      <point x="-108.76" y="-217.44"/>
      <point x="-85.12" y="-220.0"/>
      <point x="-66.39999999999999" y="-220.0" type="curve" smooth="yes"/>
      <point x="11.040000000000003" y="-220.0"/>
      <point x="46.92" y="-162.92000000000002"/>
      <point x="64.12" y="-52.879999999999995" type="curve" smooth="yes"/>
    </contour>
  </outline>
</glyph>
<glyph name="k" format="2">
  <advance width="366.2"/>
  <unicode hex="006B"/>
  <anchor x="158.10000000000002" y="0.0" name="bottom"/>
  <anchor x="156.3" y="740.0" name="top"/>
  <outline>
    <contour>
      <point x="12.299999999999999" y="0.0" type="line"/>
      <point x="65.10000000000001" y="0.0" type="line"/>
      <point x="182.29999999999998" y="740.0" type="line"/>
      <point x="129.3" y="740.0" type="line"/>
    </contour>
    <contour>
      <point x="311.29999999999995" y="-10.0" type="curve" smooth="yes"/>
      <point x="320.09999999999997" y="-10.0"/>
      <point x="328.9" y="-8.5"/>
      <point x="337.9" y="-4.9" type="curve"/>
      <point x="340.5" y="45.00000000000001" type="line"/>
      <point x="334.1" y="43.400000000000006"/>
      <point x="328.4" y="42.800000000000004"/>
      <point x="323.5" y="43.0" type="curve" smooth="yes"/>
      <point x="294.9" y="44.0"/>
      <point x="267.1" y="74.6"/>
      <point x="206.5" y="187.5" type="curve" smooth="yes"/>
      <point x="112.5" y="358.0" type="line"/>
      <point x="96.80000000000001" y="292.8" type="line"/>
      <point x="187.1" y="124.39999999999999" type="line" smooth="yes"/>
      <point x="241.5" y="22.599999999999998"/>
      <point x="270.8" y="-10.0"/>
    </contour>
    <contour>
      <point x="166.79999999999998" y="246.6" type="line"/>
      <point x="259.8" y="312.79999999999995"/>
      <point x="341.3" y="420.4"/>
      <point x="385.59999999999997" y="534.1999999999999" type="curve"/>
      <point x="335.29999999999995" y="543.4" type="line"/>
      <point x="287.2" y="425.90000000000003"/>
      <point x="230.0" y="348.6"/>
      <point x="138.9" y="282.90000000000003" type="curve"/>
    </contour>
  </outline>
</glyph>
<glyph name="l" format="2">
  <advance width="184.32"/>
  <unicode hex="006C"/>
  <anchor x="87.96" y="0.0" name="bottom"/>
  <anchor x="100.24024" y="371.0" name="center"/>
  <anchor x="155.28" y="740.0" name="top"/>
  <anchor x="246.79999999999998" y="740.0" name="topright"/>
  <outline>
    <contour>
      <point x="129.28" y="740.0" type="line"/>
      <point x="25.959999999999997" y="87.99999999999999" type="line" smooth="yes"/>
      <point x="24.48" y="77.52"/>
      <point x="22.88" y="64.64"/>
      <point x="22.88" y="53.64" type="curve" smooth="yes"/>
      <point x="22.88" y="14.64"/>
      <point x="41.92" y="-10.0"/>
      <point x="88.32000000000001" y="-10.0" type="curve" smooth="yes"/>
      <point x="109.76" y="-10.0"/>
      <point x="133.8" y="-4.96"/>
      <point x="152.32000000000002" y="2.6000000000000005" type="curve"/>
      <point x="152.48000000000002" y="46.36" type="line"/>
      <point x="136.35999999999999" y="41.519999999999996"/>
      <point x="123.4" y="39.080000000000005"/>
      <point x="111.68" y="39.080000000000005" type="curve" smooth="yes"/>
      <point x="84.8" y="39.080000000000005"/>
      <point x="77.2" y="52.48"/>
      <point x="77.2" y="69.32" type="curve" smooth="yes"/>
      <point x="77.2" y="81.84"/>
      <point x="79.92000000000002" y="96.0"/>
      <point x="83.03999999999999" y="115.76" type="curve" smooth="yes"/>
      <point x="181.92" y="740.0" type="line"/>
    </contour>
  </outline>
</glyph>
<glyph name="m" format="2">
  <advance width="593.6400000000001"/>
  <unicode hex="006D"/>
  <note>
24&gt;23 points
un point de trop dans la jointure avec 2e jambage
</note>
  <outline>
    <contour>
      <point x="510.55999999999995" y="-10.0" type="curve" smooth="yes"/>
      <point x="525.44" y="-10.0"/>
      <point x="542.96" y="-7.28"/>
      <point x="558.76" y="0.9600000000000002" type="curve"/>
      <point x="559.0799999999999" y="44.12" type="line"/>
      <point x="548.6" y="39.919999999999995"/>
      <point x="540.2" y="38.760000000000005"/>
      <point x="533.24" y="38.760000000000005" type="curve" smooth="yes"/>
      <point x="514.32" y="38.760000000000005"/>
      <point x="505.32" y="48.720000000000006"/>
      <point x="505.32" y="66.92" type="curve" smooth="yes"/>
      <point x="505.32" y="100.56"/>
      <point x="562.6800000000001" y="419.28000000000003"/>
      <point x="562.6800000000001" y="454.24" type="curve" smooth="yes"/>
      <point x="562.6800000000001" y="506.96000000000004"/>
      <point x="536.08" y="544.0"/>
      <point x="473.0" y="544.0" type="curve" smooth="yes"/>
      <point x="431.56000000000006" y="544.0"/>
      <point x="386.80000000000007" y="527.96"/>
      <point x="340.36" y="495.80000000000007" type="curve"/>
      <point x="328.64000000000004" y="525.24"/>
      <point x="301.64000000000004" y="544.0"/>
      <point x="260.52" y="544.0" type="curve" smooth="yes"/>
      <point x="221.0" y="544.0"/>
      <point x="180.44" y="527.1999999999999"/>
      <point x="139.64" y="501.68" type="curve"/>
      <point x="145.0" y="534.0" type="line"/>
      <point x="96.08000000000001" y="534.0" type="line"/>
      <point x="11.64" y="0.0" type="line"/>
      <point x="64.12" y="0.0" type="line"/>
      <point x="136.64" y="459.76" type="line"/>
      <point x="169.72" y="481.15999999999997"/>
      <point x="203.56" y="495.00000000000006"/>
      <point x="235.52" y="495.00000000000006" type="curve" smooth="yes"/>
      <point x="278.56000000000006" y="495.00000000000006"/>
      <point x="294.0" y="468.8"/>
      <point x="294.0" y="434.96000000000004" type="curve" smooth="yes"/>
      <point x="294.0" y="408.88"/>
      <point x="240.16000000000003" y="84.56"/>
      <point x="227.24" y="0.0" type="curve"/>
      <point x="280.04" y="0.0" type="line"/>
      <point x="291.72" y="76.75999999999999"/>
      <point x="342.44" y="390.68"/>
      <point x="346.28000000000003" y="437.04" type="curve" smooth="yes"/>
      <point x="346.48" y="443.64"/>
      <point x="346.16" y="451.8"/>
      <point x="345.40000000000003" y="457.52000000000004" type="curve"/>
      <point x="377.0" y="478.52000000000004"/>
      <point x="411.6" y="494.88000000000005"/>
      <point x="448.44" y="494.88000000000005" type="curve" smooth="yes"/>
      <point x="491.96" y="494.88000000000005"/>
      <point x="506.84000000000003" y="469.16"/>
      <point x="506.84000000000003" y="433.52" type="curve" smooth="yes"/>
      <point x="506.84000000000003" y="398.24"/>
      <point x="451.32" y="87.6"/>
      <point x="451.32" y="47.120000000000005" type="curve" smooth="yes"/>
      <point x="451.32" y="10.040000000000001"/>
      <point x="476.64" y="-10.0"/>
    </contour>
  </outline>
</glyph>
<glyph name="n" format="2">
  <advance width="395.12"/>
  <unicode hex="006E"/>
  <note>
16
</note>
  <anchor x="167.52" y="0.0" name="bottom"/>
  <anchor x="234.72000000000003" y="534.0" name="top"/>
  <outline>
    <contour>
      <point x="96.08000000000001" y="534.0" type="line"/>
      <point x="11.64" y="0.0" type="line"/>
      <point x="64.08" y="0.0" type="line"/>
      <point x="136.64" y="458.59999999999997" type="line"/>
      <point x="173.24" y="479.88"/>
      <point x="211.68" y="495.64"/>
      <point x="247.56" y="495.64" type="curve" smooth="yes"/>
      <point x="294.32" y="495.64"/>
      <point x="309.79999999999995" y="469.44"/>
      <point x="309.79999999999995" y="433.72" type="curve" smooth="yes"/>
      <point x="309.79999999999995" y="398.4"/>
      <point x="254.24" y="88.0"/>
      <point x="254.24" y="45.84" type="curve" smooth="yes"/>
      <point x="254.24" y="11.16"/>
      <point x="278.44" y="-10.0"/>
      <point x="312.36" y="-10.0" type="curve" smooth="yes"/>
      <point x="327.24" y="-10.0"/>
      <point x="344.44" y="-7.28"/>
      <point x="360.24" y="0.9600000000000002" type="curve"/>
      <point x="360.56" y="44.12" type="line"/>
      <point x="350.08" y="39.919999999999995"/>
      <point x="341.68" y="38.760000000000005"/>
      <point x="334.72" y="38.760000000000005" type="curve" smooth="yes"/>
      <point x="315.79999999999995" y="38.760000000000005"/>
      <point x="307.92" y="48.4"/>
      <point x="307.92" y="66.12" type="curve" smooth="yes"/>
      <point x="307.92" y="96.88000000000001"/>
      <point x="365.44000000000005" y="418.16"/>
      <point x="365.44000000000005" y="453.28000000000003" type="curve" smooth="yes"/>
      <point x="365.44000000000005" y="507.84"/>
      <point x="336.84" y="544.0"/>
      <point x="274.64000000000004" y="544.0" type="curve" smooth="yes"/>
      <point x="228.20000000000002" y="544.0"/>
      <point x="183.20000000000002" y="526.6"/>
      <point x="139.4" y="500.56" type="curve"/>
      <point x="144.92000000000002" y="534.0" type="line"/>
    </contour>
  </outline>
</glyph>
<glyph name="o" format="2">
  <advance width="382.5"/>
  <unicode hex="006F"/>
  <note>
8
</note>
  <anchor x="156.0" y="0.0" name="bottom"/>
  <anchor x="194.4" y="268.6" name="center"/>
  <anchor x="207.70000000000002" y="1.8000000000000003" name="ogonek"/>
  <anchor x="232.0" y="534.0" name="top"/>
  <anchor x="305.40000000000003" y="525.6" name="topright"/>
  <outline>
    <contour>
      <point x="157.20000000000002" y="-10.0" type="curve" smooth="yes"/>
      <point x="297.0" y="-10.0"/>
      <point x="357.0" y="224.49999999999997"/>
      <point x="357.0" y="391.3" type="curve" smooth="yes"/>
      <point x="357.0" y="500.3"/>
      <point x="310.0" y="543.9"/>
      <point x="223.0" y="543.9" type="curve" smooth="yes"/>
      <point x="82.9" y="543.9"/>
      <point x="22.400000000000002" y="304.8"/>
      <point x="22.400000000000002" y="141.79999999999998" type="curve" smooth="yes"/>
      <point x="22.400000000000002" y="32.599999999999994"/>
      <point x="67.9" y="-10.0"/>
    </contour>
    <contour>
      <point x="157.0" y="36.300000000000004" type="curve" smooth="yes"/>
      <point x="103.10000000000001" y="36.300000000000004"/>
      <point x="73.7" y="63.2"/>
      <point x="73.7" y="142.2" type="curve" smooth="yes"/>
      <point x="73.7" y="260.8"/>
      <point x="123.99999999999999" y="497.6"/>
      <point x="222.9" y="497.6" type="curve" smooth="yes"/>
      <point x="274.6" y="497.6"/>
      <point x="305.5" y="469.4"/>
      <point x="305.5" y="392.40000000000003" type="curve" smooth="yes"/>
      <point x="305.5" y="268.7"/>
      <point x="256.4" y="36.300000000000004"/>
    </contour>
  </outline>
</glyph>
<glyph name="p" format="2">
  <advance width="389.09999999999997"/>
  <unicode hex="0070"/>
  <note>
14 point
</note>
  <outline>
    <contour>
      <point x="-20.680000000000003" y="-210.0" type="line"/>
      <point x="30.98" y="-210.0" type="line"/>
      <point x="64.46" y="0.24000000000000013" type="line"/>
      <point x="85.06" y="-5.48"/>
      <point x="108.81999999999998" y="-9.7"/>
      <point x="138.14" y="-9.7" type="curve" smooth="yes"/>
      <point x="280.0" y="-9.7"/>
      <point x="366.76" y="176.2"/>
      <point x="366.76" y="378.58000000000004" type="curve" smooth="yes"/>
      <point x="366.76" y="490.36"/>
      <point x="330.02000000000004" y="544.0"/>
      <point x="255.48" y="544.0" type="curve" smooth="yes"/>
      <point x="211.57999999999998" y="544.0"/>
      <point x="177.52" y="526.28"/>
      <point x="142.1" y="503.7" type="curve"/>
      <point x="143.39999999999998" y="540.4" type="line"/>
      <point x="97.4" y="540.4" type="line"/>
    </contour>
    <contour>
      <point x="133.42" y="35.86000000000001" type="curve" smooth="yes"/>
      <point x="109.36" y="35.86000000000001"/>
      <point x="88.39999999999999" y="40.06"/>
      <point x="71.86000000000001" y="46.16000000000001" type="curve"/>
      <point x="137.14000000000001" y="458.90000000000003" type="line"/>
      <point x="167.70000000000002" y="480.24"/>
      <point x="204.34000000000003" y="494.53999999999996"/>
      <point x="234.57999999999998" y="494.53999999999996" type="curve" smooth="yes"/>
      <point x="286.80000000000007" y="494.53999999999996"/>
      <point x="313.56" y="454.3"/>
      <point x="313.56" y="369.52" type="curve" smooth="yes"/>
      <point x="313.56" y="201.29999999999998"/>
      <point x="242.0" y="35.86000000000001"/>
    </contour>
  </outline>
</glyph>
<glyph name="q" format="2">
  <advance width="384.68"/>
  <unicode hex="0071"/>
  <note>
12
</note>
  <outline>
    <contour>
      <point x="369.42" y="524.08" type="line"/>
      <point x="336.58" y="534.46"/>
      <point x="295.5" y="544.0"/>
      <point x="252.5" y="544.0" type="curve" smooth="yes"/>
      <point x="85.38" y="544.0"/>
      <point x="20.04" y="307.94"/>
      <point x="20.04" y="141.07999999999998" type="curve" smooth="yes"/>
      <point x="20.04" y="40.14"/>
      <point x="64.92" y="-10.0"/>
      <point x="133.28" y="-10.0" type="curve" smooth="yes"/>
      <point x="173.66000000000003" y="-10.0"/>
      <point x="206.7" y="5.140000000000001"/>
      <point x="238.16" y="28.220000000000002" type="curve"/>
      <point x="199.02" y="-210.0" type="line"/>
      <point x="252.4" y="-210.0" type="line"/>
    </contour>
    <contour>
      <point x="311.02000000000004" y="487.78000000000003" type="curve"/>
      <point x="245.26" y="73.93999999999998" type="line"/>
      <point x="214.08" y="49.839999999999996"/>
      <point x="182.02" y="39.06000000000001"/>
      <point x="152.02" y="39.06000000000001" type="curve" smooth="yes"/>
      <point x="101.48" y="39.06000000000001"/>
      <point x="72.52" y="84.67999999999999"/>
      <point x="72.52" y="145.14" type="curve" smooth="yes"/>
      <point x="72.52" y="301.04"/>
      <point x="130.1" y="498.18"/>
      <point x="246.96" y="498.18" type="curve" smooth="yes"/>
      <point x="269.7" y="498.18"/>
      <point x="292.6" y="493.24"/>
    </contour>
  </outline>
</glyph>
<glyph name="r" format="2">
  <advance width="271.40000000000003"/>
  <unicode hex="0072"/>
  <anchor x="37.040000000000006" y="0.0" name="bottom"/>
  <anchor x="204.0" y="534.0" name="top"/>
  <outline>
    <contour>
      <point x="144.44" y="534.0" type="line"/>
      <point x="96.16000000000001" y="534.0" type="line"/>
      <point x="11.600000000000001" y="0.0" type="line"/>
      <point x="63.480000000000004" y="0.0" type="line"/>
      <point x="131.72" y="430.68" type="line"/>
      <point x="175.88" y="473.16"/>
      <point x="213.0" y="489.56"/>
      <point x="248.23999999999998" y="489.56" type="curve" smooth="yes"/>
      <point x="264.52" y="489.56"/>
      <point x="282.84" y="486.76"/>
      <point x="299.16" y="481.6" type="curve"/>
      <point x="316.2" y="534.68" type="line"/>
      <point x="300.68" y="540.9200000000001"/>
      <point x="281.59999999999997" y="544.0"/>
      <point x="260.88" y="544.0" type="curve" smooth="yes"/>
      <point x="220.56" y="544.0"/>
      <point x="179.55999999999997" y="524.12"/>
      <point x="135.92000000000002" y="482.76" type="curve"/>
    </contour>
  </outline>
</glyph>
<glyph name="s" format="2">
  <advance width="329.8"/>
  <unicode hex="0073"/>
  <anchor x="119.7" y="0.0" name="bottom"/>
  <anchor x="217.3" y="534.0" name="top"/>
  <outline>
    <contour>
      <point x="-13.5" y="15.1" type="line"/>
      <point x="20.099999999999998" y="0.0"/>
      <point x="63.5" y="-10.0"/>
      <point x="115.5" y="-10.0" type="curve" smooth="yes"/>
      <point x="230.6" y="-10.0"/>
      <point x="288.5" y="57.900000000000006"/>
      <point x="288.5" y="145.7" type="curve" smooth="yes"/>
      <point x="288.5" y="286.3"/>
      <point x="107.6" y="293.20000000000005"/>
      <point x="107.6" y="400.59999999999997" type="curve" smooth="yes"/>
      <point x="107.6" y="453.2"/>
      <point x="143.6" y="496.70000000000005"/>
      <point x="217.9" y="496.70000000000005" type="curve" smooth="yes"/>
      <point x="253.2" y="496.70000000000005"/>
      <point x="287.1" y="487.5"/>
      <point x="314.7" y="476.7" type="curve"/>
      <point x="330.3" y="522.4" type="line"/>
      <point x="304.2" y="534.9000000000001"/>
      <point x="263.3" y="544.0"/>
      <point x="223.4" y="544.0" type="curve" smooth="yes"/>
      <point x="108.3" y="544.0"/>
      <point x="56.7" y="473.6"/>
      <point x="56.7" y="396.40000000000003" type="curve" smooth="yes"/>
      <point x="56.7" y="250.60000000000002"/>
      <point x="237.0" y="251.70000000000002"/>
      <point x="237.0" y="139.0" type="curve" smooth="yes"/>
      <point x="237.0" y="84.0"/>
      <point x="197.79999999999998" y="36.9"/>
      <point x="119.7" y="36.9" type="curve" smooth="yes"/>
      <point x="77.3" y="36.9"/>
      <point x="34.0" y="47.1"/>
      <point x="3.2000000000000006" y="61.0" type="curve"/>
    </contour>
  </outline>
</glyph>
<glyph name="t" format="2">
  <advance width="257.52"/>
  <unicode hex="0074"/>
  <anchor x="127.4" y="0.0" name="bottom"/>
  <anchor x="121.08" y="312.11999999999995" name="center"/>
  <anchor x="159.79999999999998" y="663.24" name="top"/>
  <anchor x="285.92" y="754.8" name="topright"/>
  <outline>
    <contour>
      <point x="217.12" y="50.800000000000004" type="line"/>
      <point x="195.96000000000004" y="44.48"/>
      <point x="175.20000000000002" y="40.04"/>
      <point x="156.32" y="40.04" type="curve" smooth="yes"/>
      <point x="112.32" y="40.04"/>
      <point x="95.36" y="61.88"/>
      <point x="95.36" y="102.24000000000001" type="curve" smooth="yes"/>
      <point x="95.36" y="113.64"/>
      <point x="96.96" y="126.00000000000001"/>
      <point x="98.92000000000002" y="140.48" type="curve" smooth="yes"/>
      <point x="154.28" y="487.96" type="line"/>
      <point x="287.44" y="487.96" type="line"/>
      <point x="295.24" y="534.0" type="line"/>
      <point x="161.96" y="534.0" type="line"/>
      <point x="182.24" y="663.24" type="line"/>
      <point x="139.08" y="663.24" type="line"/>
      <point x="109.84" y="534.0" type="line"/>
      <point x="41.68" y="527.44" type="line"/>
      <point x="34.8" y="488.12" type="line"/>
      <point x="101.91999999999999" y="488.12" type="line"/>
      <point x="46.120000000000005" y="136.76" type="line" smooth="yes"/>
      <point x="42.720000000000006" y="116.84"/>
      <point x="40.88" y="95.0"/>
      <point x="40.88" y="79.64" type="curve" smooth="yes"/>
      <point x="40.88" y="18.88"/>
      <point x="71.80000000000001" y="-10.0"/>
      <point x="131.88" y="-10.0" type="curve" smooth="yes"/>
      <point x="157.88000000000002" y="-10.0"/>
      <point x="187.28" y="-5.16"/>
      <point x="217.8" y="6.32" type="curve"/>
    </contour>
  </outline>
</glyph>
<glyph name="u" format="2">
  <advance width="390.8"/>
  <unicode hex="0075"/>
  <note>
15
</note>
  <anchor x="152.52" y="0.0" name="bottom"/>
  <anchor x="353.4" y="3.44" name="ogonek"/>
  <anchor x="231.84896" y="534.0" name="top"/>
  <anchor x="366.96000000000004" y="534.0" name="topright"/>
  <outline>
    <contour>
      <point x="114.72000000000001" y="-10.0" type="curve" smooth="yes"/>
      <point x="161.51999999999998" y="-10.0"/>
      <point x="201.16" y="6.0"/>
      <point x="248.24" y="37.12" type="curve"/>
      <point x="252.92" y="5.5200000000000005"/>
      <point x="273.6" y="-10.0"/>
      <point x="303.44" y="-10.0" type="curve" smooth="yes"/>
      <point x="316.56" y="-10.0"/>
      <point x="338.8" y="-4.72"/>
      <point x="353.4" y="3.88" type="curve"/>
      <point x="353.16" y="44.6" type="line"/>
      <point x="342.23999999999995" y="40.28"/>
      <point x="330.96" y="37.88"/>
      <point x="324.92" y="37.88" type="curve" smooth="yes"/>
      <point x="306.44" y="37.88"/>
      <point x="299.64000000000004" y="48.36"/>
      <point x="299.64000000000004" y="67.12" type="curve" smooth="yes"/>
      <point x="299.64000000000004" y="77.36"/>
      <point x="301.92" y="97.2"/>
      <point x="371.76000000000005" y="534.0" type="curve"/>
      <point x="319.56" y="534.0" type="line"/>
      <point x="247.88" y="75.76" type="line"/>
      <point x="208.6" y="50.96"/>
      <point x="174.56" y="37.96"/>
      <point x="137.48000000000002" y="37.96" type="curve" smooth="yes"/>
      <point x="98.91999999999999" y="37.96"/>
      <point x="78.88" y="61.800000000000004"/>
      <point x="79.2" y="95.0" type="curve" smooth="yes"/>
      <point x="82.08" y="125.88"/>
      <point x="86.8" y="158.07999999999998"/>
      <point x="145.92" y="534.0" type="curve"/>
      <point x="93.72" y="534.0" type="line"/>
      <point x="44.6" y="215.11999999999998"/>
      <point x="24.88" y="113.72"/>
      <point x="24.88" y="73.8" type="curve" smooth="yes"/>
      <point x="24.88" y="23.28"/>
      <point x="57.080000000000005" y="-10.0"/>
    </contour>
  </outline>
</glyph>
<glyph name="v" format="2">
  <advance width="342.58"/>
  <unicode hex="0076"/>
  <outline>
    <contour>
      <point x="158.06" y="-2.3600000000000003" type="line"/>
      <point x="301.97999999999996" y="328.66"/>
      <point x="356.22" y="414.8"/>
      <point x="358.84000000000003" y="534.0" type="curve"/>
      <point x="305.3" y="534.0" type="line"/>
      <point x="301.58" y="428.32"/>
      <point x="271.26" y="379.08000000000004"/>
      <point x="135.14000000000001" y="55.800000000000004" type="curve"/>
      <point x="103.22000000000001" y="535.6" type="line"/>
      <point x="48.879999999999995" y="534.38" type="line"/>
      <point x="94.4" y="-2.3600000000000003" type="line"/>
    </contour>
  </outline>
</glyph>
<glyph name="w" format="2">
  <advance width="545.24"/>
  <unicode hex="0077"/>
  <note>
15
</note>
  <anchor x="240.27999999999997" y="0.0" name="bottom"/>
  <anchor x="303.78000000000003" y="534.0" name="top"/>
  <outline>
    <contour>
      <point x="377.72" y="0.0" type="line"/>
      <point x="517.9599999999999" y="345.64"/>
      <point x="553.9" y="417.58"/>
      <point x="559.6200000000001" y="534.0" type="curve"/>
      <point x="508.72" y="534.0" type="line"/>
      <point x="500.52" y="423.34000000000003"/>
      <point x="479.06" y="369.3"/>
      <point x="355.96" y="59.900000000000006" type="curve"/>
      <point x="335.02000000000004" y="496.44" type="line"/>
      <point x="276.24" y="496.44" type="line"/>
      <point x="224.48" y="348.8"/>
      <point x="173.72" y="204.68"/>
      <point x="121.48000000000002" y="58.72" type="curve"/>
      <point x="98.60000000000001" y="535.6" type="line"/>
      <point x="46.36" y="534.42" type="line"/>
      <point x="79.5" y="0.0" type="line"/>
      <point x="142.76000000000002" y="0.0" type="line"/>
      <point x="193.32" y="139.2"/>
      <point x="244.78" y="280.98"/>
      <point x="294.38" y="419.38" type="curve"/>
      <point x="317.18" y="0.0" type="line"/>
    </contour>
  </outline>
</glyph>
<glyph name="x" format="2">
  <advance width="348.0"/>
  <unicode hex="0078"/>
  <outline>
    <contour>
      <point x="311.0" y="534.0" type="line"/>
      <point x="301.9" y="462.4"/>
      <point x="276.1" y="395.3"/>
      <point x="187.89999999999998" y="304.2" type="curve"/>
      <point x="121.1" y="538.9000000000001" type="line"/>
      <point x="65.8" y="533.8000000000001" type="line"/>
      <point x="145.6" y="276.0" type="line"/>
      <point x="43.5" y="177.2"/>
      <point x="-5.7" y="88.8"/>
      <point x="-14.700000000000001" y="0.0" type="curve"/>
      <point x="38.99999999999999" y="0.0" type="line"/>
      <point x="49.7" y="83.39999999999999"/>
      <point x="87.69999999999999" y="152.0"/>
      <point x="170.7" y="235.9" type="curve"/>
      <point x="240.4" y="-3.0000000000000004" type="line"/>
      <point x="295.7" y="1.1" type="line"/>
      <point x="212.1" y="266.0" type="line"/>
      <point x="318.1" y="366.9"/>
      <point x="356.7" y="464.79999999999995"/>
      <point x="364.4" y="534.0" type="curve"/>
    </contour>
  </outline>
</glyph>
<glyph name="y" format="2">
  <advance width="344.8"/>
  <unicode hex="0079"/>
  <anchor x="111.5" y="-210.0" name="bottom"/>
  <anchor x="202.7" y="534.0" name="top"/>
  <outline>
    <contour>
      <point x="310.90000000000003" y="540.4" type="line"/>
      <point x="288.29999999999995" y="366.09999999999997"/>
      <point x="220.9" y="200.5"/>
      <point x="150.89999999999998" y="49.4" type="curve"/>
      <point x="96.0" y="542.0" type="line"/>
      <point x="42.6" y="539.6" type="line"/>
      <point x="105.0" y="-1.6" type="line"/>
      <point x="122.8" y="-1.6" type="line"/>
      <point x="87.0" y="-77.1"/>
      <point x="48.0" y="-146.0"/>
      <point x="9.6" y="-209.2" type="curve"/>
      <point x="62.0" y="-218.0" type="line"/>
      <point x="190.3" y="6.100000000000003"/>
      <point x="334.59999999999997" y="308.5"/>
      <point x="363.1" y="538.0" type="curve"/>
    </contour>
  </outline>
</glyph>
<glyph name="z" format="2">
  <advance width="346.54"/>
  <unicode hex="007A"/>
  <anchor x="144.72" y="0.0" name="bottom"/>
  <anchor x="169.94" y="275.0" name="center"/>
  <anchor x="217.51999999999998" y="534.0" name="top"/>
  <outline>
    <contour>
      <point x="-9.4" y="0.0" type="line"/>
      <point x="295.32000000000005" y="0.0" type="line"/>
      <point x="302.76" y="46.900000000000006" type="line"/>
      <point x="57.660000000000004" y="46.900000000000006" type="line"/>
      <point x="352.68" y="488.84" type="line"/>
      <point x="360.73999999999995" y="534.0" type="line"/>
      <point x="81.06" y="534.0" type="line"/>
      <point x="73.42" y="486.78" type="line"/>
      <point x="293.56" y="486.78" type="line"/>
      <point x="-3.3200000000000003" y="43.00000000000001" type="line"/>
    </contour>
  </outline>
</glyph>
<glyph name="braceleft" format="2">
  <advance width="250.24"/>
  <unicode hex="007B"/>
  <outline>
    <contour>
      <point x="27.200000000000003" y="-112.60000000000001" type="curve" smooth="yes"/>
      <point x="27.200000000000003" y="-171.8"/>
      <point x="53.519999999999996" y="-210.0"/>
      <point x="107.36000000000001" y="-210.0" type="curve" smooth="yes"/>
      <point x="145.36" y="-210.0" type="line"/>
      <point x="152.92" y="-164.0" type="line"/>
      <point x="125.44000000000001" y="-164.0" type="line" smooth="yes"/>
      <point x="89.12" y="-164.0"/>
      <point x="75.08000000000001" y="-137.39999999999998"/>
      <point x="75.08000000000001" y="-100.08000000000001" type="curve" smooth="yes"/>
      <point x="75.08000000000001" y="5.48"/>
      <point x="145.0" y="98.16"/>
      <point x="145.0" y="201.28" type="curve" smooth="yes"/>
      <point x="145.0" y="230.4"/>
      <point x="138.92000000000002" y="257.28"/>
      <point x="113.92" y="270.59999999999997" type="curve"/>
      <point x="162.11999999999998" y="283.28"/>
      <point x="180.8" y="357.84000000000003"/>
      <point x="180.8" y="417.6" type="curve" smooth="yes"/>
      <point x="180.8" y="463.00000000000006"/>
      <point x="177.64000000000001" y="492.52000000000004"/>
      <point x="177.64000000000001" y="547.8000000000001" type="curve" smooth="yes"/>
      <point x="177.64000000000001" y="615.7600000000001"/>
      <point x="196.59999999999997" y="694.0"/>
      <point x="264.20000000000005" y="694.0" type="curve" smooth="yes"/>
      <point x="288.8" y="694.0" type="line"/>
      <point x="296.03999999999996" y="740.0" type="line"/>
      <point x="261.24" y="740.0" type="line" smooth="yes"/>
      <point x="161.4" y="740.0"/>
      <point x="131.0" y="636.76"/>
      <point x="131.0" y="540.56" type="curve" smooth="yes"/>
      <point x="131.0" y="488.16"/>
      <point x="134.6" y="455.72"/>
      <point x="134.6" y="420.71999999999997" type="curve" smooth="yes"/>
      <point x="134.6" y="365.99999999999994"/>
      <point x="124.24" y="294.84000000000003"/>
      <point x="78.72" y="294.84000000000003" type="curve" smooth="yes"/>
      <point x="64.64" y="294.84000000000003" type="line"/>
      <point x="57.24000000000001" y="248.28" type="line"/>
      <point x="70.2" y="248.28" type="line" smooth="yes"/>
      <point x="93.88000000000001" y="248.28"/>
      <point x="100.56" y="227.84"/>
      <point x="100.56" y="202.8" type="curve" smooth="yes"/>
      <point x="100.56" y="95.24000000000001"/>
      <point x="27.200000000000003" y="9.2"/>
    </contour>
  </outline>
</glyph>
<glyph name="bar" format="2">
  <advance width="155.84"/>
  <unicode hex="007C"/>
  <outline>
    <contour>
      <point x="182.6" y="790.1600000000001" type="line"/>
      <point x="137.20000000000002" y="790.1600000000001" type="line"/>
      <point x="-21.919999999999995" y="-210.0" type="line"/>
      <point x="23.6" y="-210.0" type="line"/>
    </contour>
  </outline>
</glyph>
<glyph name="braceright" format="2">
  <advance width="250.24"/>
  <unicode hex="007D"/>
  <outline>
    <contour>
      <point x="219.88" y="642.6" type="curve" smooth="yes"/>
      <point x="219.88" y="701.96"/>
      <point x="193.4" y="740.1600000000001"/>
      <point x="139.56" y="740.1600000000001" type="curve" smooth="yes"/>
      <point x="101.56" y="740.1600000000001" type="line"/>
      <point x="94.0" y="694.16" type="line"/>
      <point x="119.88000000000001" y="694.16" type="line" smooth="yes"/>
      <point x="156.36" y="694.16"/>
      <point x="170.56" y="667.4000000000001"/>
      <point x="170.56" y="630.08" type="curve" smooth="yes"/>
      <point x="170.56" y="524.2"/>
      <point x="100.64" y="440.48"/>
      <point x="100.64" y="333.99999999999994" type="curve" smooth="yes"/>
      <point x="100.64" y="305.36"/>
      <point x="106.56" y="278.48"/>
      <point x="131.88" y="265.32" type="curve"/>
      <point x="83.68" y="252.48000000000002"/>
      <point x="64.84" y="178.24"/>
      <point x="64.84" y="118.32000000000001" type="curve" smooth="yes"/>
      <point x="64.84" y="72.91999999999999"/>
      <point x="68.0" y="37.63999999999999"/>
      <point x="68.0" y="-17.319999999999997" type="curve" smooth="yes"/>
      <point x="68.0" y="-85.28"/>
      <point x="49.2" y="-163.83999999999997"/>
      <point x="-18.400000000000002" y="-163.83999999999997" type="curve" smooth="yes"/>
      <point x="-41.72" y="-163.83999999999997" type="line"/>
      <point x="-48.959999999999994" y="-210.0" type="line"/>
      <point x="-14.319999999999995" y="-210.0" type="line" smooth="yes"/>
      <point x="85.52" y="-210.0"/>
      <point x="115.92" y="-104.68"/>
      <point x="115.92" y="-13.6" type="curve" smooth="yes"/>
      <point x="115.92" y="43.12"/>
      <point x="112.32" y="81.96000000000001"/>
      <point x="112.32" y="115.84" type="curve" smooth="yes"/>
      <point x="112.32" y="170.24"/>
      <point x="123.0" y="241.08"/>
      <point x="168.20000000000002" y="241.08" type="curve" smooth="yes"/>
      <point x="182.28" y="241.08" type="line"/>
      <point x="189.68" y="287.47999999999996" type="line"/>
      <point x="176.72" y="287.47999999999996" type="line" smooth="yes"/>
      <point x="153.04" y="287.47999999999996"/>
      <point x="146.36" y="307.92"/>
      <point x="146.36" y="332.96000000000004" type="curve" smooth="yes"/>
      <point x="146.36" y="440.68"/>
      <point x="219.88" y="518.56"/>
    </contour>
  </outline>
</glyph>
<glyph name="asciitilde" format="2">
  <advance width="395.28000000000003"/>
  <unicode hex="007E"/>
  <outline>
    <contour>
      <point x="333.96" y="251.20000000000002" type="curve"/>
      <point x="342.2" y="304.24" type="line"/>
      <point x="320.12" y="279.40000000000003"/>
      <point x="300.84" y="266.32"/>
      <point x="276.36" y="266.32" type="curve" smooth="yes"/>
      <point x="215.0" y="266.32"/>
      <point x="198.04" y="373.6"/>
      <point x="135.0" y="373.6" type="curve" smooth="yes"/>
      <point x="107.2" y="373.6"/>
      <point x="85.47999999999999" y="359.16"/>
      <point x="68.64000000000001" y="340.0" type="curve"/>
      <point x="60.2" y="286.8" type="line"/>
      <point x="79.16" y="308.2"/>
      <point x="99.84" y="324.24"/>
      <point x="126.4" y="324.24" type="curve" smooth="yes"/>
      <point x="184.24" y="324.24"/>
      <point x="201.44" y="216.96"/>
      <point x="269.12" y="216.96" type="curve" smooth="yes"/>
      <point x="294.96000000000004" y="216.96"/>
      <point x="313.76" y="228.44000000000003"/>
    </contour>
  </outline>
</glyph>
<glyph name="cent" format="2">
  <advance width="434.64"/>
  <unicode hex="00A2"/>
  <outline>
    <contour>
      <point x="168.28" y="-105.12" type="line"/>
      <point x="213.36" y="-105.12" type="line"/>
      <point x="228.56" y="-8.520000000000001" type="line"/>
      <point x="267.16" y="-6.359999999999999"/>
      <point x="300.68" y="-0.16000000000000014"/>
      <point x="322.12" y="7.080000000000001" type="curve"/>
      <point x="319.4" y="55.720000000000006" type="line"/>
      <point x="295.0" y="49.080000000000005"/>
      <point x="257.28" y="42.32"/>
      <point x="230.4" y="42.32" type="curve" smooth="yes"/>
      <point x="160.96" y="42.32"/>
      <point x="131.88" y="85.80000000000001"/>
      <point x="131.88" y="161.4" type="curve" smooth="yes"/>
      <point x="131.88" y="343.32"/>
      <point x="202.84" y="490.03999999999996"/>
      <point x="301.35999999999996" y="490.03999999999996" type="curve" smooth="yes"/>
      <point x="330.96" y="490.03999999999996"/>
      <point x="356.04" y="484.36"/>
      <point x="379.88" y="477.24" type="curve"/>
      <point x="396.76000000000005" y="528.9200000000001" type="line"/>
      <point x="373.0" y="535.88"/>
      <point x="349.28000000000003" y="541.3599999999999"/>
      <point x="319.76000000000005" y="542.5600000000001" type="curve"/>
      <point x="335.64000000000004" y="638.8399999999999" type="line"/>
      <point x="290.56" y="638.8399999999999" type="line"/>
      <point x="274.24" y="539.4" type="line"/>
      <point x="154.48000000000002" y="521.48"/>
      <point x="77.04" y="353.08000000000004"/>
      <point x="77.04" y="145.0" type="curve" smooth="yes"/>
      <point x="77.04" y="42.120000000000005"/>
      <point x="122.56" y="2.3600000000000003"/>
      <point x="182.92000000000002" y="-6.08" type="curve"/>
    </contour>
  </outline>
</glyph>
<glyph name="sterling" format="2">
  <advance width="434.88"/>
  <unicode hex="00A3"/>
  <outline>
    <contour>
      <point x="36.68" y="0.0" type="line"/>
      <point x="337.40000000000003" y="0.0" type="line"/>
      <point x="345.0" y="49.400000000000006" type="line"/>
      <point x="107.16" y="49.400000000000006" type="line"/>
      <point x="169.56" y="121.64000000000001"/>
      <point x="207.6" y="188.48000000000002"/>
      <point x="207.6" y="289.23999999999995" type="curve" smooth="yes"/>
      <point x="207.6" y="349.6"/>
      <point x="185.32000000000002" y="402.91999999999996"/>
      <point x="185.32000000000002" y="463.56000000000006" type="curve" smooth="yes"/>
      <point x="185.32000000000002" y="602.48"/>
      <point x="255.84" y="657.64"/>
      <point x="322.88" y="657.64" type="curve" smooth="yes"/>
      <point x="357.04" y="657.64"/>
      <point x="388.4" y="652.24"/>
      <point x="422.12000000000006" y="638.52" type="curve"/>
      <point x="440.04" y="685.1999999999999" type="line"/>
      <point x="404.8" y="701.88"/>
      <point x="363.4" y="710.0"/>
      <point x="326.88000000000005" y="710.0" type="curve" smooth="yes"/>
      <point x="217.20000000000002" y="710.0"/>
      <point x="134.4" y="626.92"/>
      <point x="134.4" y="472.36000000000007" type="curve" smooth="yes"/>
      <point x="134.4" y="391.68"/>
      <point x="157.6" y="353.31999999999994"/>
      <point x="157.6" y="281.92" type="curve" smooth="yes"/>
      <point x="157.6" y="178.56"/>
      <point x="106.88" y="111.76"/>
      <point x="41.04" y="41.400000000000006" type="curve"/>
    </contour>
    <contour>
      <point x="75.19999999999999" y="346.68" type="line"/>
      <point x="353.24" y="346.92" type="line"/>
      <point x="359.44" y="388.48" type="line"/>
      <point x="81.6" y="388.48" type="line"/>
    </contour>
  </outline>
</glyph>
<glyph name="currency" format="2">
  <advance width="391.56"/>
  <unicode hex="00A4"/>
  <outline>
    <contour>
      <point x="40.2" y="109.24" type="line"/>
      <point x="115.96000000000001" y="180.72" type="line"/>
      <point x="131.44" y="164.32"/>
      <point x="153.23999999999998" y="155.48"/>
      <point x="179.35999999999999" y="155.48" type="curve" smooth="yes"/>
      <point x="205.07999999999998" y="155.48"/>
      <point x="230.12" y="164.48"/>
      <point x="251.16" y="180.6" type="curve"/>
      <point x="304.68" y="109.24" type="line"/>
      <point x="341.04" y="143.16000000000003" type="line"/>
      <point x="289.0" y="212.12" type="line"/>
      <point x="311.96" y="238.04"/>
      <point x="327.32000000000005" y="273.36"/>
      <point x="327.64" y="311.56" type="curve" smooth="yes"/>
      <point x="327.96" y="332.88"/>
      <point x="323.12000000000006" y="352.28"/>
      <point x="314.12000000000006" y="368.92" type="curve"/>
      <point x="387.56" y="437.88" type="line"/>
      <point x="362.20000000000005" y="471.8" type="line"/>
      <point x="286.52" y="400.92" type="line"/>
      <point x="270.47999999999996" y="417.2"/>
      <point x="248.32" y="427.0"/>
      <point x="222.4" y="427.0" type="curve" smooth="yes"/>
      <point x="196.11999999999998" y="427.0"/>
      <point x="170.96" y="417.03999999999996"/>
      <point x="149.68" y="400.8" type="curve"/>
      <point x="97.68" y="471.8" type="line"/>
      <point x="62.28" y="437.88" type="line"/>
      <point x="112.52000000000001" y="368.96000000000004" type="line"/>
      <point x="89.64000000000001" y="343.03999999999996"/>
      <point x="75.24000000000001" y="308.76"/>
      <point x="74.92" y="271.2" type="curve" smooth="yes"/>
      <point x="74.60000000000001" y="248.8"/>
      <point x="79.28" y="228.64000000000001"/>
      <point x="88.32000000000001" y="211.92" type="curve"/>
      <point x="15.72" y="143.16000000000003" type="line"/>
    </contour>
    <contour>
      <point x="186.39999999999998" y="195.07999999999998" type="curve" smooth="yes"/>
      <point x="143.04" y="195.07999999999998"/>
      <point x="112.84" y="229.11999999999998"/>
      <point x="113.32" y="274.72" type="curve" smooth="yes"/>
      <point x="113.8" y="335.8"/>
      <point x="164.12" y="387.24"/>
      <point x="216.28" y="387.24" type="curve" smooth="yes"/>
      <point x="260.32" y="387.24"/>
      <point x="289.71999999999997" y="352.79999999999995"/>
      <point x="289.24" y="307.08" type="curve" smooth="yes"/>
      <point x="288.76" y="246.2"/>
      <point x="239.44" y="195.07999999999998"/>
    </contour>
  </outline>
</glyph>
<glyph name="yen" format="2">
  <advance width="435.0"/>
  <unicode hex="00A5"/>
  <outline>
    <contour>
      <point x="91.3" y="345.4" type="line"/>
      <point x="204.1" y="345.4" type="line"/>
      <point x="186.3" y="235.10000000000002" type="line"/>
      <point x="74.8" y="235.10000000000002" type="line"/>
      <point x="68.0" y="196.70000000000002" type="line"/>
      <point x="180.29999999999998" y="196.70000000000002" type="line"/>
      <point x="149.3" y="0.0" type="line"/>
      <point x="202.29999999999998" y="0.0" type="line"/>
      <point x="233.5" y="196.70000000000002" type="line"/>
      <point x="349.4" y="196.70000000000002" type="line"/>
      <point x="355.2" y="235.10000000000002" type="line"/>
      <point x="239.3" y="235.10000000000002" type="line"/>
      <point x="257.1" y="345.4" type="line"/>
      <point x="372.40000000000003" y="345.4" type="line"/>
      <point x="379.0" y="383.7" type="line"/>
      <point x="264.4" y="383.7" type="line"/>
      <point x="444.3" y="699.4" type="line"/>
      <point x="390.5" y="706.4" type="line"/>
      <point x="244.70000000000002" y="429.5" type="line"/>
      <point x="180.10000000000002" y="702.4" type="line"/>
      <point x="125.2" y="698.9" type="line"/>
      <point x="210.1" y="383.7" type="line"/>
      <point x="98.1" y="383.7" type="line"/>
    </contour>
  </outline>
</glyph>
<glyph name="brokenbar" format="2">
  <advance width="157.28"/>
  <unicode hex="00A6"/>
  <outline>
    <contour>
      <point x="119.19999999999999" y="391.0" type="line"/>
      <point x="183.56" y="790.1600000000001" type="line"/>
      <point x="138.16" y="790.1600000000001" type="line"/>
      <point x="73.8" y="391.0" type="line"/>
    </contour>
    <contour>
      <point x="42.28" y="190.16" type="line"/>
      <point x="-21.279999999999998" y="-210.0" type="line"/>
      <point x="24.080000000000005" y="-210.0" type="line"/>
      <point x="87.80000000000001" y="190.16" type="line"/>
    </contour>
  </outline>
</glyph>
<glyph name="section" format="2">
  <advance width="402.18"/>
  <unicode hex="00A7"/>
  <outline>
    <contour>
      <point x="2.7600000000000002" y="-125.16000000000001" type="curve"/>
      <point x="-22.36" y="-175.76" type="line"/>
      <point x="13.42" y="-206.04"/>
      <point x="51.260000000000005" y="-220.0"/>
      <point x="95.5" y="-220.0" type="curve" smooth="yes"/>
      <point x="236.0" y="-220.0"/>
      <point x="349.36" y="-56.92"/>
      <point x="349.36" y="138.67999999999998" type="curve" smooth="yes"/>
      <point x="349.36" y="310.26"/>
      <point x="250.92000000000002" y="425.09999999999997"/>
      <point x="250.92000000000002" y="571.12" type="curve" smooth="yes"/>
      <point x="250.92000000000002" y="640.48"/>
      <point x="281.12" y="691.64"/>
      <point x="330.92" y="691.64" type="curve" smooth="yes"/>
      <point x="347.14" y="691.64"/>
      <point x="360.88" y="686.76"/>
      <point x="377.03999999999996" y="679.0" type="curve"/>
      <point x="398.20000000000005" y="732.88" type="line"/>
      <point x="373.84" y="743.94"/>
      <point x="339.91999999999996" y="749.1600000000001"/>
      <point x="311.56" y="749.1600000000001" type="curve" smooth="yes"/>
      <point x="163.16" y="749.1600000000001"/>
      <point x="55.940000000000005" y="597.68"/>
      <point x="55.940000000000005" y="397.6" type="curve" smooth="yes"/>
      <point x="55.940000000000005" y="208.79999999999998"/>
      <point x="152.64000000000001" y="77.72"/>
      <point x="152.64000000000001" y="-53.519999999999996" type="curve" smooth="yes"/>
      <point x="152.64000000000001" y="-116.96000000000001"/>
      <point x="119.2" y="-162.12"/>
      <point x="75.11999999999999" y="-162.12" type="curve" smooth="yes"/>
      <point x="49.18" y="-162.12"/>
      <point x="22.58" y="-147.10000000000002"/>
    </contour>
    <contour>
      <point x="272.02" y="707.8199999999999" type="curve"/>
      <point x="231.44" y="679.16"/>
      <point x="211.44" y="622.88"/>
      <point x="211.44" y="567.88" type="curve" smooth="yes"/>
      <point x="211.44" y="403.16"/>
      <point x="307.52000000000004" y="295.0"/>
      <point x="307.52000000000004" y="122.47999999999999" type="curve" smooth="yes"/>
      <point x="307.52000000000004" y="-26.359999999999996"/>
      <point x="222.12" y="-170.04"/>
      <point x="121.67999999999999" y="-180.56" type="curve"/>
      <point x="170.54" y="-151.7"/>
      <point x="193.28" y="-96.08000000000001"/>
      <point x="193.28" y="-38.959999999999994" type="curve" smooth="yes"/>
      <point x="193.28" y="99.22"/>
      <point x="98.52" y="235.4"/>
      <point x="98.52" y="396.8" type="curve" smooth="yes"/>
      <point x="98.52" y="554.24"/>
      <point x="162.34" y="679.1999999999999"/>
    </contour>
  </outline>
</glyph>
<glyph name="copyright" format="2">
  <advance width="505.47999999999996"/>
  <unicode hex="00A9"/>
  <outline>
    <contour>
      <point x="220.86" y="-10.079999999999998" type="curve" smooth="yes"/>
      <point x="398.67999999999995" y="-10.24"/>
      <point x="483.94" y="249.58"/>
      <point x="483.94" y="490.78" type="curve" smooth="yes"/>
      <point x="483.94" y="632.26"/>
      <point x="424.56" y="710.9399999999999"/>
      <point x="309.35999999999996" y="711.0999999999999" type="curve" smooth="yes"/>
      <point x="131.67999999999998" y="711.26"/>
      <point x="45.38" y="452.24"/>
      <point x="45.38" y="210.32" type="curve" smooth="yes"/>
      <point x="45.38" y="69.08"/>
      <point x="104.60000000000001" y="-9.92"/>
    </contour>
    <contour>
      <point x="251.01999999999998" y="160.15999999999997" type="curve" smooth="yes"/>
      <point x="273.46" y="160.15999999999997"/>
      <point x="299.3" y="165.12"/>
      <point x="317.22" y="171.46" type="curve"/>
      <point x="315.66" y="206.5" type="line"/>
      <point x="300.88" y="201.6"/>
      <point x="278.38" y="198.35999999999999"/>
      <point x="260.62" y="198.35999999999999" type="curve" smooth="yes"/>
      <point x="222.48000000000002" y="198.35999999999999"/>
      <point x="200.7" y="227.66"/>
      <point x="200.7" y="273.9" type="curve" smooth="yes"/>
      <point x="200.7" y="382.12"/>
      <point x="244.62" y="489.86"/>
      <point x="304.3" y="489.86" type="curve" smooth="yes"/>
      <point x="322.8" y="489.86"/>
      <point x="337.88" y="488.2"/>
      <point x="354.53999999999996" y="482.7" type="curve"/>
      <point x="366.14" y="521.1200000000001" type="line"/>
      <point x="349.40000000000003" y="527.0999999999999"/>
      <point x="329.47999999999996" y="530.14"/>
      <point x="305.98" y="530.14" type="curve" smooth="yes"/>
      <point x="225.7" y="530.14"/>
      <point x="160.54" y="417.42"/>
      <point x="160.54" y="273.68" type="curve" smooth="yes"/>
      <point x="160.54" y="199.02"/>
      <point x="192.74" y="160.15999999999997"/>
    </contour>
    <contour>
      <point x="223.14" y="17.620000000000005" type="curve" smooth="yes"/>
      <point x="124.05999999999999" y="17.620000000000005"/>
      <point x="74.62" y="84.64"/>
      <point x="74.62" y="213.76000000000002" type="curve" smooth="yes"/>
      <point x="74.62" y="431.3"/>
      <point x="147.59999999999997" y="683.48"/>
      <point x="306.74000000000007" y="683.48" type="curve" smooth="yes"/>
      <point x="405.02" y="683.48"/>
      <point x="454.7" y="616.38"/>
      <point x="454.7" y="487.42" type="curve" smooth="yes"/>
      <point x="454.7" y="270.04"/>
      <point x="382.12" y="17.620000000000005"/>
    </contour>
  </outline>
</glyph>
<glyph name="ordfeminine" format="2">
  <advance width="276.76"/>
  <unicode hex="00AA"/>
  <outline>
    <contour>
      <point x="39.08" y="282.64000000000004" type="line"/>
      <point x="242.20000000000002" y="282.64000000000004" type="line"/>
      <point x="247.52" y="314.92" type="line"/>
      <point x="44.4" y="314.92" type="line"/>
    </contour>
    <component base="a.superior" xOffset="10.879999999999999"/>
  </outline>
</glyph>
<glyph name="logicalnot" format="2">
  <advance width="390.6"/>
  <unicode hex="00AC"/>
  <outline>
    <contour>
      <point x="60.84" y="367.24" type="line"/>
      <point x="311.20000000000005" y="367.24" type="line"/>
      <point x="281.44" y="176.32" type="line"/>
      <point x="328.52000000000004" y="176.32" type="line"/>
      <point x="366.03999999999996" y="413.84000000000003" type="line"/>
      <point x="68.60000000000001" y="413.84000000000003" type="line"/>
    </contour>
  </outline>
</glyph>
<glyph name="registered" format="2">
  <advance width="458.2"/>
  <unicode hex="00AE"/>
  <outline>
    <contour>
      <point x="225.72" y="208.84" type="curve" smooth="yes"/>
      <point x="371.20000000000005" y="208.84"/>
      <point x="470.4" y="433.00000000000006"/>
      <point x="470.4" y="698.36" type="curve" smooth="yes"/>
      <point x="470.4" y="824.56"/>
      <point x="419.1" y="893.84"/>
      <point x="319.32" y="893.84" type="curve" smooth="yes"/>
      <point x="173.83999999999997" y="893.84"/>
      <point x="75.72000000000001" y="669.1800000000001"/>
      <point x="75.72000000000001" y="404.32" type="curve" smooth="yes"/>
      <point x="75.72000000000001" y="278.2"/>
      <point x="125.86" y="208.84"/>
    </contour>
    <contour>
      <point x="227.00000000000003" y="233.88" type="curve" smooth="yes"/>
      <point x="143.42" y="233.88"/>
      <point x="102.41999999999999" y="295.8"/>
      <point x="102.41999999999999" y="405.1" type="curve" smooth="yes"/>
      <point x="102.41999999999999" y="651.6600000000001"/>
      <point x="189.4" y="868.38"/>
      <point x="318.12" y="868.38" type="curve" smooth="yes"/>
      <point x="401.70000000000005" y="868.38"/>
      <point x="443.7" y="806.8799999999999"/>
      <point x="443.7" y="697.08" type="curve" smooth="yes"/>
      <point x="443.7" y="450.52"/>
      <point x="355.64000000000004" y="233.88"/>
    </contour>
    <contour>
      <point x="172.28000000000003" y="394.54" type="line"/>
      <point x="208.56" y="394.54" type="line"/>
      <point x="229.84" y="525.9399999999999" type="line"/>
      <point x="245.16" y="524.3400000000001"/>
      <point x="258.16" y="522.66"/>
      <point x="278.86000000000007" y="523.5" type="curve"/>
      <point x="292.0" y="528.72" type="line"/>
      <point x="345.46" y="540.26"/>
      <point x="373.4" y="586.0400000000001"/>
      <point x="373.4" y="647.4" type="curve" smooth="yes"/>
      <point x="373.4" y="705.9"/>
      <point x="347.74" y="727.1800000000001"/>
      <point x="293.84000000000003" y="727.1800000000001" type="curve" smooth="yes"/>
      <point x="268.78000000000003" y="727.1800000000001"/>
      <point x="249.23999999999998" y="725.52"/>
      <point x="224.14" y="721.4399999999999" type="curve"/>
    </contour>
    <contour>
      <point x="269.68" y="553.74" type="curve" smooth="yes"/>
      <point x="256.64" y="553.74"/>
      <point x="246.64" y="555.08"/>
      <point x="234.57999999999998" y="556.0" type="curve"/>
      <point x="255.36" y="691.18" type="line"/>
      <point x="270.82" y="693.36"/>
      <point x="277.6" y="694.36"/>
      <point x="292.94000000000005" y="694.36" type="curve" smooth="yes"/>
      <point x="324.62" y="694.36"/>
      <point x="337.88" y="679.8199999999999"/>
      <point x="337.88" y="646.8" type="curve" smooth="yes"/>
      <point x="337.88" y="587.98"/>
      <point x="315.24" y="553.74"/>
    </contour>
    <contour>
      <point x="341.26" y="391.40000000000003" type="curve" smooth="yes"/>
      <point x="344.06" y="391.40000000000003"/>
      <point x="349.61999999999995" y="392.22"/>
      <point x="353.16" y="393.70000000000005" type="curve"/>
      <point x="357.22" y="430.53999999999996" type="line"/>
      <point x="355.06" y="429.36"/>
      <point x="353.05999999999995" y="429.36"/>
      <point x="351.82" y="429.36" type="curve" smooth="yes"/>
      <point x="334.42" y="429.36"/>
      <point x="320.24" y="460.68"/>
      <point x="305.44" y="542.94" type="curve"/>
      <point x="271.84000000000003" y="534.66" type="line"/>
      <point x="293.6" y="413.2"/>
      <point x="312.62000000000006" y="391.40000000000003"/>
    </contour>
  </outline>
</glyph>
<glyph name="degree" format="2">
  <advance width="235.20000000000002"/>
  <unicode hex="00B0"/>
  <outline>
    <contour>
      <point x="151.60000000000002" y="487.91999999999996" type="curve" smooth="yes"/>
      <point x="217.32000000000002" y="487.91999999999996"/>
      <point x="260.64000000000004" y="559.76"/>
      <point x="260.64000000000004" y="634.4799999999999" type="curve" smooth="yes"/>
      <point x="260.64000000000004" y="685.3199999999999"/>
      <point x="237.20000000000002" y="724.3199999999999"/>
      <point x="188.16" y="724.3199999999999" type="curve" smooth="yes"/>
      <point x="121.52" y="724.3199999999999"/>
      <point x="79.04" y="650.1199999999999"/>
      <point x="79.04" y="575.7199999999999" type="curve" smooth="yes"/>
      <point x="79.04" y="525.72"/>
      <point x="102.56" y="487.91999999999996"/>
    </contour>
    <contour>
      <point x="157.8" y="530.48" type="curve" smooth="yes"/>
      <point x="130.08" y="530.48"/>
      <point x="117.08000000000001" y="552.72"/>
      <point x="117.08000000000001" y="583.48" type="curve" smooth="yes"/>
      <point x="117.08000000000001" y="633.4"/>
      <point x="142.48000000000002" y="681.12"/>
      <point x="181.72" y="681.12" type="curve" smooth="yes"/>
      <point x="210.04" y="681.12"/>
      <point x="222.72" y="657.48"/>
      <point x="222.72" y="626.68" type="curve" smooth="yes"/>
      <point x="222.72" y="576.8"/>
      <point x="196.96" y="530.48"/>
    </contour>
  </outline>
</glyph>
<glyph name="plusminus" format="2">
  <advance width="391.96"/>
  <unicode hex="00B1"/>
  <outline>
    <contour>
      <point x="313.28000000000003" y="59.160000000000004" type="line"/>
      <point x="321.04" y="108.0" type="line"/>
      <point x="193.04" y="108.0" type="line"/>
      <point x="222.04" y="290.12" type="line"/>
      <point x="349.40000000000003" y="290.12" type="line"/>
      <point x="357.16" y="338.96000000000004" type="line"/>
      <point x="229.79999999999998" y="338.96000000000004" type="line"/>
      <point x="259.24" y="509.2" type="line"/>
      <point x="212.0" y="509.2" type="line"/>
      <point x="183.12" y="338.96000000000004" type="line"/>
      <point x="54.6" y="338.96000000000004" type="line"/>
      <point x="46.839999999999996" y="290.12" type="line"/>
      <point x="174.79999999999998" y="290.12" type="line"/>
      <point x="145.72" y="108.0" type="line"/>
      <point x="18.479999999999997" y="108.0" type="line"/>
      <point x="10.72" y="59.160000000000004" type="line"/>
    </contour>
  </outline>
</glyph>
<glyph name="uni00B2" format="2">
  <advance width="277.3"/>
  <unicode hex="00B2"/>
  <outline>
    <contour>
      <point x="54.1" y="367.98" type="line"/>
      <point x="249.96" y="367.98" type="line"/>
      <point x="254.38" y="399.17999999999995" type="line"/>
      <point x="106.16000000000001" y="399.17999999999995" type="line"/>
      <point x="190.57999999999998" y="498.82"/>
      <point x="272.36" y="599.86"/>
      <point x="272.36" y="698.12" type="curve" smooth="yes"/>
      <point x="272.36" y="745.4799999999999"/>
      <point x="246.34" y="772.7800000000001"/>
      <point x="201.07999999999998" y="772.7800000000001" type="curve" smooth="yes"/>
      <point x="169.3" y="772.7800000000001"/>
      <point x="135.83999999999997" y="760.4399999999999"/>
      <point x="108.89999999999999" y="738.02" type="curve"/>
      <point x="120.26" y="707.0600000000001" type="line"/>
      <point x="145.96" y="726.98"/>
      <point x="165.96" y="734.48"/>
      <point x="188.9" y="734.48" type="curve" smooth="yes"/>
      <point x="217.07999999999998" y="734.48"/>
      <point x="231.84" y="715.36"/>
      <point x="231.84" y="683.2800000000001" type="curve" smooth="yes"/>
      <point x="231.0" y="600.6"/>
      <point x="147.06" y="491.5"/>
      <point x="56.36" y="394.62" type="curve"/>
    </contour>
  </outline>
</glyph>
<glyph name="uni00B3" format="2">
  <advance width="279.1"/>
  <unicode hex="00B3"/>
  <outline>
    <contour>
      <point x="43.8" y="396.59999999999997" type="line"/>
      <point x="66.8" y="374.6"/>
      <point x="99.2" y="364.2"/>
      <point x="133.79999999999998" y="364.2" type="curve" smooth="yes"/>
      <point x="217.0" y="364.2"/>
      <point x="268.9" y="424.79999999999995"/>
      <point x="268.9" y="505.49999999999994" type="curve" smooth="yes"/>
      <point x="268.9" y="542.9"/>
      <point x="252.8" y="569.6"/>
      <point x="228.8" y="578.2" type="curve"/>
      <point x="261.3" y="594.7"/>
      <point x="287.0" y="635.1999999999999"/>
      <point x="287.0" y="687.6" type="curve" smooth="yes"/>
      <point x="287.0" y="741.1999999999999"/>
      <point x="252.9" y="773.5"/>
      <point x="197.6" y="773.5" type="curve" smooth="yes"/>
      <point x="168.0" y="773.5"/>
      <point x="137.9" y="766.9"/>
      <point x="110.0" y="750.0" type="curve"/>
      <point x="119.8" y="722.0" type="line"/>
      <point x="141.8" y="733.6999999999999"/>
      <point x="166.2" y="738.7"/>
      <point x="188.3" y="738.7" type="curve" smooth="yes"/>
      <point x="224.9" y="738.7"/>
      <point x="248.4" y="717.7"/>
      <point x="248.4" y="677.3000000000001" type="curve" smooth="yes"/>
      <point x="248.4" y="627.4000000000001"/>
      <point x="218.6" y="591.2"/>
      <point x="181.70000000000002" y="591.2" type="curve" smooth="yes"/>
      <point x="134.8" y="591.2" type="line"/>
      <point x="130.20000000000002" y="563.0" type="line"/>
      <point x="177.5" y="563.0" type="line" smooth="yes"/>
      <point x="213.6" y="563.0"/>
      <point x="233.0" y="544.0"/>
      <point x="233.0" y="503.4" type="curve" smooth="yes"/>
      <point x="233.0" y="448.4"/>
      <point x="198.9" y="397.90000000000003"/>
      <point x="133.1" y="397.90000000000003" type="curve" smooth="yes"/>
      <point x="105.4" y="397.90000000000003"/>
      <point x="82.6" y="406.5"/>
      <point x="63.5" y="424.1" type="curve"/>
    </contour>
  </outline>
</glyph>
<glyph name="uni00B5" format="2">
  <advance width="393.32"/>
  <unicode hex="00B5"/>
  <outline>
    <contour>
      <point x="-20.080000000000002" y="-210.0" type="line"/>
      <point x="31.400000000000006" y="-210.0" type="line"/>
      <point x="68.4" y="23.84" type="line"/>
      <point x="77.44000000000001" y="1.4"/>
      <point x="98.2" y="-10.0"/>
      <point x="128.24" y="-10.0" type="curve" smooth="yes"/>
      <point x="170.48000000000002" y="-10.0"/>
      <point x="208.4" y="4.88"/>
      <point x="252.20000000000002" y="35.2" type="curve"/>
      <point x="256.88" y="5.2"/>
      <point x="276.92" y="-10.0"/>
      <point x="305.96000000000004" y="-10.0" type="curve" smooth="yes"/>
      <point x="319.08" y="-10.0"/>
      <point x="341.32" y="-4.72"/>
      <point x="355.92" y="3.88" type="curve"/>
      <point x="355.67999999999995" y="44.6" type="line"/>
      <point x="344.76" y="40.28"/>
      <point x="333.47999999999996" y="37.88"/>
      <point x="327.44" y="37.88" type="curve" smooth="yes"/>
      <point x="308.96" y="37.88"/>
      <point x="302.16" y="48.36"/>
      <point x="302.16" y="67.12" type="curve" smooth="yes"/>
      <point x="302.16" y="77.36"/>
      <point x="304.44000000000005" y="97.2"/>
      <point x="374.28000000000003" y="534.0" type="curve"/>
      <point x="322.08000000000004" y="534.0" type="line"/>
      <point x="250.4" y="75.76" type="line"/>
      <point x="211.12000000000003" y="50.96"/>
      <point x="171.96" y="37.96"/>
      <point x="138.72" y="37.96" type="curve" smooth="yes"/>
      <point x="100.16" y="37.96"/>
      <point x="80.75999999999999" y="58.60000000000001"/>
      <point x="81.08" y="91.8" type="curve" smooth="yes"/>
      <point x="84.75999999999999" y="125.24000000000001"/>
      <point x="102.76" y="245.12"/>
      <point x="148.44" y="534.0" type="curve"/>
      <point x="96.24000000000001" y="534.0" type="line"/>
    </contour>
  </outline>
</glyph>
<glyph name="paragraph" format="2">
  <advance width="457.36"/>
  <unicode hex="00B6"/>
  <outline>
    <contour>
      <point x="282.03999999999996" y="-210.0" type="line"/>
      <point x="324.56" y="-210.0" type="line"/>
      <point x="475.08" y="740.0" type="line"/>
      <point x="432.56" y="740.0" type="line"/>
    </contour>
    <contour>
      <point x="183.4" y="231.24" type="line"/>
      <point x="128.64000000000001" y="242.72"/>
      <point x="97.44000000000001" y="296.08"/>
      <point x="97.44000000000001" y="376.47999999999996" type="curve" smooth="yes"/>
      <point x="97.44000000000001" y="536.4399999999999"/>
      <point x="167.64" y="687.32"/>
      <point x="296.71999999999997" y="691.96" type="curve"/>
      <point x="154.24" y="-210.0" type="line"/>
      <point x="196.76000000000002" y="-210.0" type="line"/>
      <point x="347.28" y="740.0" type="line"/>
      <point x="318.28000000000003" y="740.0" type="line" smooth="yes"/>
      <point x="147.6" y="740.0"/>
      <point x="50.84" y="568.36"/>
      <point x="50.84" y="373.52000000000004" type="curve" smooth="yes"/>
      <point x="50.84" y="275.28"/>
      <point x="91.84" y="207.64000000000001"/>
      <point x="171.6" y="190.88" type="curve"/>
    </contour>
  </outline>
</glyph>
<glyph name="periodcentered" format="2">
  <advance width="137.99999999999997"/>
  <unicode hex="00B7"/>
  <outline>
    <contour>
      <point x="39.58" y="286.46000000000004" type="curve" smooth="yes"/>
      <point x="38.1" y="265.26000000000005"/>
      <point x="44.56" y="257.7"/>
      <point x="65.82" y="257.7" type="curve" smooth="yes"/>
      <point x="94.24000000000001" y="257.7"/>
      <point x="101.74000000000001" y="275.5"/>
      <point x="103.45999999999998" y="303.44" type="curve" smooth="yes"/>
      <point x="104.94" y="323.86"/>
      <point x="98.86" y="332.0"/>
      <point x="77.89999999999999" y="332.0" type="curve" smooth="yes"/>
      <point x="49.98" y="332.0"/>
      <point x="41.3" y="314.20000000000005"/>
    </contour>
  </outline>
</glyph>
<glyph name="uni00B9" format="2">
  <advance width="270.08"/>
  <unicode hex="00B9"/>
  <outline>
    <contour>
      <point x="44.04" y="370.0" type="line"/>
      <point x="260.92" y="370.0" type="line"/>
      <point x="266.04" y="402.6" type="line"/>
      <point x="183.08" y="402.6" type="line"/>
      <point x="242.6" y="769.12" type="line"/>
      <point x="221.08" y="769.12" type="line"/>
      <point x="94.44" y="697.9599999999999" type="line"/>
      <point x="100.76" y="664.48" type="line"/>
      <point x="196.16000000000003" y="719.7199999999999" type="line"/>
      <point x="144.76" y="402.6" type="line"/>
      <point x="49.32" y="402.6" type="line"/>
    </contour>
  </outline>
</glyph>
<glyph name="ordmasculine" format="2">
  <advance width="263.12"/>
  <unicode hex="00BA"/>
  <outline>
    <contour>
      <point x="37.879999999999995" y="282.64000000000004" type="line"/>
      <point x="223.76" y="282.64000000000004" type="line"/>
      <point x="228.44" y="314.92" type="line"/>
      <point x="42.56" y="314.92" type="line"/>
    </contour>
    <component base="o.superior" xOffset="14.4"/>
  </outline>
</glyph>
<glyph name="AE" format="2">
  <advance width="620.82"/>
  <unicode hex="00C6"/>
  <anchor x="278.77768000000003" y="0.0" name="bottom"/>
  <anchor x="397.62" y="700.0" name="top"/>
  <outline>
    <contour>
      <point x="251.78" y="0.0" type="line"/>
      <point x="556.9599999999999" y="0.0" type="line"/>
      <point x="564.76" y="49.699999999999996" type="line"/>
      <point x="311.47999999999996" y="49.699999999999996" type="line"/>
      <point x="354.34" y="323.16" type="line"/>
      <point x="572.8800000000001" y="323.16" type="line"/>
      <point x="580.8799999999999" y="371.86" type="line"/>
      <point x="362.24000000000007" y="371.86" type="line"/>
      <point x="406.2" y="649.8000000000002" type="line"/>
      <point x="646.9200000000001" y="649.8000000000002" type="line"/>
      <point x="655.7" y="700.0" type="line"/>
      <point x="326.85999999999996" y="700.0" type="line"/>
      <point x="-38.160000000000004" y="0.0" type="line"/>
      <point x="20.860000000000003" y="0.0" type="line"/>
      <point x="173.21999999999997" y="290.36" type="line"/>
      <point x="297.04" y="290.36" type="line"/>
    </contour>
    <contour>
      <point x="195.36" y="338.46000000000004" type="line"/>
      <point x="353.81999999999994" y="652.1600000000001" type="line"/>
      <point x="304.64000000000004" y="338.46000000000004" type="line"/>
    </contour>
  </outline>
</glyph>
<glyph name="multiply" format="2">
  <advance width="372.76"/>
  <unicode hex="00D7"/>
  <outline>
    <contour>
      <point x="56.04" y="90.9" type="line"/>
      <point x="184.3" y="258.23999999999995" type="line"/>
      <point x="257.72" y="91.61999999999999" type="line"/>
      <point x="296.21999999999997" y="124.22000000000001" type="line"/>
      <point x="220.0" y="297.38000000000005" type="line"/>
      <point x="354.48" y="473.62" type="line"/>
      <point x="324.48" y="505.94" type="line"/>
      <point x="195.62000000000003" y="337.64" type="line"/>
      <point x="120.8" y="505.94" type="line"/>
      <point x="82.19999999999999" y="473.73999999999995" type="line"/>
      <point x="159.14" y="298.67999999999995" type="line"/>
      <point x="25.94" y="123.02000000000001" type="line"/>
    </contour>
  </outline>
</glyph>
<glyph name="Oslash" format="2">
  <advance width="481.0"/>
  <unicode hex="00D8"/>
  <anchor x="299.4" y="700.0" name="top"/>
  <outline>
    <contour>
      <point x="508.30000000000007" y="710.0" type="line"/>
      <point x="461.9" y="710.0" type="line"/>
      <point x="406.40000000000003" y="630.9000000000001" type="line"/>
      <point x="404.1" y="631.3000000000001" type="line"/>
      <point x="78.69999999999999" y="110.89999999999999" type="line"/>
      <point x="76.60000000000001" y="111.5" type="line"/>
      <point x="-4.4" y="-8.0" type="line"/>
      <point x="41.9" y="-8.0" type="line"/>
      <point x="97.1" y="70.8" type="line"/>
      <point x="99.39999999999999" y="70.4" type="line"/>
      <point x="426.1" y="592.3" type="line"/>
      <point x="428.2" y="591.7" type="line"/>
    </contour>
    <contour>
      <point x="207.0" y="-9.6" type="curve" smooth="yes"/>
      <point x="372.8" y="-9.6"/>
      <point x="467.40000000000003" y="243.10000000000002"/>
      <point x="467.40000000000003" y="489.9" type="curve" smooth="yes"/>
      <point x="467.40000000000003" y="638.0"/>
      <point x="410.3" y="709.6"/>
      <point x="297.40000000000003" y="709.6" type="curve" smooth="yes"/>
      <point x="132.6" y="709.6"/>
      <point x="37.0" y="457.09999999999997"/>
      <point x="37.0" y="210.1" type="curve" smooth="yes"/>
      <point x="37.0" y="61.800000000000004"/>
      <point x="94.10000000000001" y="-9.6"/>
    </contour>
    <contour>
      <point x="210.2" y="39.199999999999996" type="curve" smooth="yes"/>
      <point x="133.5" y="39.199999999999996"/>
      <point x="90.0" y="91.3"/>
      <point x="90.0" y="207.4" type="curve" smooth="yes"/>
      <point x="90.0" y="425.4"/>
      <point x="172.8" y="660.8000000000001"/>
      <point x="295.40000000000003" y="660.8000000000001" type="curve" smooth="yes"/>
      <point x="371.3" y="660.8000000000001"/>
      <point x="414.6" y="608.9"/>
      <point x="414.6" y="492.99999999999994" type="curve" smooth="yes"/>
      <point x="414.6" y="279.8"/>
      <point x="332.0" y="39.199999999999996"/>
    </contour>
  </outline>
</glyph>
<glyph name="Thorn" format="2">
  <advance width="420.8"/>
  <unicode hex="00DE"/>
  <outline>
    <contour>
      <point x="12.0" y="0.0" type="line"/>
      <point x="65.10000000000001" y="0.0" type="line"/>
      <point x="91.3" y="162.9" type="line"/>
      <point x="127.2" y="160.9"/>
      <point x="155.70000000000002" y="160.8"/>
      <point x="192.0" y="160.8" type="curve" smooth="yes"/>
      <point x="332.5" y="160.8"/>
      <point x="417.9" y="267.59999999999997"/>
      <point x="417.9" y="452.2" type="curve" smooth="yes"/>
      <point x="417.9" y="556.3"/>
      <point x="368.3" y="612.3000000000001"/>
      <point x="247.29999999999998" y="612.3000000000001" type="curve" smooth="yes"/>
      <point x="227.5" y="612.3000000000001"/>
      <point x="202.79999999999998" y="611.4"/>
      <point x="161.10000000000002" y="608.6" type="curve"/>
      <point x="175.70000000000002" y="700.0" type="line"/>
      <point x="122.60000000000001" y="700.0" type="line"/>
    </contour>
    <contour>
      <point x="188.6" y="208.7" type="curve" smooth="yes"/>
      <point x="149.6" y="208.7"/>
      <point x="129.70000000000002" y="209.5"/>
      <point x="99.39999999999999" y="211.6" type="curve"/>
      <point x="154.0" y="559.4" type="line"/>
      <point x="198.3" y="563.1"/>
      <point x="220.0" y="564.1"/>
      <point x="241.70000000000002" y="564.1" type="curve" smooth="yes"/>
      <point x="328.4" y="564.1"/>
      <point x="364.9" y="526.2"/>
      <point x="364.9" y="444.8" type="curve" smooth="yes"/>
      <point x="364.9" y="298.0"/>
      <point x="302.20000000000005" y="208.7"/>
    </contour>
  </outline>
</glyph>
<glyph name="germandbls" format="2">
  <advance width="450.59999999999997"/>
  <unicode hex="00DF"/>
  <outline>
    <contour>
      <point x="24.900000000000002" y="-50.599999999999994" type="line" smooth="yes"/>
      <point x="12.8" y="-125.00000000000001"/>
      <point x="-7.400000000000001" y="-172.2"/>
      <point x="-58.2" y="-172.2" type="curve" smooth="yes"/>
      <point x="-71.89999999999999" y="-172.2"/>
      <point x="-84.5" y="-170.40000000000003"/>
      <point x="-101.60000000000001" y="-164.8" type="curve"/>
      <point x="-114.3" y="-209.5" type="line"/>
      <point x="-95.6" y="-217.0"/>
      <point x="-73.3" y="-220.0"/>
      <point x="-51.900000000000006" y="-220.0" type="curve" smooth="yes"/>
      <point x="22.9" y="-220.0"/>
      <point x="59.3" y="-163.20000000000002"/>
      <point x="76.0" y="-56.699999999999996" type="curve" smooth="yes"/>
      <point x="168.4" y="528.3000000000001" type="line" smooth="yes"/>
      <point x="186.5" y="640.5"/>
      <point x="228.70000000000002" y="701.6"/>
      <point x="311.00000000000006" y="701.6" type="curve" smooth="yes"/>
      <point x="359.4" y="701.6"/>
      <point x="385.8" y="682.1999999999999"/>
      <point x="385.8" y="640.1" type="curve" smooth="yes"/>
      <point x="385.8" y="598.3"/>
      <point x="366.8" y="572.3000000000001"/>
      <point x="307.9" y="534.3000000000001" type="curve" smooth="yes"/>
      <point x="239.7" y="490.4"/>
      <point x="207.99999999999997" y="452.2"/>
      <point x="207.99999999999997" y="382.9" type="curve" smooth="yes"/>
      <point x="207.99999999999997" y="325.1"/>
      <point x="241.3" y="286.5"/>
      <point x="304.4" y="243.4" type="curve" smooth="yes"/>
      <point x="357.2" y="207.79999999999998"/>
      <point x="375.9" y="183.99999999999997"/>
      <point x="375.9" y="143.0" type="curve" smooth="yes"/>
      <point x="375.9" y="83.60000000000001"/>
      <point x="327.0" y="37.800000000000004"/>
      <point x="257.1" y="37.800000000000004" type="curve" smooth="yes"/>
      <point x="220.5" y="37.800000000000004"/>
      <point x="179.39999999999998" y="46.900000000000006"/>
      <point x="146.8" y="60.4" type="curve"/>
      <point x="131.5" y="16.4" type="line"/>
      <point x="165.49999999999997" y="0.30000000000000004"/>
      <point x="211.4" y="-10.0"/>
      <point x="255.3" y="-10.0" type="curve" smooth="yes"/>
      <point x="363.8" y="-10.0"/>
      <point x="428.4" y="53.699999999999996"/>
      <point x="428.4" y="149.7" type="curve" smooth="yes"/>
      <point x="428.4" y="206.20000000000002"/>
      <point x="401.59999999999997" y="241.5"/>
      <point x="339.4" y="285.09999999999997" type="curve" smooth="yes"/>
      <point x="279.7" y="327.79999999999995"/>
      <point x="258.20000000000005" y="350.70000000000005"/>
      <point x="258.20000000000005" y="390.20000000000005" type="curve" smooth="yes"/>
      <point x="258.20000000000005" y="434.3"/>
      <point x="280.9" y="460.1"/>
      <point x="343.7" y="501.6" type="curve" smooth="yes"/>
      <point x="412.3" y="547.0"/>
      <point x="438.0" y="581.5999999999999"/>
      <point x="438.0" y="645.8000000000001" type="curve" smooth="yes"/>
      <point x="438.0" y="714.5999999999999"/>
      <point x="392.20000000000005" y="750.0"/>
      <point x="313.79999999999995" y="750.0" type="curve" smooth="yes"/>
      <point x="197.70000000000002" y="750.0"/>
      <point x="140.4" y="679.0"/>
      <point x="117.60000000000001" y="535.4" type="curve" smooth="yes"/>
      <point x="111.0" y="491.3" type="line"/>
      <point x="41.9" y="484.1" type="line"/>
      <point x="34.8" y="444.3" type="line"/>
      <point x="102.5" y="444.3" type="line"/>
    </contour>
  </outline>
</glyph>
<glyph name="ae" format="2">
  <advance width="616.5"/>
  <unicode hex="00E6"/>
  <anchor x="275.7" y="0.0" name="bottom"/>
  <anchor x="350.2" y="534.0" name="top"/>
  <outline>
    <contour>
      <point x="138.39999999999998" y="-10.0" type="curve" smooth="yes"/>
      <point x="178.2" y="-10.0"/>
      <point x="213.70000000000002" y="3.9999999999999996"/>
      <point x="241.0" y="25.6" type="curve"/>
      <point x="235.6" y="-5.5" type="line"/>
      <point x="284.2" y="-5.5" type="line"/>
      <point x="302.3" y="106.19999999999999" type="line"/>
      <point x="315.8" y="34.0"/>
      <point x="362.2" y="-9.6"/>
      <point x="434.20000000000005" y="-9.6" type="curve" smooth="yes"/>
      <point x="478.59999999999997" y="-9.6"/>
      <point x="528.0" y="0.9999999999999998"/>
      <point x="563.8" y="19.8" type="curve"/>
      <point x="554.4" y="64.4" type="line"/>
      <point x="514.9" y="47.4"/>
      <point x="476.5" y="38.1"/>
      <point x="438.90000000000003" y="38.1" type="curve" smooth="yes"/>
      <point x="366.2" y="38.1"/>
      <point x="322.59999999999997" y="94.1"/>
      <point x="322.59999999999997" y="185.9" type="curve" smooth="yes"/>
      <point x="322.59999999999997" y="362.2"/>
      <point x="393.5" y="498.5"/>
      <point x="495.09999999999997" y="498.5" type="curve" smooth="yes"/>
      <point x="543.4000000000001" y="498.5"/>
      <point x="565.9" y="476.4"/>
      <point x="565.9" y="436.4" type="curve" smooth="yes"/>
      <point x="565.9" y="374.8"/>
      <point x="511.40000000000003" y="321.8"/>
      <point x="424.7" y="294.4" type="curve" smooth="yes"/>
      <point x="388.0" y="282.0"/>
      <point x="348.09999999999997" y="276.09999999999997"/>
      <point x="309.90000000000003" y="275.2" type="curve"/>
      <point x="304.8" y="235.0" type="line"/>
      <point x="344.2" y="235.2"/>
      <point x="391.3" y="240.8"/>
      <point x="433.4" y="254.20000000000002" type="curve" smooth="yes"/>
      <point x="545.8000000000001" y="286.1"/>
      <point x="616.5" y="356.6"/>
      <point x="616.5" y="444.6" type="curve" smooth="yes"/>
      <point x="616.5" y="506.29999999999995"/>
      <point x="578.4" y="544.0"/>
      <point x="510.90000000000003" y="544.0" type="curve" smooth="yes"/>
      <point x="445.5" y="544.0"/>
      <point x="388.90000000000003" y="507.09999999999997"/>
      <point x="353.1" y="438.0" type="curve"/>
      <point x="369.7" y="542.0" type="line"/>
      <point x="322.2" y="542.0" type="line"/>
      <point x="319.0" y="521.8000000000001" type="line"/>
      <point x="297.8" y="537.0"/>
      <point x="270.6" y="544.0"/>
      <point x="244.20000000000002" y="544.0" type="curve" smooth="yes"/>
      <point x="116.60000000000001" y="544.0"/>
      <point x="21.5" y="386.9"/>
      <point x="21.5" y="153.7" type="curve" smooth="yes"/>
      <point x="21.5" y="47.3"/>
      <point x="64.0" y="-10.0"/>
    </contour>
    <contour>
      <point x="156.9" y="34.800000000000004" type="curve" smooth="yes"/>
      <point x="106.60000000000001" y="34.800000000000004"/>
      <point x="75.5" y="77.5"/>
      <point x="75.5" y="157.8" type="curve" smooth="yes"/>
      <point x="75.5" y="347.2"/>
      <point x="153.39999999999998" y="498.59999999999997"/>
      <point x="248.79999999999998" y="498.59999999999997" type="curve" smooth="yes"/>
      <point x="272.1" y="498.59999999999997"/>
      <point x="294.2" y="493.5"/>
      <point x="312.40000000000003" y="478.6" type="curve"/>
      <point x="247.2" y="65.2" type="line"/>
      <point x="222.3" y="47.199999999999996"/>
      <point x="188.0" y="34.800000000000004"/>
    </contour>
  </outline>
</glyph>
<glyph name="eth" format="2">
  <advance width="398.4"/>
  <unicode hex="00F0"/>
  <outline>
    <contour>
      <point x="347.8" y="451.90000000000003" type="curve"/>
      <point x="357.1" y="494.8" type="line"/>
      <point x="329.90000000000003" y="520.9000000000001"/>
      <point x="288.09999999999997" y="534.0"/>
      <point x="245.4" y="534.0" type="curve" smooth="yes"/>
      <point x="100.6" y="534.0"/>
      <point x="22.8" y="336.8"/>
      <point x="22.8" y="152.9" type="curve" smooth="yes"/>
      <point x="22.8" y="41.6"/>
      <point x="73.80000000000001" y="-9.8"/>
      <point x="158.1" y="-9.8" type="curve" smooth="yes"/>
      <point x="270.6" y="-9.8"/>
      <point x="332.2" y="74.5"/>
      <point x="370.2" y="306.4" type="curve" smooth="yes"/>
      <point x="383.1" y="385.8"/>
      <point x="390.2" y="447.4"/>
      <point x="390.2" y="499.80000000000007" type="curve" smooth="yes"/>
      <point x="390.2" y="645.6"/>
      <point x="320.8" y="719.4"/>
      <point x="191.20000000000002" y="719.4" type="curve" smooth="yes"/>
      <point x="160.4" y="719.4"/>
      <point x="129.0" y="714.4"/>
      <point x="96.19999999999999" y="707.2" type="curve"/>
      <point x="99.0" y="666.9000000000001" type="line"/>
      <point x="129.4" y="672.9000000000001"/>
      <point x="152.0" y="676.9"/>
      <point x="183.7" y="676.9" type="curve" smooth="yes"/>
      <point x="287.4" y="676.9"/>
      <point x="337.8" y="623.3"/>
      <point x="337.8" y="506.5" type="curve" smooth="yes"/>
      <point x="337.8" y="455.09999999999997"/>
      <point x="332.0" y="392.1"/>
      <point x="318.7" y="314.5" type="curve" smooth="yes"/>
      <point x="282.59999999999997" y="102.89999999999999"/>
      <point x="237.3" y="32.7"/>
      <point x="161.9" y="32.7" type="curve" smooth="yes"/>
      <point x="104.8" y="32.7"/>
      <point x="73.7" y="70.3"/>
      <point x="73.7" y="146.4" type="curve" smooth="yes"/>
      <point x="73.7" y="302.1"/>
      <point x="138.79999999999998" y="491.59999999999997"/>
      <point x="251.1" y="491.59999999999997" type="curve" smooth="yes"/>
      <point x="287.09999999999997" y="491.59999999999997"/>
      <point x="321.5" y="480.59999999999997"/>
    </contour>
    <contour>
      <point x="168.20000000000002" y="565.9" type="line"/>
      <point x="314.20000000000005" y="648.7" type="line"/>
      <point x="312.9" y="650.3000000000001" type="line"/>
      <point x="443.8" y="724.8" type="line"/>
      <point x="384.4" y="724.8" type="line"/>
      <point x="289.70000000000005" y="671.5" type="line"/>
      <point x="291.1" y="670.1" type="line"/>
      <point x="109.3" y="565.9" type="line"/>
    </contour>
  </outline>
</glyph>
<glyph name="divide" format="2">
  <advance width="391.76"/>
  <unicode hex="00F7"/>
  <outline>
    <contour>
      <point x="138.08" y="96.48" type="curve" smooth="yes"/>
      <point x="137.08" y="81.35999999999999"/>
      <point x="143.44" y="75.47999999999999"/>
      <point x="162.72" y="75.47999999999999" type="curve" smooth="yes"/>
      <point x="188.56" y="75.47999999999999"/>
      <point x="196.68" y="83.67999999999999"/>
      <point x="199.28" y="117.28" type="curve" smooth="yes"/>
      <point x="200.28" y="133.08"/>
      <point x="192.55999999999997" y="138.28000000000003"/>
      <point x="174.35999999999999" y="138.28000000000003" type="curve" smooth="yes"/>
      <point x="148.88000000000002" y="138.28000000000003"/>
      <point x="140.68" y="127.48000000000002"/>
    </contour>
    <contour>
      <point x="199.20000000000002" y="476.32" type="curve" smooth="yes"/>
      <point x="198.20000000000002" y="461.40000000000003"/>
      <point x="204.36" y="455.52"/>
      <point x="223.64000000000001" y="455.52" type="curve" smooth="yes"/>
      <point x="249.48000000000002" y="455.52"/>
      <point x="257.59999999999997" y="463.92"/>
      <point x="260.2" y="497.12" type="curve" smooth="yes"/>
      <point x="261.2" y="513.12"/>
      <point x="253.68" y="518.32"/>
      <point x="235.28000000000003" y="518.32" type="curve" smooth="yes"/>
      <point x="209.2" y="518.32"/>
      <point x="201.79999999999998" y="506.71999999999997"/>
    </contour>
    <contour>
      <point x="44.28" y="271.99999999999994" type="line"/>
      <point x="346.96" y="271.99999999999994" type="line"/>
      <point x="355.08" y="321.99999999999994" type="line"/>
      <point x="52.2" y="321.99999999999994" type="line"/>
    </contour>
  </outline>
</glyph>
<glyph name="oslash" format="2">
  <advance width="382.5"/>
  <unicode hex="00F8"/>
  <anchor x="231.2" y="534.0" name="top"/>
  <outline>
    <contour>
      <point x="354.8" y="543.9" type="line"/>
      <point x="312.1" y="480.09999999999997" type="line"/>
      <point x="309.8" y="480.7" type="line"/>
      <point x="58.5" y="90.8" type="line"/>
      <point x="56.4" y="91.8" type="line"/>
      <point x="-11.4" y="-10.0" type="line"/>
      <point x="30.6" y="-10.0" type="line"/>
      <point x="75.0" y="55.1" type="line"/>
      <point x="77.5" y="54.5" type="line"/>
      <point x="327.7" y="443.3" type="line"/>
      <point x="329.6" y="442.3" type="line"/>
      <point x="396.8" y="543.9" type="line"/>
    </contour>
    <contour>
      <point x="159.6" y="-10.0" type="curve" smooth="yes"/>
      <point x="299.40000000000003" y="-10.0"/>
      <point x="359.4" y="224.49999999999997"/>
      <point x="359.4" y="391.3" type="curve" smooth="yes"/>
      <point x="359.4" y="500.3"/>
      <point x="312.4" y="543.9"/>
      <point x="225.4" y="543.9" type="curve" smooth="yes"/>
      <point x="85.3" y="543.9"/>
      <point x="24.8" y="304.8"/>
      <point x="24.8" y="141.79999999999998" type="curve" smooth="yes"/>
      <point x="24.8" y="32.599999999999994"/>
      <point x="70.3" y="-10.0"/>
    </contour>
    <contour>
      <point x="160.0" y="35.5" type="curve" smooth="yes"/>
      <point x="104.5" y="35.3"/>
      <point x="74.9" y="63.2"/>
      <point x="74.7" y="141.0" type="curve" smooth="yes"/>
      <point x="74.30000000000001" y="259.40000000000003"/>
      <point x="124.20000000000002" y="498.0"/>
      <point x="224.7" y="498.40000000000003" type="curve" smooth="yes"/>
      <point x="278.6" y="498.6"/>
      <point x="309.1" y="468.59999999999997"/>
      <point x="309.3" y="391.8" type="curve" smooth="yes"/>
      <point x="309.70000000000005" y="268.3"/>
      <point x="260.4" y="35.9"/>
    </contour>
  </outline>
</glyph>
<glyph name="thorn" format="2">
  <advance width="389.09999999999997"/>
  <unicode hex="00FE"/>
  <outline>
    <contour>
      <point x="-20.68" y="-210.0" type="line"/>
      <point x="30.980000000000004" y="-210.0" type="line"/>
      <point x="64.46000000000001" y="0.24000000000000013" type="line"/>
      <point x="85.06000000000002" y="-5.48"/>
      <point x="108.82" y="-9.7"/>
      <point x="138.14" y="-9.7" type="curve" smooth="yes"/>
      <point x="279.99999999999994" y="-9.7"/>
      <point x="366.75999999999993" y="176.2"/>
      <point x="366.75999999999993" y="378.58" type="curve" smooth="yes"/>
      <point x="366.75999999999993" y="491.36"/>
      <point x="331.12" y="544.0"/>
      <point x="257.28" y="544.0" type="curve" smooth="yes"/>
      <point x="212.57999999999998" y="544.0"/>
      <point x="178.72" y="526.18"/>
      <point x="143.89999999999998" y="503.7" type="curve"/>
      <point x="181.62" y="740.0" type="line"/>
      <point x="129.32" y="740.0" type="line"/>
    </contour>
    <contour>
      <point x="133.42000000000002" y="36.16" type="curve" smooth="yes"/>
      <point x="109.36" y="36.16"/>
      <point x="88.4" y="40.36000000000001"/>
      <point x="71.86000000000001" y="46.46000000000001" type="curve"/>
      <point x="137.14" y="458.6" type="line"/>
      <point x="167.7" y="479.94"/>
      <point x="204.34000000000003" y="494.24"/>
      <point x="234.57999999999998" y="494.24" type="curve" smooth="yes"/>
      <point x="286.8" y="494.24"/>
      <point x="313.46000000000004" y="454.0"/>
      <point x="313.46000000000004" y="369.21999999999997" type="curve" smooth="yes"/>
      <point x="313.46000000000004" y="201.0"/>
      <point x="241.79999999999998" y="36.16"/>
    </contour>
  </outline>
</glyph>
<glyph name="Dcroat" format="2">
  <advance width="470.03999999999996"/>
  <unicode hex="0110"/>
  <outline>
    <contour>
      <point x="19.36" y="335.58" type="line"/>
      <point x="232.60000000000002" y="335.58" type="line"/>
      <point x="240.8" y="382.9" type="line"/>
      <point x="27.799999999999997" y="382.9" type="line"/>
    </contour>
    <component base="D" xOffset="6.859999999999999"/>
  </outline>
</glyph>
<glyph name="dcroat" format="2">
  <advance width="394.14"/>
  <unicode hex="0111"/>
  <outline>
    <contour>
      <point x="213.24" y="617.34" type="line"/>
      <point x="451.0" y="617.34" type="line"/>
      <point x="456.8" y="650.3999999999999" type="line"/>
      <point x="219.14000000000001" y="650.3999999999999" type="line"/>
    </contour>
    <component base="d"/>
  </outline>
</glyph>
<glyph name="Hbar" format="2">
  <advance width="479.52000000000004"/>
  <unicode hex="0126"/>
  <outline>
    <contour>
      <point x="45.919999999999995" y="501.08000000000004" type="line"/>
      <point x="505.56" y="501.08000000000004" type="line"/>
      <point x="512.24" y="544.24" type="line"/>
      <point x="52.6" y="544.24" type="line"/>
    </contour>
    <component base="H" xOffset="1.6400000000000001"/>
  </outline>
</glyph>
<glyph name="hbar" format="2">
  <advance width="397.40000000000003"/>
  <unicode hex="0127"/>
  <outline>
    <contour>
      <point x="54.28" y="617.34" type="line"/>
      <point x="271.02" y="617.34" type="line"/>
      <point x="276.62" y="650.3999999999999" type="line"/>
      <point x="59.879999999999995" y="650.3999999999999" type="line"/>
    </contour>
    <component base="h" xOffset="1.0"/>
  </outline>
</glyph>
<glyph name="Idotaccent" format="2">
  <advance width="166.88"/>
  <unicode hex="0130"/>
  <outline>
    <contour>
      <point x="177.64" y="865.5999999999999" type="curve" smooth="yes"/>
      <point x="148.72" y="865.5999999999999"/>
      <point x="140.48" y="851.0"/>
      <point x="138.40000000000003" y="817.0" type="curve" smooth="yes"/>
      <point x="137.76" y="799.96"/>
      <point x="147.88" y="794.24"/>
      <point x="164.64000000000001" y="794.24" type="curve" smooth="yes"/>
      <point x="193.4" y="794.24"/>
      <point x="201.92000000000002" y="808.6"/>
      <point x="204.15999999999997" y="843.2" type="curve" smooth="yes"/>
      <point x="204.8" y="860.04"/>
      <point x="195.0" y="865.5999999999999"/>
    </contour>
    <component base="I"/>
  </outline>
</glyph>
<glyph name="dotlessi" format="2">
  <advance width="163.28"/>
  <unicode hex="0131"/>
  <anchor x="37.337759999999996" y="0.0" name="bottom"/>
  <anchor x="64.0" y="0.0" name="ogonek"/>
  <anchor x="122.10224" y="534.0" name="top"/>
  <outline>
    <contour>
      <point x="64.0" y="0.0" type="line"/>
      <point x="148.56000000000003" y="534.0" type="line"/>
      <point x="96.12" y="534.0" type="line"/>
      <point x="12.120000000000001" y="0.04000000000000001" type="line"/>
    </contour>
  </outline>
</glyph>
<glyph name="Ldot" format="2">
  <advance width="343.36"/>
  <unicode hex="013F"/>
  <outline>
    <contour>
      <point x="242.35968000000003" y="363.07392" type="curve" smooth="yes"/>
      <point x="240.91968000000003" y="344.68832"/>
      <point x="246.26592" y="338.54224"/>
      <point x="264.6248" y="338.54224" type="curve" smooth="yes"/>
      <point x="288.28976" y="338.54224"/>
      <point x="294.40927999999997" y="351.11343999999997"/>
      <point x="296.16928" y="375.56544" type="curve" smooth="yes"/>
      <point x="297.60928" y="393.17776"/>
      <point x="292.90304000000003" y="399.96384"/>
      <point x="274.69072" y="399.96384" type="curve" smooth="yes"/>
      <point x="251.17248" y="399.96384"/>
      <point x="244.11968000000002" y="387.36591999999996"/>
    </contour>
    <component base="L"/>
  </outline>
</glyph>
<glyph name="ldot" format="2">
  <advance width="231.32000000000002"/>
  <unicode hex="0140"/>
  <outline>
    <contour>
      <point x="189.4074" y="356.97040000000004" type="curve" smooth="yes"/>
      <point x="187.96740000000003" y="339.44768000000005"/>
      <point x="192.52596" y="333.78968000000003"/>
      <point x="209.20764000000003" y="333.78968000000003" type="curve" smooth="yes"/>
      <point x="230.94351999999998" y="333.78968000000003"/>
      <point x="235.826" y="345.69524"/>
      <point x="237.586" y="368.89096" type="curve" smooth="yes"/>
      <point x="239.02599999999998" y="385.61748"/>
      <point x="235.10744" y="391.91548"/>
      <point x="218.553" y="391.91548" type="curve" smooth="yes"/>
      <point x="196.94416" y="391.91548"/>
      <point x="191.16740000000001" y="380.05784"/>
    </contour>
    <component base="l"/>
  </outline>
</glyph>
<glyph name="Lslash" format="2">
  <advance width="350.76"/>
  <unicode hex="0141"/>
  <outline>
    <contour>
      <point x="18.6" y="0.0" type="line"/>
      <point x="297.15999999999997" y="0.0" type="line"/>
      <point x="305.16" y="49.48" type="line"/>
      <point x="79.48" y="49.48" type="line"/>
      <point x="116.16" y="279.96000000000004" type="line"/>
      <point x="278.72" y="394.32000000000005" type="line"/>
      <point x="288.04" y="450.79999999999995" type="line"/>
      <point x="125.15999999999998" y="336.28000000000003" type="line"/>
      <point x="182.88" y="700.0" type="line"/>
      <point x="129.92" y="700.0" type="line"/>
      <point x="66.96" y="302.87999999999994" type="line"/>
      <point x="13.680000000000001" y="264.28000000000003" type="line"/>
      <point x="4.28" y="207.35999999999999" type="line"/>
      <point x="57.31999999999999" y="245.92" type="line"/>
    </contour>
  </outline>
</glyph>
<glyph name="lslash" format="2">
  <advance width="190.60000000000002"/>
  <unicode hex="0142"/>
  <outline>
    <contour>
      <point x="0.72" y="191.16" type="line"/>
      <point x="197.60000000000002" y="369.64" type="line"/>
      <point x="205.84" y="423.47999999999996" type="line"/>
      <point x="8.76" y="245.0" type="line"/>
    </contour>
    <component base="l" xOffset="3.1999999999999997"/>
  </outline>
</glyph>
<glyph name="Eng" format="2">
  <advance width="472.2"/>
  <unicode hex="014A"/>
  <outline>
    <contour>
      <point x="11.9" y="0.0" type="line"/>
      <point x="63.0" y="0.0" type="line"/>
      <point x="154.8" y="584.2" type="line"/>
      <point x="321.5" y="-0.20000000000000026" type="line"/>
      <point x="308.5" y="-81.6"/>
      <point x="264.2" y="-107.5"/>
      <point x="206.10000000000002" y="-107.5" type="curve" smooth="yes"/>
      <point x="186.0" y="-107.89999999999999"/>
      <point x="164.9" y="-104.9"/>
      <point x="143.6" y="-99.39999999999999" type="curve"/>
      <point x="133.3" y="-152.39999999999998" type="line"/>
      <point x="156.89999999999998" y="-158.29999999999998"/>
      <point x="181.3" y="-161.2"/>
      <point x="203.2" y="-161.2" type="curve" smooth="yes"/>
      <point x="306.90000000000003" y="-160.6"/>
      <point x="356.2" y="-102.5"/>
      <point x="373.0" y="2.8" type="curve" smooth="yes"/>
      <point x="483.99999999999994" y="700.0" type="line"/>
      <point x="433.20000000000005" y="700.0" type="line"/>
      <point x="341.1" y="112.6" type="line"/>
      <point x="176.4" y="701.6" type="line"/>
      <point x="122.7" y="701.6" type="line"/>
    </contour>
  </outline>
</glyph>
<glyph name="eng" format="2">
  <advance width="393.47999999999996"/>
  <unicode hex="014B"/>
  <outline>
    <contour>
      <point x="285.08000000000004" y="-51.72" type="curve" smooth="yes"/>
      <point x="339.84000000000003" y="300.2"/>
      <point x="365.28000000000003" y="449.4"/>
      <point x="365.28000000000003" y="462.23999999999995" type="curve" smooth="yes"/>
      <point x="365.28000000000003" y="511.59999999999997"/>
      <point x="334.44" y="544.0"/>
      <point x="275.24" y="544.0" type="curve" smooth="yes"/>
      <point x="228.8" y="544.0"/>
      <point x="184.36" y="526.72"/>
      <point x="139.04" y="500.56" type="curve"/>
      <point x="144.56" y="534.0" type="line"/>
      <point x="96.08000000000001" y="534.0" type="line"/>
      <point x="11.64" y="0.0" type="line"/>
      <point x="63.24" y="0.0" type="line"/>
      <point x="136.51999999999998" y="458.79999999999995" type="line"/>
      <point x="173.60000000000002" y="480.12"/>
      <point x="212.12" y="495.68"/>
      <point x="247.96" y="495.68" type="curve" smooth="yes"/>
      <point x="291.56" y="495.68"/>
      <point x="310.56" y="475.84"/>
      <point x="310.24" y="440.23999999999995" type="curve" smooth="yes"/>
      <point x="309.76" y="428.08"/>
      <point x="297.76000000000005" y="355.12"/>
      <point x="234.24" y="-48.400000000000006" type="curve" smooth="yes"/>
      <point x="222.72000000000003" y="-120.88"/>
      <point x="201.72" y="-167.72"/>
      <point x="151.12000000000003" y="-167.72" type="curve" smooth="yes"/>
      <point x="141.96" y="-167.72"/>
      <point x="133.12" y="-166.76"/>
      <point x="121.87999999999998" y="-163.39999999999998" type="curve"/>
      <point x="109.76" y="-215.64" type="line"/>
      <point x="122.72" y="-219.24"/>
      <point x="141.12" y="-220.95999999999998"/>
      <point x="157.08" y="-220.95999999999998" type="curve" smooth="yes"/>
      <point x="226.39999999999998" y="-220.95999999999998"/>
      <point x="267.84000000000003" y="-168.20000000000002"/>
    </contour>
  </outline>
</glyph>
<glyph name="OE" format="2">
  <advance width="680.4999999999999"/>
  <unicode hex="0152"/>
  <outline>
    <contour>
      <point x="616.6400000000001" y="0.0" type="line"/>
      <point x="624.6400000000001" y="49.7" type="line"/>
      <point x="371.18" y="49.7" type="line"/>
      <point x="416.64000000000004" y="338.79999999999995" type="line"/>
      <point x="639.14" y="338.79999999999995" type="line"/>
      <point x="647.3399999999999" y="387.5" type="line"/>
      <point x="424.64" y="387.5" type="line"/>
      <point x="466.00000000000006" y="649.8" type="line"/>
      <point x="706.5999999999999" y="649.8" type="line"/>
      <point x="715.38" y="700.0" type="line"/>
      <point x="470.40000000000003" y="700.0" type="line"/>
      <point x="429.97999999999996" y="703.9799999999999"/>
      <point x="382.48" y="710.0"/>
      <point x="338.06" y="710.0" type="curve" smooth="yes"/>
      <point x="149.52" y="710.0"/>
      <point x="36.25999999999999" y="500.56000000000006"/>
      <point x="36.25999999999999" y="198.66" type="curve" smooth="yes"/>
      <point x="36.25999999999999" y="50.32000000000001"/>
      <point x="96.84" y="-10.0"/>
      <point x="235.14" y="-10.0" type="curve" smooth="yes"/>
      <point x="269.92" y="-10.0"/>
      <point x="310.73999999999995" y="-6.22"/>
      <point x="358.9400000000001" y="0.0" type="curve"/>
    </contour>
    <contour>
      <point x="317.0" y="44.120000000000005" type="line"/>
      <point x="287.36" y="39.580000000000005"/>
      <point x="262.88" y="38.02"/>
      <point x="236.10000000000002" y="38.02" type="curve" smooth="yes"/>
      <point x="129.4" y="38.02"/>
      <point x="89.38000000000001" y="93.4"/>
      <point x="89.38000000000001" y="206.07999999999998" type="curve" smooth="yes"/>
      <point x="89.38000000000001" y="466.2"/>
      <point x="186.85999999999999" y="661.46"/>
      <point x="331.53999999999996" y="661.46" type="curve" smooth="yes"/>
      <point x="353.0" y="661.46"/>
      <point x="398.06" y="657.38"/>
      <point x="413.78" y="655.22" type="curve"/>
    </contour>
  </outline>
</glyph>
<glyph name="oe" format="2">
  <advance width="635.6"/>
  <unicode hex="0153"/>
  <outline>
    <contour>
      <point x="158.9" y="-10.0" type="curve" smooth="yes"/>
      <point x="224.6" y="-10.0"/>
      <point x="274.90000000000003" y="48.3"/>
      <point x="303.0" y="128.1" type="curve"/>
      <point x="316.2" y="39.1"/>
      <point x="364.0" y="-10.0"/>
      <point x="444.40000000000003" y="-10.0" type="curve" smooth="yes"/>
      <point x="491.40000000000003" y="-10.0"/>
      <point x="544.4" y="0.9999999999999998"/>
      <point x="582.5999999999999" y="19.8" type="curve"/>
      <point x="571.6" y="65.4" type="line"/>
      <point x="530.1" y="48.0"/>
      <point x="487.3" y="38.699999999999996"/>
      <point x="452.3" y="38.699999999999996" type="curve" smooth="yes"/>
      <point x="381.5" y="38.699999999999996"/>
      <point x="341.8" y="89.1"/>
      <point x="341.8" y="185.1" type="curve" smooth="yes"/>
      <point x="341.8" y="368.5"/>
      <point x="416.2" y="498.5"/>
      <point x="513.9000000000001" y="498.5" type="curve" smooth="yes"/>
      <point x="561.4000000000001" y="498.5"/>
      <point x="584.9" y="476.7"/>
      <point x="584.9" y="435.8" type="curve" smooth="yes"/>
      <point x="584.9" y="374.3"/>
      <point x="530.1" y="322.5"/>
      <point x="443.5" y="295.0" type="curve" smooth="yes"/>
      <point x="409.5" y="284.2"/>
      <point x="370.8" y="278.0"/>
      <point x="335.0" y="277.1" type="curve"/>
      <point x="328.40000000000003" y="235.0" type="line"/>
      <point x="369.7" y="236.0"/>
      <point x="414.40000000000003" y="242.1"/>
      <point x="452.0" y="253.4" type="curve" smooth="yes"/>
      <point x="564.4" y="285.9"/>
      <point x="635.3" y="356.9"/>
      <point x="635.3" y="444.6" type="curve" smooth="yes"/>
      <point x="635.3" y="506.29999999999995"/>
      <point x="594.0" y="544.0"/>
      <point x="520.5" y="544.0" type="curve" smooth="yes"/>
      <point x="445.0" y="544.0"/>
      <point x="383.90000000000003" y="496.8"/>
      <point x="346.9" y="420.8" type="curve"/>
      <point x="340.4" y="503.0"/>
      <point x="300.5" y="543.9"/>
      <point x="220.1" y="543.9" type="curve" smooth="yes"/>
      <point x="86.3" y="543.9"/>
      <point x="22.1" y="304.6"/>
      <point x="22.1" y="142.79999999999998" type="curve" smooth="yes"/>
      <point x="22.1" y="33.8"/>
      <point x="66.60000000000001" y="-10.0"/>
    </contour>
    <contour>
      <point x="160.7" y="36.300000000000004" type="curve" smooth="yes"/>
      <point x="102.60000000000001" y="36.300000000000004"/>
      <point x="73.6" y="63.400000000000006"/>
      <point x="73.39999999999999" y="141.4" type="curve" smooth="yes"/>
      <point x="73.0" y="261.40000000000003"/>
      <point x="127.89999999999999" y="497.4"/>
      <point x="218.6" y="497.6" type="curve" smooth="yes"/>
      <point x="275.1" y="497.6"/>
      <point x="305.2" y="468.59999999999997"/>
      <point x="305.4" y="391.40000000000003" type="curve" smooth="yes"/>
      <point x="305.79999999999995" y="269.5"/>
      <point x="251.3" y="36.50000000000001"/>
    </contour>
  </outline>
</glyph>
<glyph name="uni0162" format="2">
  <advance width="360.32000000000005"/>
  <unicode hex="0162"/>
  <anchor x="136.23824" y="0.0" name="_bottom"/>
  <anchor x="90.64" y="-220.0" name="bottom"/>
  <outline>
    <contour>
      <point x="35.720000000000006" y="-204.96" type="line"/>
      <point x="53.480000000000004" y="-216.0"/>
      <point x="71.60000000000001" y="-220.0"/>
      <point x="92.08" y="-220.0" type="curve" smooth="yes"/>
      <point x="150.12" y="-220.0"/>
      <point x="181.79999999999998" y="-163.67999999999998"/>
      <point x="181.79999999999998" y="-99.48" type="curve" smooth="yes"/>
      <point x="181.79999999999998" y="-62.03999999999999"/>
      <point x="171.72" y="-25.88"/>
      <point x="156.28" y="2.48" type="curve"/>
      <point x="118.24000000000001" y="1.5200000000000002" type="line"/>
      <point x="133.92" y="-30.68"/>
      <point x="142.40000000000003" y="-61.12"/>
      <point x="142.40000000000003" y="-93.96" type="curve" smooth="yes"/>
      <point x="142.40000000000003" y="-148.64000000000001"/>
      <point x="120.08" y="-179.92000000000002"/>
      <point x="87.0" y="-179.92000000000002" type="curve" smooth="yes"/>
      <point x="72.16000000000001" y="-179.92000000000002"/>
      <point x="59.6" y="-175.56"/>
      <point x="46.68" y="-167.84" type="curve"/>
    </contour>
    <component base="T"/>
  </outline>
</glyph>
<glyph name="Tbar" format="2">
  <advance width="363.68"/>
  <unicode hex="0166"/>
  <outline>
    <contour>
      <point x="416.16" y="652.0799999999999" type="line"/>
      <point x="424.12" y="700.0" type="line"/>
      <point x="73.99999999999999" y="700.0" type="line"/>
      <point x="66.0" y="652.0799999999999" type="line"/>
      <point x="214.56" y="652.0799999999999" type="line"/>
      <point x="172.64" y="391.79999999999995" type="line"/>
      <point x="65.92" y="391.79999999999995" type="line"/>
      <point x="57.68" y="344.36" type="line"/>
      <point x="165.56" y="344.36" type="line"/>
      <point x="111.0" y="0.0" type="line"/>
      <point x="163.79999999999998" y="0.0" type="line"/>
      <point x="218.36" y="344.36" type="line"/>
      <point x="328.6" y="344.36" type="line"/>
      <point x="336.84000000000003" y="391.79999999999995" type="line"/>
      <point x="226.08" y="391.79999999999995" type="line"/>
      <point x="267.32000000000005" y="652.0799999999999" type="line"/>
    </contour>
  </outline>
</glyph>
<glyph name="tbar" format="2">
  <advance width="257.76"/>
  <unicode hex="0167"/>
  <outline>
    <contour>
      <point x="17.04" y="298.98" type="line"/>
      <point x="245.72" y="298.98" type="line"/>
      <point x="252.82" y="339.68" type="line"/>
      <point x="24.04" y="339.68" type="line"/>
    </contour>
    <contour>
      <point x="217.38000000000002" y="51.1" type="line"/>
      <point x="196.18000000000004" y="44.8"/>
      <point x="175.44000000000003" y="40.3"/>
      <point x="156.62" y="40.3" type="curve" smooth="yes"/>
      <point x="112.55999999999999" y="40.3"/>
      <point x="95.61999999999999" y="62.120000000000005"/>
      <point x="95.61999999999999" y="102.32000000000001" type="curve" smooth="yes"/>
      <point x="95.61999999999999" y="113.78"/>
      <point x="97.19999999999999" y="126.24000000000002"/>
      <point x="99.22000000000001" y="140.73999999999998" type="curve" smooth="yes"/>
      <point x="154.70000000000002" y="487.73999999999995" type="line"/>
      <point x="287.52000000000004" y="487.73999999999995" type="line"/>
      <point x="295.42" y="534.0" type="line"/>
      <point x="162.4" y="534.0" type="line"/>
      <point x="182.62" y="663.1" type="line"/>
      <point x="139.18" y="663.1" type="line"/>
      <point x="109.8" y="534.0" type="line"/>
      <point x="41.9" y="527.4000000000001" type="line"/>
      <point x="34.879999999999995" y="488.03999999999996" type="line"/>
      <point x="101.89999999999999" y="488.03999999999996" type="line"/>
      <point x="46.120000000000005" y="136.84" type="line" smooth="yes"/>
      <point x="42.720000000000006" y="116.92"/>
      <point x="41.0" y="95.0"/>
      <point x="41.0" y="79.66000000000001" type="curve" smooth="yes"/>
      <point x="41.0" y="18.779999999999998"/>
      <point x="71.96000000000001" y="-10.0"/>
      <point x="132.14" y="-10.0" type="curve" smooth="yes"/>
      <point x="158.08" y="-10.0"/>
      <point x="187.44" y="-5.12"/>
      <point x="218.0" y="6.48" type="curve"/>
    </contour>
  </outline>
</glyph>
